<?xml version="1.0" encoding="utf-8"?>
<!-- Generator: Adobe Illustrator 27.0.0, SVG Export Plug-In . SVG Version: 6.00 Build 0)  -->
<svg version="1.1" id="Capa_1" xmlns="http://www.w3.org/2000/svg" xmlns:xlink="http://www.w3.org/1999/xlink" x="0px" y="0px"
	 viewBox="0 0 612 792" style="enable-background:new 0 0 612 792;" xml:space="preserve">
<style type="text/css">
	.st0{fill:#FFFFFF;}
	.st1{fill:#F4E023;}
</style>
<path class="st0" d="M311.95,366.98c0.91,1.08,1.54,1.83,2.18,2.57c7.23,8.45,12.85,17.86,18.61,27.22
	c5.72,9.27,10.48,18.93,14.61,28.87c3.39,8.15,6.36,16.44,9.52,24.67c1,2.59,0.82,5.23-0.68,7.48c-2.63,3.92-5.6,7.65-8.45,11.44
	c-1.62,2.16-3.14,4.41-4.96,6.41c-3.08,3.39-6.39,6.61-9.56,9.94c-1.13,1.18-2,2.6-3.21,3.69c-0.92,0.83-2.32,1.91-3.29,1.75
	c-0.94-0.16-2.05-1.66-2.32-2.74c-0.95-3.76-1.7-7.57-2.27-11.4c-0.79-5.29-1.13-10.65-2.05-15.92c-2.65-15.3-4.43-30.74-8.84-45.74
	c-1.57-5.32-3.05-10.68-4.91-15.91c-2.63-7.37-5.58-14.64-8.4-21.94c-0.06-0.17-0.21-0.3-0.4-0.57c-0.58,0.16-1.17,0.34-1.78,0.49
	c-5.47,1.38-10.71,1.54-15.27-2.35c-1-0.85-2.67-0.56-3.18,0.64c-1.9,4.41-3.86,8.82-5.48,13.32c-2.72,7.61-5.24,15.28-7.77,22.95
	c-3.94,11.91-6.22,24.16-7.99,36.49c-1.75,12.17-3.36,24.36-5.11,36.54c-0.22,1.56-0.8,3.09-1.31,4.61
	c-0.65,1.92-2.69,2.48-4.35,1.22c-0.5-0.38-0.93-0.87-1.35-1.33c-2.66-2.94-5.04-6.16-8.01-8.79c-5.85-5.16-9.63-11.72-14.4-17.61
	c-1.55-1.92-2.97-3.97-4.14-6.12c-1.11-2.04-1.02-4.3-0.2-6.47c5.02-13.22,9.5-26.65,16.22-39.23c4.51-8.43,9.33-16.73,14.47-24.84
	c3.69-5.83,8.19-11.21,12.16-16.9c0.61-0.87,0.28-2.31,0.38-3.35c-6.61,0.14-12.77,0.7-18.87,0.31
	c-11.35-0.73-22.78-1.42-33.97-3.22c-14.42-2.32-28.67-5.64-42.95-8.73c-4.04-0.87-8.07-2.13-11.82-3.77
	c-4.02-1.76-5.24-5.02-4.02-8.52c0.76-2.2,1.59-4.38,2.16-6.62c0.26-0.99,0.23-2.19-0.12-3.16c-2.04-5.69,0.78-9.4,7.24-8.96
	c2.97,0.2,5.91,1.01,8.8,1.76c8.88,2.29,17.7,4.8,26.61,6.99c8.22,2.01,16.48,3.91,24.8,5.51c17.32,3.34,34.85,4.72,52.52,4.39
	c0.63-0.01,1.36-0.31,1.85-0.7c1.94-1.53,3.86-3.09,5.67-4.75c4.31-3.93,13.41-4.55,18.02-0.35c0.88,0.8,1.97,1.43,3.03,2.02
	c0.42,0.23,1.07,0.28,1.58,0.19c5.78-0.99,10.74,0.35,14.84,4.39c0.33,0.33,1,0.62,1.44,0.55c7.29-1.13,14.58-2.28,21.86-3.49
	c6.5-1.08,13-2.14,19.46-3.39c6.84-1.31,13.68-2.66,20.44-4.3c8.03-1.96,15.97-4.26,23.95-6.38c3.02-0.8,6.04-1.59,9.09-2.28
	c2.59-0.59,5.07-0.02,7.45,0.98c1.94,0.82,3.1,2.86,2.8,4.85c-0.03,0.18-0.04,0.38-0.13,0.54c-1.87,3.3-0.73,6.52,0.24,9.77
	c0.42,1.41,0.74,2.87,0.96,4.32c0.47,3.11-1.14,5.43-4.12,6.81c-5.29,2.45-10.98,3.6-16.67,4.76c-13.36,2.72-26.67,5.72-40.12,7.97
	c-15.76,2.63-31.74,3.42-47.76,3.34C313.9,366.86,313.15,366.92,311.95,366.98z"/>
<path d="M258.05,365.73c-17.88,1.84-34.9,0.04-51.91-2.3c-14.8-2.04-29.23-5.6-43.71-8.95c-4.28-0.99-8.53-2.37-12.52-4.11
	c-3.6-1.58-4.7-4.95-3.55-8.18c0.8-2.25,1.62-4.5,2.2-6.8c0.25-0.99,0.16-2.18-0.2-3.15c-2-5.41,0.51-8.99,6.64-8.77
	c3.09,0.11,6.29,0.66,9.19,1.65c12.72,4.33,25.91,6.97,39.05,9.73c10.4,2.18,20.86,4.37,31.43,5.51c11.23,1.22,22.6,1.22,33.92,1.69
	c0.59,0.02,1.29-0.44,1.79-0.84c2.35-1.84,4.52-3.89,6.98-5.58c4.61-3.17,10.9-3.08,15.61-0.02c0.16,0.1,0.33,0.2,0.48,0.32
	c2.24,1.68,4.41,2.76,7.67,2.35c4.75-0.6,8.99,1.14,12.27,4.61c0.29,0.3,0.87,0.6,1.25,0.54c9.81-1.52,19.65-2.91,29.41-4.68
	c9.63-1.75,19.24-3.67,28.76-5.9c10.58-2.49,21.06-5.39,31.56-8.16c4.13-1.09,8.21-2.15,12.42-0.23c2.11,0.96,3.84,2.91,2.95,4.8
	c-2.15,4.54-0.11,8.62,0.86,12.85c1.1,4.79,0.07,7.12-4.66,8.96c-3.61,1.4-7.36,2.57-11.15,3.46c-9.2,2.18-18.42,4.28-27.69,6.16
	c-21.53,4.37-43.34,6.24-65.35,6.24c-0.62,0-1.24,0-2.06,0c2.5,3.24,4.88,6.21,7.14,9.27c2.34,3.16,4.67,6.33,6.79,9.62
	c2.44,3.78,4.51,7.77,6.99,11.53c5.85,8.85,10.19,18.38,14.22,28.01c3.43,8.2,6.39,16.57,9.63,24.84c1.43,3.66,0.08,6.86-1.98,9.74
	c-5.86,8.19-11.96,16.21-19.17,23.43c-2.09,2.09-4.07,4.28-6.1,6.42c-2.17,2.28-4.36,1.96-5.08-1.05c-1.17-4.9-2.03-9.88-2.82-14.86
	c-0.67-4.25-0.94-8.56-1.6-12.81c-3.27-21.2-6.72-42.37-14.03-62.76c-2.53-7.07-5.45-14.02-8.21-21.02
	c-0.06-0.16-0.23-0.29-0.45-0.55c-3.61,1.53-7.44,1.87-11.25,0.89c-1.88-0.48-3.71-1.38-5.33-2.41c-1.48-0.94-2.8-1.03-3.6,0.45
	c-1.06,1.94-2.13,3.91-2.83,5.97c-3.8,11.16-7.46,22.36-11.22,33.52c-4.22,12.51-6.01,25.46-7.89,38.39
	c-1.54,10.52-2.91,21.07-4.39,31.6c-0.17,1.21-0.57,2.4-0.9,3.58c-0.35,1.25-1.02,2.55-2.48,2.47c-1.14-0.07-2.48-0.72-3.27-1.52
	c-2.85-2.88-5.31-6.1-8.26-8.88c-5.03-4.73-8.83-10.28-12.8-15.74c-1.97-2.7-4.64-4.91-5.83-8.18c-0.8-2.22-1.02-4.33-0.21-6.47
	c4.99-13.23,9.49-26.66,16.21-39.24c4.53-8.48,9.39-16.83,14.55-25c3.66-5.78,8.13-11.1,12.06-16.74
	C258.22,368.57,257.91,367.14,258.05,365.73z M324.45,487.78c0.23,0.04,0.45,0.09,0.68,0.13c0.39-0.47,0.77-0.95,1.18-1.41
	c1.54-1.75,3.05-3.53,4.63-5.25c2.48-2.67,5.2-5.16,7.47-7.98c3.49-4.34,6.67-8.9,9.99-13.36c2.42-3.26,3.39-6.52,1.46-10.5
	c-1.99-4.09-3.27-8.49-4.9-12.73c-4.12-10.72-8.61-21.27-14.21-31.43c-6.15-11.17-12.44-22.24-19.6-32.87
	c-1.1-1.64-2.35-3.18-3.4-4.59c-3.02,2.39-5.86,4.61-8.64,6.89c-0.29,0.23-0.45,0.87-0.33,1.22c0.7,2.1,1.44,4.2,2.28,6.26
	c2.13,5.24,4.77,10.34,6.41,15.7c3.79,12.42,7.95,24.83,10.39,37.51c2.73,14.17,3.73,28.63,5.47,42.96
	C323.72,481.48,324.08,484.63,324.45,487.78z M259.21,370.52c-1.47,2.27-2.98,4.48-4.37,6.75c-3.16,5.14-6.49,10.2-9.33,15.5
	c-5.45,10.18-11.04,20.33-15.77,30.81c-4.15,9.19-7.22,18.81-10.75,28.25c-0.9,2.4-0.23,4.63,1.16,6.66
	c1.41,2.06,3.06,3.98,4.42,6.07c3.55,5.45,7.71,10.45,12.22,15.22c2.55,2.69,4.99,5.47,7.62,8.38c0.2-0.66,0.42-1.16,0.51-1.67
	c0.53-3.2,1.13-6.39,1.51-9.61c0.52-4.44,0.7-8.92,1.3-13.35c1.42-10.47,2.69-20.97,4.59-31.37c2.13-11.66,5.18-23.13,9.9-34.16
	c1.91-4.48,3.47-9.09,5.16-13.65c1.16-3.1,2.28-6.22,3.44-9.41c-0.61-0.07-1.06-0.12-1.51-0.17c-3.18-0.35-3.2-0.23-4.27,2.68
	c-1.13,3.11-2.46,6.17-3.78,9.22c-1.34,3.1-2.99,6.09-4.13,9.24c-3.97,10.96-7.8,21.96-11.65,32.95c-1.1,3.15-2.07,6.33-3.14,9.49
	c-0.18,0.54-0.53,1.03-0.8,1.55c-0.41-0.58-0.48-1.01-0.4-1.42c1.48-7.88,2.7-15.76,5.47-23.44c3.59-9.95,7.18-19.86,11.76-29.45
	c0.51-1.06,0.9-2.19,1.5-3.2c1.67-2.79,3.42-5.54,5.08-8.22C262.86,372.84,261.09,371.72,259.21,370.52z M266.27,346.11
	c-0.7-0.05-1.07-0.08-1.45-0.09c-6.8-0.29-13.62-0.34-20.4-0.91c-15.13-1.28-30.11-3.57-44.89-6.91
	c-12.77-2.89-25.66-5.39-37.9-10.06c-2.09-0.8-4.4-1.2-6.64-1.54c-3.79-0.56-5.24,1.17-4.14,4.54c0.73,2.22,1.39,4.47,1.81,6.76
	c0.37,2.03-0.23,2.43-2.44,2.08c-0.1,0.48-0.21,0.96-0.3,1.44c-0.92,5.15-0.49,6.05,4.77,7.79c3.19,1.05,6.53,1.74,9.85,2.42
	c13.35,2.74,26.63,5.84,40.09,7.98c10.74,1.71,21.68,2.54,32.57,3.17c6.43,0.37,12.94-0.37,19.41-0.69
	c0.47-0.02,1.07-0.69,1.32-1.18c0.92-1.86,1.57-3.86,2.61-5.66C262.28,352.22,264.24,349.32,266.27,346.11z M310.28,363.73
	c0.68,0.06,1.06,0.12,1.43,0.12c16.38-0.38,32.74-1.26,48.89-3.88c11.4-1.85,22.69-4.31,34-6.64c6-1.24,12.08-2.37,17.84-4.29
	c6.32-2.1,6.26-2.74,4.55-9.11c-2.6,0.49-3.25,0-2.61-2.53c0.66-2.6,1.77-5.09,2.53-7.67c0.17-0.59-0.07-1.75-0.5-1.96
	c-1.27-0.62-2.75-1.28-4.12-1.23c-1.85,0.06-3.71,0.66-5.5,1.22c-4.28,1.33-8.44,3.06-12.8,4.11c-12.41,2.99-24.84,5.96-37.37,8.47
	c-8.49,1.7-17.15,2.72-25.77,3.84c-5.23,0.68-10.52,0.96-15.88,1.42C316.36,352.09,313.85,357.89,310.28,363.73z M276.18,372.4
	c-1.1-1.39-2.06-2.45-2.81-3.63c-0.27-0.42-0.03-1.12-0.02-1.69c0.67,0.07,1.37,0.06,2.01,0.24c0.32,0.09,0.53,0.52,0.78,0.8
	c1.6,1.78,3.18,3.59,4.82,5.35c1.66,1.79,3.66,2.26,6.19,1.69c3.36-0.75,6.19-2.33,8.75-4.37c2.49-1.99,4.89-4.08,7.22-6.22
	c4.85-4.46,8.22-9.55,7.46-16.29c-0.57-5.06-3.35-8.07-7.93-8c-2.05,0.03-4.13,0.93-6.09,1.7c-1.27,0.5-2.33,1.47-3.71,2.38
	c-0.4-2.24,1.59-2.99,2.43-4.39c-2.06-1.79-4.45-2.86-7.07-3.75c-3.47-1.19-6.38-0.4-8.97,1.62c-7.22,5.66-12.9,12.5-17.01,20.46
	c-1.53,2.96-1.61,6.06-0.39,9.14c0.99,2.51,2.87,4.07,5.8,4.32C270.32,371.97,272.99,372.16,276.18,372.4z"/>
<g>
	<g>
		<g>
			<path class="st1" d="M217.92,446.24c9.88,3.76,19.76,7.53,29.65,11.29c1.26,0.48,2.74-0.53,3.08-1.75
				c0.39-1.41-0.48-2.59-1.75-3.08c-9.88-3.76-19.76-7.53-29.65-11.29c-1.26-0.48-2.74,0.53-3.08,1.75
				C215.78,444.57,216.65,445.76,217.92,446.24L217.92,446.24z"/>
		</g>
	</g>
	<g>
		<g>
			<path class="st1" d="M320.75,457.28c8.3-5.57,16.41-11.41,24.34-17.5c1.07-0.82,1.64-2.15,0.9-3.42
				c-0.62-1.05-2.34-1.72-3.42-0.9c-7.92,6.09-16.04,11.93-24.34,17.5c-1.12,0.75-1.61,2.2-0.9,3.42
				C317.98,457.5,319.62,458.04,320.75,457.28L320.75,457.28z"/>
		</g>
	</g>
	<path d="M257.41,366.4c-17.78,1.82-34.7,0.04-51.61-2.27c-14.71-2.02-29.06-5.54-43.46-8.86c-4.26-0.98-8.48-2.34-12.45-4.07
		c-3.57-1.56-4.67-4.9-3.53-8.09c0.79-2.22,1.61-4.45,2.19-6.72c0.25-0.98,0.15-2.16-0.2-3.11c-1.99-5.35,0.51-8.89,6.6-8.68
		c3.07,0.11,6.25,0.65,9.13,1.63c12.65,4.29,25.76,6.89,38.83,9.62c10.34,2.16,20.74,4.32,31.25,5.45
		c11.16,1.2,22.47,1.21,33.72,1.67c0.58,0.02,1.28-0.44,1.78-0.83c2.33-1.82,4.5-3.85,6.94-5.52c4.59-3.14,10.83-3.05,15.52-0.02
		c0.16,0.1,0.33,0.2,0.48,0.31c2.23,1.66,4.39,2.73,7.63,2.32c4.72-0.6,8.94,1.13,12.2,4.56c0.28,0.3,0.86,0.59,1.24,0.53
		c9.75-1.5,19.53-2.88,29.24-4.63c9.58-1.73,19.13-3.63,28.59-5.84c10.52-2.46,20.94-5.33,31.38-8.07
		c4.11-1.08,8.16-2.12,12.35-0.22c2.1,0.95,3.82,2.88,2.94,4.74c-2.13,4.49-0.11,8.53,0.85,12.71c1.1,4.74,0.07,7.05-4.63,8.86
		c-3.59,1.39-7.32,2.54-11.09,3.43c-9.14,2.16-18.32,4.23-27.53,6.09c-21.4,4.33-43.09,6.17-64.98,6.17c-0.62,0-1.24,0-2.05,0
		c2.49,3.2,4.86,6.15,7.1,9.17c2.32,3.13,4.64,6.27,6.75,9.52c2.43,3.74,4.48,7.69,6.95,11.41c5.81,8.76,10.13,18.18,14.14,27.71
		c3.42,8.11,6.35,16.39,9.57,24.57c1.43,3.62,0.08,6.79-1.97,9.64c-5.82,8.1-11.9,16.03-19.06,23.18c-2.08,2.07-4.05,4.24-6.07,6.35
		c-2.15,2.26-4.34,1.93-5.05-1.04c-1.17-4.85-2.02-9.77-2.8-14.7c-0.67-4.21-0.94-8.47-1.59-12.68
		c-3.25-20.97-6.68-41.91-13.95-62.09c-2.52-6.99-5.42-13.87-8.16-20.79c-0.06-0.16-0.23-0.28-0.44-0.55
		c-3.59,1.52-7.4,1.85-11.19,0.88c-1.87-0.48-3.69-1.37-5.3-2.38c-1.47-0.93-2.78-1.02-3.58,0.44c-1.05,1.92-2.12,3.86-2.82,5.9
		c-3.78,11.04-7.41,22.11-11.16,33.16c-4.19,12.38-5.97,25.19-7.85,37.98c-1.53,10.41-2.89,20.84-4.36,31.26
		c-0.17,1.2-0.56,2.37-0.89,3.54c-0.35,1.23-1.01,2.53-2.46,2.44c-1.13-0.06-2.47-0.72-3.26-1.51c-2.83-2.85-5.28-6.04-8.22-8.78
		c-5-4.68-8.78-10.17-12.72-15.57c-1.96-2.68-4.62-4.86-5.79-8.09c-0.8-2.2-1.01-4.28-0.21-6.4c4.96-13.09,9.44-26.37,16.12-38.81
		c4.51-8.39,9.34-16.65,14.47-24.73c3.64-5.72,8.08-10.98,11.99-16.56C257.58,369.2,257.27,367.79,257.41,366.4z M323.43,487.13
		c0.22,0.04,0.45,0.09,0.67,0.13c0.39-0.46,0.77-0.94,1.17-1.39c1.53-1.73,3.03-3.49,4.61-5.19c2.46-2.64,5.17-5.11,7.43-7.9
		c3.47-4.29,6.63-8.8,9.93-13.21c2.41-3.23,3.37-6.45,1.45-10.38c-1.97-4.05-3.25-8.39-4.87-12.6c-4.09-10.61-8.56-21.04-14.13-31.1
		c-6.12-11.05-12.37-22-19.48-32.52c-1.1-1.62-2.34-3.15-3.38-4.54c-3,2.36-5.82,4.56-8.59,6.81c-0.28,0.23-0.45,0.86-0.33,1.2
		c0.7,2.08,1.43,4.16,2.27,6.19c2.12,5.18,4.74,10.22,6.37,15.53c3.77,12.29,7.91,24.56,10.33,37.11
		c2.71,14.01,3.71,28.32,5.44,42.5C322.7,480.9,323.06,484.01,323.43,487.13z M258.56,371.13c-1.46,2.24-2.96,4.43-4.35,6.68
		c-3.14,5.09-6.46,10.09-9.28,15.33c-5.42,10.07-10.97,20.11-15.68,30.48c-4.13,9.09-7.17,18.61-10.68,27.95
		c-0.89,2.38-0.23,4.58,1.15,6.59c1.4,2.04,3.04,3.94,4.39,6.01c3.53,5.39,7.67,10.34,12.15,15.06c2.53,2.66,4.96,5.41,7.58,8.29
		c0.2-0.65,0.42-1.15,0.5-1.65c0.52-3.17,1.13-6.32,1.5-9.51c0.52-4.4,0.7-8.83,1.29-13.21c1.41-10.36,2.67-20.75,4.56-31.03
		c2.12-11.53,5.15-22.88,9.84-33.8c1.9-4.43,3.45-9,5.13-13.51c1.15-3.07,2.26-6.15,3.42-9.31c-0.6-0.07-1.05-0.12-1.5-0.17
		c-3.16-0.35-3.19-0.23-4.24,2.66c-1.13,3.08-2.45,6.1-3.76,9.12c-1.33,3.06-2.97,6.02-4.11,9.14c-3.95,10.84-7.75,21.72-11.58,32.6
		c-1.1,3.11-2.06,6.27-3.12,9.39c-0.18,0.54-0.53,1.02-0.8,1.53c-0.41-0.58-0.47-1-0.4-1.4c1.47-7.8,2.68-15.59,5.44-23.19
		c3.57-9.84,7.14-19.65,11.7-29.13c0.51-1.05,0.89-2.16,1.49-3.16c1.66-2.76,3.4-5.48,5.06-8.13
		C262.19,373.43,260.43,372.32,258.56,371.13z M265.59,346.98c-0.69-0.04-1.07-0.08-1.44-0.09c-6.76-0.29-13.55-0.34-20.28-0.9
		c-15.05-1.26-29.93-3.53-44.63-6.84c-12.7-2.86-25.51-5.33-37.68-9.95c-2.08-0.79-4.37-1.19-6.61-1.52
		c-3.77-0.55-5.21,1.16-4.11,4.49c0.72,2.2,1.38,4.43,1.8,6.69c0.37,2.01-0.23,2.41-2.42,2.06c-0.1,0.47-0.21,0.95-0.29,1.43
		c-0.91,5.1-0.49,5.99,4.75,7.7c3.17,1.04,6.5,1.73,9.79,2.4c13.27,2.71,26.48,5.77,39.86,7.89c10.68,1.69,21.56,2.51,32.39,3.14
		c6.4,0.37,12.87-0.36,19.3-0.69c0.47-0.02,1.07-0.68,1.31-1.17c0.92-1.84,1.56-3.82,2.59-5.6
		C261.62,353.03,263.57,350.17,265.59,346.98z M309.35,364.42c0.68,0.06,1.05,0.12,1.42,0.12c16.29-0.37,32.55-1.25,48.61-3.84
		c11.33-1.83,22.56-4.26,33.8-6.57c5.96-1.22,12.01-2.35,17.74-4.24c6.28-2.08,6.22-2.71,4.52-9.01c-2.59,0.48-3.23,0-2.59-2.51
		c0.65-2.57,1.76-5.03,2.52-7.59c0.17-0.59-0.06-1.73-0.49-1.94c-1.26-0.62-2.73-1.26-4.1-1.22c-1.84,0.06-3.69,0.65-5.47,1.2
		c-4.26,1.31-8.4,3.02-12.72,4.06c-12.34,2.96-24.7,5.9-37.15,8.38c-8.45,1.68-17.06,2.69-25.62,3.79
		c-5.2,0.67-10.46,0.94-15.79,1.41C315.38,352.9,312.89,358.64,309.35,364.42z M275.44,372.99c-1.09-1.37-2.04-2.43-2.79-3.59
		c-0.26-0.41-0.03-1.11-0.02-1.67c0.67,0.07,1.36,0.06,2,0.23c0.32,0.09,0.53,0.51,0.78,0.79c1.59,1.76,3.16,3.55,4.79,5.29
		c1.65,1.77,3.64,2.23,6.15,1.68c3.34-0.74,6.16-2.3,8.7-4.32c2.47-1.97,4.86-4.03,7.18-6.16c4.82-4.41,8.18-9.45,7.42-16.11
		c-0.57-5.01-3.33-7.99-7.88-7.91c-2.03,0.03-4.11,0.92-6.05,1.68c-1.26,0.49-2.32,1.46-3.68,2.35c-0.39-2.22,1.58-2.96,2.42-4.35
		c-2.04-1.77-4.42-2.83-7.03-3.71c-3.45-1.17-6.35-0.4-8.92,1.6c-7.18,5.6-12.83,12.37-16.91,20.24c-1.52,2.93-1.6,5.99-0.39,9.04
		c0.99,2.48,2.85,4.03,5.76,4.28C269.61,372.57,272.27,372.75,275.44,372.99z"/>
</g>
<g>
	<path class="st1" d="M309.45,367.48c0.91,1.08,1.54,1.82,2.17,2.56c7.2,8.42,12.78,17.79,18.52,27.11
		c5.69,9.24,10.43,18.86,14.54,28.76c3.37,8.11,6.33,16.38,9.47,24.57c0.99,2.58,0.82,5.21-0.68,7.45
		c-2.62,3.91-5.58,7.62-8.41,11.4c-1.61,2.15-3.12,4.39-4.94,6.39c-3.07,3.38-6.36,6.58-9.52,9.9c-1.12,1.18-1.99,2.59-3.2,3.67
		c-0.92,0.82-2.31,1.9-3.28,1.74c-0.94-0.16-2.04-1.66-2.31-2.73c-0.94-3.74-1.69-7.54-2.26-11.35c-0.79-5.27-1.13-10.6-2.04-15.85
		c-2.63-15.23-4.41-30.62-8.8-45.55c-1.56-5.3-3.03-10.63-4.89-15.84c-2.62-7.34-5.55-14.58-8.36-21.85
		c-0.06-0.16-0.21-0.3-0.4-0.57c-0.57,0.16-1.17,0.34-1.77,0.49c-5.44,1.38-10.66,1.53-15.2-2.34c-0.99-0.85-2.65-0.56-3.17,0.63
		c-1.89,4.39-3.84,8.78-5.45,13.27c-2.71,7.58-5.22,15.22-7.74,22.86c-3.92,11.87-6.19,24.06-7.95,36.34
		c-1.74,12.12-3.35,24.26-5.08,36.39c-0.22,1.56-0.8,3.08-1.31,4.59c-0.64,1.91-2.68,2.47-4.33,1.22c-0.5-0.38-0.92-0.86-1.34-1.33
		c-2.65-2.93-5.01-6.14-7.98-8.75c-5.82-5.13-9.59-11.68-14.33-17.54c-1.55-1.91-2.96-3.96-4.12-6.09c-1.11-2.03-1.02-4.29-0.2-6.44
		c4.99-13.17,9.45-26.54,16.14-39.07c4.48-8.4,9.29-16.66,14.39-24.74c3.67-5.81,8.15-11.16,12.1-16.83c0.6-0.86,0.28-2.3,0.38-3.34
		c-6.57,0.14-12.71,0.7-18.77,0.3c-11.3-0.73-22.67-1.41-33.8-3.21c-14.35-2.31-28.53-5.62-42.74-8.69
		c-4.02-0.87-8.03-2.12-11.76-3.76c-4-1.75-5.21-5-4-8.49c0.76-2.19,1.58-4.37,2.15-6.6c0.25-0.99,0.23-2.18-0.12-3.14
		c-2.03-5.67,0.78-9.36,7.2-8.93c2.95,0.2,5.88,1.01,8.76,1.75c8.84,2.28,17.61,4.78,26.48,6.96c8.18,2.01,16.4,3.89,24.68,5.49
		c17.23,3.32,34.67,4.7,52.26,4.38c0.62-0.01,1.35-0.31,1.84-0.7c1.93-1.53,3.84-3.08,5.64-4.73c4.29-3.92,13.35-4.53,17.93-0.35
		c0.88,0.8,1.96,1.42,3.02,2.01c0.42,0.23,1.07,0.28,1.57,0.19c5.75-0.99,10.69,0.35,14.76,4.37c0.33,0.33,0.99,0.61,1.43,0.54
		c7.26-1.12,14.51-2.27,21.75-3.48c6.46-1.08,12.93-2.14,19.36-3.37c6.81-1.31,13.61-2.65,20.34-4.29
		c7.99-1.95,15.89-4.24,23.83-6.36c3-0.8,6.01-1.59,9.04-2.27c2.58-0.58,5.05-0.02,7.41,0.97c1.93,0.81,3.09,2.85,2.78,4.83
		c-0.03,0.18-0.04,0.38-0.13,0.53c-1.86,3.29-0.73,6.49,0.24,9.73c0.42,1.41,0.74,2.85,0.96,4.3c0.47,3.1-1.13,5.41-4.1,6.78
		c-5.27,2.44-10.92,3.59-16.58,4.74c-13.29,2.71-26.54,5.7-39.92,7.93c-15.68,2.62-31.58,3.41-47.52,3.32
		C311.39,367.36,310.64,367.43,309.45,367.48z"/>
	<path d="M258.18,366.24c-17.79,1.83-34.72,0.04-51.65-2.29c-14.72-2.03-29.08-5.58-43.49-8.92c-4.26-0.99-8.49-2.36-12.46-4.1
		c-3.58-1.57-4.67-4.93-3.54-8.14c0.79-2.24,1.61-4.48,2.19-6.77c0.25-0.98,0.15-2.17-0.2-3.13c-1.99-5.39,0.51-8.95,6.6-8.74
		c3.07,0.11,6.25,0.66,9.14,1.64c12.66,4.31,25.78,6.94,38.86,9.69c10.35,2.17,20.76,4.35,31.27,5.49
		c11.17,1.21,22.49,1.22,33.75,1.69c0.59,0.02,1.28-0.44,1.78-0.84c2.33-1.83,4.5-3.87,6.95-5.56c4.59-3.16,10.84-3.07,15.54-0.02
		c0.16,0.1,0.33,0.2,0.48,0.31c2.23,1.68,4.39,2.75,7.64,2.34c4.72-0.6,8.94,1.14,12.21,4.59c0.28,0.3,0.86,0.6,1.24,0.54
		c9.76-1.51,19.55-2.9,29.26-4.66c9.58-1.74,19.15-3.65,28.62-5.88c10.53-2.48,20.95-5.37,31.41-8.12
		c4.11-1.08,8.17-2.14,12.36-0.23c2.1,0.96,3.83,2.9,2.94,4.78c-2.13,4.52-0.11,8.59,0.85,12.8c1.1,4.77,0.07,7.09-4.63,8.92
		c-3.59,1.4-7.33,2.56-11.1,3.45c-9.15,2.17-18.33,4.26-27.55,6.14c-21.42,4.36-43.13,6.21-65.03,6.22c-0.62,0-1.24,0-2.05,0
		c2.49,3.22,4.86,6.19,7.11,9.24c2.32,3.15,4.65,6.31,6.76,9.58c2.43,3.76,4.49,7.74,6.95,11.48c5.82,8.82,10.14,18.3,14.15,27.9
		c3.42,8.16,6.36,16.5,9.58,24.74c1.43,3.65,0.08,6.84-1.97,9.7c-5.83,8.15-11.91,16.14-19.08,23.33c-2.08,2.08-4.05,4.26-6.07,6.4
		c-2.16,2.27-4.34,1.95-5.06-1.05c-1.17-4.88-2.02-9.84-2.8-14.8c-0.67-4.23-0.94-8.52-1.59-12.76
		c-3.25-21.11-6.69-42.2-13.96-62.51c-2.52-7.04-5.43-13.96-8.17-20.93c-0.06-0.16-0.23-0.29-0.44-0.55
		c-3.6,1.53-7.4,1.86-11.2,0.89c-1.87-0.48-3.69-1.38-5.3-2.4c-1.47-0.93-2.78-1.03-3.59,0.45c-1.05,1.93-2.12,3.89-2.82,5.95
		c-3.78,11.11-7.42,22.26-11.17,33.39c-4.2,12.46-5.98,25.36-7.85,38.24c-1.53,10.48-2.89,20.99-4.37,31.48
		c-0.17,1.21-0.56,2.39-0.9,3.57c-0.35,1.24-1.01,2.54-2.46,2.46c-1.13-0.06-2.47-0.72-3.26-1.52c-2.83-2.87-5.29-6.08-8.22-8.84
		c-5-4.71-8.78-10.24-12.73-15.68c-1.96-2.69-4.62-4.89-5.8-8.15c-0.8-2.21-1.01-4.31-0.21-6.45c4.97-13.18,9.45-26.55,16.13-39.08
		c4.51-8.45,9.35-16.77,14.48-24.89c3.64-5.76,8.09-11.06,12-16.67C258.34,369.07,258.04,367.64,258.18,366.24z M324.25,487.79
		c0.22,0.04,0.45,0.09,0.67,0.13c0.39-0.47,0.77-0.94,1.17-1.4c1.53-1.75,3.03-3.52,4.61-5.22c2.46-2.66,5.18-5.14,7.43-7.95
		c3.47-4.32,6.64-8.86,9.94-13.3c2.41-3.25,3.37-6.49,1.45-10.45c-1.98-4.08-3.25-8.45-4.87-12.68
		c-4.1-10.68-8.57-21.18-14.14-31.31c-6.12-11.12-12.38-22.15-19.5-32.74c-1.1-1.63-2.34-3.17-3.39-4.57c-3,2.38-5.83,4.59-8.6,6.86
		c-0.28,0.23-0.45,0.86-0.33,1.21c0.7,2.1,1.43,4.18,2.27,6.23c2.12,5.22,4.75,10.29,6.38,15.64c3.77,12.37,7.91,24.73,10.34,37.36
		c2.72,14.11,3.71,28.51,5.45,42.79C323.52,481.52,323.88,484.66,324.25,487.79z M259.33,371.01c-1.46,2.26-2.96,4.46-4.35,6.72
		c-3.14,5.12-6.46,10.16-9.29,15.43c-5.43,10.14-10.98,20.25-15.69,30.69c-4.13,9.15-7.18,18.74-10.69,28.14
		c-0.89,2.39-0.23,4.61,1.16,6.64c1.4,2.05,3.04,3.97,4.39,6.05c3.53,5.43,7.67,10.41,12.16,15.16c2.54,2.68,4.96,5.45,7.59,8.34
		c0.2-0.66,0.42-1.15,0.5-1.67c0.53-3.19,1.13-6.37,1.5-9.57c0.52-4.43,0.7-8.89,1.3-13.3c1.41-10.43,2.67-20.89,4.57-31.24
		c2.12-11.61,5.16-23.04,9.85-34.03c1.91-4.46,3.45-9.06,5.14-13.6c1.15-3.09,2.26-6.19,3.42-9.37c-0.6-0.07-1.05-0.12-1.5-0.17
		c-3.16-0.35-3.19-0.23-4.25,2.67c-1.13,3.1-2.45,6.14-3.76,9.18c-1.33,3.08-2.97,6.06-4.11,9.2c-3.95,10.91-7.76,21.87-11.59,32.82
		c-1.1,3.13-2.06,6.31-3.12,9.45c-0.18,0.54-0.53,1.03-0.8,1.54c-0.41-0.58-0.47-1.01-0.4-1.41c1.47-7.85,2.68-15.69,5.44-23.35
		c3.57-9.9,7.15-19.78,11.71-29.33c0.51-1.06,0.89-2.18,1.49-3.18c1.66-2.78,3.4-5.51,5.06-8.19
		C262.96,373.32,261.2,372.2,259.33,371.01z M266.36,346.7c-0.69-0.05-1.07-0.08-1.44-0.09c-6.77-0.29-13.56-0.34-20.3-0.91
		c-15.06-1.27-29.96-3.55-44.67-6.89c-12.71-2.88-25.53-5.36-37.71-10.02c-2.08-0.8-4.37-1.2-6.61-1.53
		c-3.77-0.56-5.22,1.17-4.12,4.52c0.72,2.21,1.39,4.46,1.8,6.73c0.37,2.02-0.23,2.42-2.42,2.07c-0.1,0.48-0.21,0.96-0.29,1.44
		c-0.91,5.13-0.49,6.03,4.75,7.75c3.18,1.05,6.5,1.74,9.8,2.42c13.28,2.73,26.5,5.81,39.89,7.95c10.69,1.7,21.57,2.53,32.41,3.16
		c6.4,0.37,12.88-0.37,19.32-0.69c0.47-0.02,1.07-0.68,1.31-1.18c0.92-1.86,1.56-3.85,2.59-5.64
		C262.39,352.79,264.34,349.9,266.36,346.7z M310.15,364.25c0.68,0.06,1.05,0.12,1.42,0.12c16.3-0.37,32.58-1.26,48.65-3.87
		c11.34-1.84,22.58-4.29,33.83-6.61c5.97-1.23,12.02-2.36,17.76-4.27c6.29-2.09,6.23-2.73,4.52-9.08c-2.59,0.49-3.23,0-2.59-2.52
		c0.65-2.59,1.76-5.07,2.52-7.64c0.17-0.59-0.07-1.74-0.49-1.95c-1.27-0.62-2.74-1.27-4.1-1.22c-1.84,0.06-3.69,0.66-5.48,1.21
		c-4.26,1.32-8.4,3.04-12.73,4.09c-12.35,2.98-24.72,5.94-37.18,8.44c-8.45,1.7-17.07,2.71-25.64,3.82
		c-5.21,0.67-10.47,0.95-15.8,1.41C316.19,352.65,313.7,358.43,310.15,364.25z M276.22,372.88c-1.09-1.38-2.05-2.44-2.79-3.62
		c-0.27-0.42-0.03-1.11-0.02-1.68c0.67,0.07,1.36,0.06,2,0.24c0.32,0.09,0.53,0.52,0.78,0.8c1.6,1.78,3.17,3.57,4.79,5.33
		c1.65,1.78,3.65,2.25,6.16,1.69c3.35-0.75,6.16-2.32,8.7-4.35c2.48-1.98,4.87-4.06,7.19-6.2c4.82-4.44,8.18-9.52,7.42-16.22
		c-0.57-5.04-3.33-8.04-7.89-7.96c-2.04,0.03-4.11,0.93-6.06,1.69c-1.27,0.5-2.32,1.47-3.69,2.37c-0.39-2.23,1.59-2.98,2.42-4.38
		c-2.05-1.79-4.43-2.85-7.04-3.74c-3.45-1.18-6.35-0.4-8.92,1.61c-7.19,5.64-12.84,12.45-16.92,20.38c-1.52,2.95-1.6,6.03-0.39,9.1
		c0.99,2.5,2.86,4.06,5.77,4.31C270.39,372.46,273.04,372.64,276.22,372.88z"/>
</g>
</svg>
