<?xml version="1.0" encoding="utf-8"?>
<!-- Generator: Adobe Illustrator 27.0.0, SVG Export Plug-In . SVG Version: 6.00 Build 0)  -->
<svg version="1.1" id="Capa_1" xmlns="http://www.w3.org/2000/svg" xmlns:xlink="http://www.w3.org/1999/xlink" x="0px" y="0px"
	 viewBox="0 0 612 792" style="enable-background:new 0 0 612 792;" xml:space="preserve">
<style type="text/css">
	.st0{fill:#FFFFFF;}
</style>
<path class="st0" d="M311.95,366.98c0.91,1.08,1.54,1.83,2.18,2.57c7.23,8.45,12.85,17.86,18.61,27.22
	c5.72,9.27,10.48,18.93,14.61,28.87c3.39,8.15,6.36,16.44,9.52,24.67c1,2.59,0.82,5.23-0.68,7.48c-2.63,3.92-5.6,7.65-8.45,11.44
	c-1.62,2.16-3.14,4.41-4.96,6.41c-3.08,3.39-6.39,6.61-9.56,9.94c-1.13,1.18-2,2.6-3.21,3.69c-0.92,0.83-2.32,1.91-3.29,1.75
	c-0.94-0.16-2.05-1.66-2.32-2.74c-0.95-3.76-1.7-7.57-2.27-11.4c-0.79-5.29-1.13-10.65-2.05-15.92c-2.65-15.3-4.43-30.74-8.84-45.74
	c-1.57-5.32-3.05-10.68-4.91-15.91c-2.63-7.37-5.58-14.64-8.4-21.94c-0.06-0.17-0.21-0.3-0.4-0.57c-0.58,0.16-1.17,0.34-1.78,0.49
	c-5.47,1.38-10.71,1.54-15.27-2.35c-1-0.85-2.67-0.56-3.18,0.64c-1.9,4.41-3.86,8.82-5.48,13.32c-2.72,7.61-5.24,15.28-7.77,22.95
	c-3.94,11.91-6.22,24.16-7.99,36.49c-1.75,12.17-3.36,24.36-5.11,36.54c-0.22,1.56-0.8,3.09-1.31,4.61
	c-0.65,1.92-2.69,2.48-4.35,1.22c-0.5-0.38-0.93-0.87-1.35-1.33c-2.66-2.94-5.04-6.16-8.01-8.79c-5.85-5.16-9.63-11.72-14.4-17.61
	c-1.55-1.92-2.97-3.97-4.14-6.12c-1.11-2.04-1.02-4.3-0.2-6.47c5.02-13.22,9.5-26.65,16.22-39.23c4.51-8.43,9.33-16.73,14.47-24.84
	c3.69-5.83,8.19-11.21,12.16-16.9c0.61-0.87,0.28-2.31,0.38-3.35c-6.61,0.14-12.77,0.7-18.87,0.31
	c-11.35-0.73-22.78-1.42-33.97-3.22c-14.42-2.32-28.67-5.64-42.95-8.73c-4.04-0.87-8.07-2.13-11.82-3.77
	c-4.02-1.76-5.24-5.02-4.02-8.52c0.76-2.2,1.59-4.38,2.16-6.62c0.26-0.99,0.23-2.19-0.12-3.16c-2.04-5.69,0.78-9.4,7.24-8.96
	c2.97,0.2,5.91,1.01,8.8,1.76c8.88,2.29,17.7,4.8,26.61,6.99c8.22,2.01,16.48,3.91,24.8,5.51c17.32,3.34,34.85,4.72,52.52,4.39
	c0.63-0.01,1.36-0.31,1.85-0.7c1.94-1.53,3.86-3.09,5.67-4.75c4.31-3.93,13.41-4.55,18.02-0.35c0.88,0.8,1.97,1.43,3.03,2.02
	c0.42,0.23,1.07,0.28,1.58,0.19c5.78-0.99,10.74,0.35,14.84,4.39c0.33,0.33,1,0.62,1.44,0.55c7.29-1.13,14.58-2.28,21.86-3.49
	c6.5-1.08,13-2.14,19.46-3.39c6.84-1.31,13.68-2.66,20.44-4.3c8.03-1.96,15.97-4.26,23.95-6.38c3.02-0.8,6.04-1.59,9.09-2.28
	c2.59-0.59,5.07-0.02,7.45,0.98c1.94,0.82,3.1,2.86,2.8,4.85c-0.03,0.18-0.04,0.38-0.13,0.54c-1.87,3.3-0.73,6.52,0.24,9.77
	c0.42,1.41,0.74,2.87,0.96,4.32c0.47,3.11-1.14,5.43-4.12,6.81c-5.29,2.45-10.98,3.6-16.67,4.76c-13.36,2.72-26.67,5.72-40.12,7.97
	c-15.76,2.63-31.74,3.42-47.76,3.34C313.9,366.86,313.15,366.92,311.95,366.98z"/>
<path d="M258.05,365.73c-17.88,1.84-34.9,0.04-51.91-2.3c-14.8-2.04-29.23-5.6-43.71-8.95c-4.28-0.99-8.53-2.37-12.52-4.11
	c-3.6-1.58-4.7-4.95-3.55-8.18c0.8-2.25,1.62-4.5,2.2-6.8c0.25-0.99,0.16-2.18-0.2-3.15c-2-5.41,0.51-8.99,6.64-8.77
	c3.09,0.11,6.29,0.66,9.19,1.65c12.72,4.33,25.91,6.97,39.05,9.73c10.4,2.18,20.86,4.37,31.43,5.51c11.23,1.22,22.6,1.22,33.92,1.69
	c0.59,0.02,1.29-0.44,1.79-0.84c2.35-1.84,4.52-3.89,6.98-5.58c4.61-3.17,10.9-3.08,15.61-0.02c0.16,0.1,0.33,0.2,0.48,0.32
	c2.24,1.68,4.41,2.76,7.67,2.35c4.75-0.6,8.99,1.14,12.27,4.61c0.29,0.3,0.87,0.6,1.25,0.54c9.81-1.52,19.65-2.91,29.41-4.68
	c9.63-1.75,19.24-3.67,28.76-5.9c10.58-2.49,21.06-5.39,31.56-8.16c4.13-1.09,8.21-2.15,12.42-0.23c2.11,0.96,3.84,2.91,2.95,4.8
	c-2.15,4.54-0.11,8.62,0.86,12.85c1.1,4.79,0.07,7.12-4.66,8.96c-3.61,1.4-7.36,2.57-11.15,3.46c-9.2,2.18-18.42,4.28-27.69,6.16
	c-21.53,4.37-43.34,6.24-65.35,6.24c-0.62,0-1.24,0-2.06,0c2.5,3.24,4.88,6.21,7.14,9.27c2.34,3.16,4.67,6.33,6.79,9.62
	c2.44,3.78,4.51,7.77,6.99,11.53c5.85,8.85,10.19,18.38,14.22,28.01c3.43,8.2,6.39,16.57,9.63,24.84c1.43,3.66,0.08,6.86-1.98,9.74
	c-5.86,8.19-11.96,16.21-19.17,23.43c-2.09,2.09-4.07,4.28-6.1,6.42c-2.17,2.28-4.36,1.96-5.08-1.05c-1.17-4.9-2.03-9.88-2.82-14.86
	c-0.67-4.25-0.94-8.56-1.6-12.81c-3.27-21.2-6.72-42.37-14.03-62.76c-2.53-7.07-5.45-14.02-8.21-21.02
	c-0.06-0.16-0.23-0.29-0.45-0.55c-3.61,1.53-7.44,1.87-11.25,0.89c-1.88-0.48-3.71-1.38-5.33-2.41c-1.48-0.94-2.8-1.03-3.6,0.45
	c-1.06,1.94-2.13,3.91-2.83,5.97c-3.8,11.16-7.46,22.36-11.22,33.52c-4.22,12.51-6.01,25.46-7.89,38.39
	c-1.54,10.52-2.91,21.07-4.39,31.6c-0.17,1.21-0.57,2.4-0.9,3.58c-0.35,1.25-1.02,2.55-2.48,2.47c-1.14-0.07-2.48-0.72-3.27-1.52
	c-2.85-2.88-5.31-6.1-8.26-8.88c-5.03-4.73-8.83-10.28-12.8-15.74c-1.97-2.7-4.64-4.91-5.83-8.18c-0.8-2.22-1.02-4.33-0.21-6.47
	c4.99-13.23,9.49-26.66,16.21-39.24c4.53-8.48,9.39-16.83,14.55-25c3.66-5.78,8.13-11.1,12.06-16.74
	C258.22,368.57,257.91,367.14,258.05,365.73z M324.45,487.78c0.23,0.04,0.45,0.09,0.68,0.13c0.39-0.47,0.77-0.95,1.18-1.41
	c1.54-1.75,3.05-3.53,4.63-5.25c2.48-2.67,5.2-5.16,7.47-7.98c3.49-4.34,6.67-8.9,9.99-13.36c2.42-3.26,3.39-6.52,1.46-10.5
	c-1.99-4.09-3.27-8.49-4.9-12.73c-4.12-10.72-8.61-21.27-14.21-31.43c-6.15-11.17-12.44-22.24-19.6-32.87
	c-1.1-1.64-2.35-3.18-3.4-4.59c-3.02,2.39-5.86,4.61-8.64,6.89c-0.29,0.23-0.45,0.87-0.33,1.22c0.7,2.1,1.44,4.2,2.28,6.26
	c2.13,5.24,4.77,10.34,6.41,15.7c3.79,12.42,7.95,24.83,10.39,37.51c2.73,14.17,3.73,28.63,5.47,42.96
	C323.72,481.48,324.08,484.63,324.45,487.78z M259.21,370.52c-1.47,2.27-2.98,4.48-4.37,6.75c-3.16,5.14-6.49,10.2-9.33,15.5
	c-5.45,10.18-11.04,20.33-15.77,30.81c-4.15,9.19-7.22,18.81-10.75,28.25c-0.9,2.4-0.23,4.63,1.16,6.66
	c1.41,2.06,3.06,3.98,4.42,6.07c3.55,5.45,7.71,10.45,12.22,15.22c2.55,2.69,4.99,5.47,7.62,8.38c0.2-0.66,0.42-1.16,0.51-1.67
	c0.53-3.2,1.13-6.39,1.51-9.61c0.52-4.44,0.7-8.92,1.3-13.35c1.42-10.47,2.69-20.97,4.59-31.37c2.13-11.66,5.18-23.13,9.9-34.16
	c1.91-4.48,3.47-9.09,5.16-13.65c1.16-3.1,2.28-6.22,3.44-9.41c-0.61-0.07-1.06-0.12-1.51-0.17c-3.18-0.35-3.2-0.23-4.27,2.68
	c-1.13,3.11-2.46,6.17-3.78,9.22c-1.34,3.1-2.99,6.09-4.13,9.24c-3.97,10.96-7.8,21.96-11.65,32.95c-1.1,3.15-2.07,6.33-3.14,9.49
	c-0.18,0.54-0.53,1.03-0.8,1.55c-0.41-0.58-0.48-1.01-0.4-1.42c1.48-7.88,2.7-15.76,5.47-23.44c3.59-9.95,7.18-19.86,11.76-29.45
	c0.51-1.06,0.9-2.19,1.5-3.2c1.67-2.79,3.42-5.54,5.08-8.22C262.86,372.84,261.09,371.72,259.21,370.52z M266.27,346.11
	c-0.7-0.05-1.07-0.08-1.45-0.09c-6.8-0.29-13.62-0.34-20.4-0.91c-15.13-1.28-30.11-3.57-44.89-6.91
	c-12.77-2.89-25.66-5.39-37.9-10.06c-2.09-0.8-4.4-1.2-6.64-1.54c-3.79-0.56-5.24,1.17-4.14,4.54c0.73,2.22,1.39,4.47,1.81,6.76
	c0.37,2.03-0.23,2.43-2.44,2.08c-0.1,0.48-0.21,0.96-0.3,1.44c-0.92,5.15-0.49,6.05,4.77,7.79c3.19,1.05,6.53,1.74,9.85,2.42
	c13.35,2.74,26.63,5.84,40.09,7.98c10.74,1.71,21.68,2.54,32.57,3.17c6.43,0.37,12.94-0.37,19.41-0.69
	c0.47-0.02,1.07-0.69,1.32-1.18c0.92-1.86,1.57-3.86,2.61-5.66C262.28,352.22,264.24,349.32,266.27,346.11z M310.28,363.73
	c0.68,0.06,1.06,0.12,1.43,0.12c16.38-0.38,32.74-1.26,48.89-3.88c11.4-1.85,22.69-4.31,34-6.64c6-1.24,12.08-2.37,17.84-4.29
	c6.32-2.1,6.26-2.74,4.55-9.11c-2.6,0.49-3.25,0-2.61-2.53c0.66-2.6,1.77-5.09,2.53-7.67c0.17-0.59-0.07-1.75-0.5-1.96
	c-1.27-0.62-2.75-1.28-4.12-1.23c-1.85,0.06-3.71,0.66-5.5,1.22c-4.28,1.33-8.44,3.06-12.8,4.11c-12.41,2.99-24.84,5.96-37.37,8.47
	c-8.49,1.7-17.15,2.72-25.77,3.84c-5.23,0.68-10.52,0.96-15.88,1.42C316.36,352.09,313.85,357.89,310.28,363.73z M276.18,372.4
	c-1.1-1.39-2.06-2.45-2.81-3.63c-0.27-0.42-0.03-1.12-0.02-1.69c0.67,0.07,1.37,0.06,2.01,0.24c0.32,0.09,0.53,0.52,0.78,0.8
	c1.6,1.78,3.18,3.59,4.82,5.35c1.66,1.79,3.66,2.26,6.19,1.69c3.36-0.75,6.19-2.33,8.75-4.37c2.49-1.99,4.89-4.08,7.22-6.22
	c4.85-4.46,8.22-9.55,7.46-16.29c-0.57-5.06-3.35-8.07-7.93-8c-2.05,0.03-4.13,0.93-6.09,1.7c-1.27,0.5-2.33,1.47-3.71,2.38
	c-0.4-2.24,1.59-2.99,2.43-4.39c-2.06-1.79-4.45-2.86-7.07-3.75c-3.47-1.19-6.38-0.4-8.97,1.62c-7.22,5.66-12.9,12.5-17.01,20.46
	c-1.53,2.96-1.61,6.06-0.39,9.14c0.99,2.51,2.87,4.07,5.8,4.32C270.32,371.97,272.99,372.16,276.18,372.4z"/>
</svg>
