<?xml version="1.0" encoding="utf-8"?>
<!-- Generator: Adobe Illustrator 27.0.0, SVG Export Plug-In . SVG Version: 6.00 Build 0)  -->
<svg version="1.1" xmlns="http://www.w3.org/2000/svg" xmlns:xlink="http://www.w3.org/1999/xlink" x="0px" y="0px"
	 viewBox="0 0 612 792" style="enable-background:new 0 0 612 792;" xml:space="preserve">
<style type="text/css">
	.st0{fill:#2B3078;}
	.st1{fill:#317330;}
	.st2{fill:#020202;}
	.st3{fill:#E32A34;}
	.st4{fill:#FFFFFF;}
	.st5{fill:#F4E023;}
	.st6{fill:#E4E029;}
</style>
<g id="fondo">
</g>
<g id="colores">
</g>
<g id="Capa_1">
	<path class="st0" d="M147.67,390.25c0.46,0.61,0.77,1.04,1.09,1.46c3.6,4.8,6.4,10.13,9.27,15.44c2.85,5.26,5.22,10.74,7.28,16.38
		c1.69,4.62,3.17,9.33,4.74,14c0.5,1.47,0.41,2.97-0.34,4.24c-1.31,2.23-2.79,4.34-4.21,6.49c-0.81,1.23-1.56,2.5-2.47,3.64
		c-1.54,1.93-3.18,3.75-4.76,5.64c-0.56,0.67-0.99,1.47-1.6,2.09c-0.46,0.47-1.16,1.08-1.64,0.99c-0.47-0.09-1.02-0.94-1.16-1.56
		c-0.47-2.13-0.85-4.29-1.13-6.46c-0.39-3-0.56-6.04-1.02-9.03c-1.32-8.68-2.21-17.44-4.4-25.95c-0.78-3.02-1.52-6.06-2.45-9.02
		c-1.31-4.18-2.78-8.3-4.18-12.45c-0.03-0.09-0.1-0.17-0.2-0.32c-0.29,0.09-0.59,0.19-0.89,0.28c-2.72,0.78-5.33,0.87-7.61-1.33
		c-0.5-0.48-1.33-0.32-1.59,0.36c-0.95,2.5-1.92,5-2.73,7.56c-1.36,4.32-2.61,8.67-3.87,13.02c-1.96,6.76-3.1,13.7-3.98,20.7
		c-0.87,6.91-1.68,13.82-2.54,20.73c-0.11,0.89-0.4,1.75-0.65,2.61c-0.32,1.09-1.34,1.41-2.17,0.69c-0.25-0.22-0.46-0.49-0.67-0.76
		c-1.32-1.67-2.51-3.5-3.99-4.98c-2.91-2.92-4.8-6.65-7.17-9.99c-0.77-1.09-1.48-2.25-2.06-3.47c-0.55-1.16-0.51-2.44-0.1-3.67
		c2.5-7.5,4.73-15.12,8.08-22.25c2.24-4.78,4.65-9.49,7.2-14.09c1.84-3.31,4.08-6.36,6.06-9.59c0.3-0.49,0.14-1.31,0.19-1.9
		c-3.29,0.08-6.36,0.4-9.4,0.17c-5.65-0.41-11.34-0.8-16.92-1.83c-7.18-1.32-14.28-3.2-21.39-4.95c-2.01-0.5-4.02-1.21-5.89-2.14
		c-2-1-2.61-2.85-2-4.83c0.38-1.25,0.79-2.49,1.08-3.76c0.13-0.56,0.11-1.24-0.06-1.79c-1.02-3.23,0.39-5.33,3.61-5.08
		c1.48,0.11,2.94,0.58,4.38,1c4.42,1.3,8.82,2.72,13.25,3.96c4.09,1.14,8.21,2.22,12.35,3.13c8.62,1.89,17.35,2.68,26.16,2.49
		c0.31-0.01,0.68-0.18,0.92-0.4c0.96-0.87,1.92-1.76,2.82-2.7c2.14-2.23,6.68-2.58,8.98-0.2c0.44,0.46,0.98,0.81,1.51,1.15
		c0.21,0.13,0.53,0.16,0.79,0.11c2.88-0.56,5.35,0.2,7.39,2.49c0.17,0.19,0.5,0.35,0.72,0.31c3.63-0.64,7.26-1.29,10.88-1.98
		c3.24-0.61,6.47-1.22,9.69-1.92c3.41-0.75,6.81-1.51,10.18-2.44c4-1.11,7.95-2.42,11.93-3.62c1.5-0.46,3.01-0.9,4.53-1.3
		c1.29-0.33,2.53-0.01,3.71,0.56c0.97,0.46,1.54,1.62,1.39,2.75c-0.01,0.1-0.02,0.22-0.07,0.3c-0.93,1.87-0.36,3.7,0.12,5.54
		c0.21,0.8,0.37,1.63,0.48,2.45c0.23,1.76-0.57,3.08-2.05,3.86c-2.64,1.39-5.47,2.04-8.3,2.7c-6.65,1.54-13.28,3.25-19.98,4.52
		c-7.85,1.49-15.81,1.94-23.78,1.89C148.64,390.18,148.26,390.22,147.67,390.25z"/>
	<path class="st1" d="M325,285.63c0.46,0.61,0.77,1.04,1.09,1.46c3.6,4.8,6.4,10.13,9.27,15.44c2.85,5.26,5.22,10.74,7.28,16.38
		c1.69,4.62,3.17,9.33,4.74,14c0.5,1.47,0.41,2.97-0.34,4.24c-1.31,2.23-2.79,4.34-4.21,6.49c-0.81,1.23-1.56,2.5-2.47,3.64
		c-1.54,1.93-3.18,3.75-4.76,5.64c-0.56,0.67-0.99,1.47-1.6,2.09c-0.46,0.47-1.16,1.08-1.64,0.99c-0.47-0.09-1.02-0.94-1.16-1.56
		c-0.47-2.13-0.85-4.29-1.13-6.46c-0.39-3-0.56-6.04-1.02-9.03c-1.32-8.68-2.21-17.44-4.4-25.95c-0.78-3.02-1.52-6.06-2.45-9.02
		c-1.31-4.18-2.78-8.3-4.18-12.45c-0.03-0.09-0.1-0.17-0.2-0.32c-0.29,0.09-0.59,0.19-0.89,0.28c-2.72,0.78-5.33,0.87-7.61-1.33
		c-0.5-0.48-1.33-0.32-1.59,0.36c-0.95,2.5-1.92,5-2.73,7.56c-1.36,4.32-2.61,8.67-3.87,13.02c-1.96,6.76-3.1,13.7-3.98,20.7
		c-0.87,6.91-1.68,13.82-2.54,20.73c-0.11,0.89-0.4,1.75-0.65,2.61c-0.32,1.09-1.34,1.41-2.17,0.69c-0.25-0.22-0.46-0.49-0.67-0.76
		c-1.32-1.67-2.51-3.5-3.99-4.98c-2.91-2.92-4.8-6.65-7.17-9.99c-0.77-1.09-1.48-2.25-2.06-3.47c-0.55-1.16-0.51-2.44-0.1-3.67
		c2.5-7.5,4.73-15.12,8.08-22.25c2.24-4.78,4.65-9.49,7.2-14.09c1.84-3.31,4.08-6.36,6.06-9.59c0.3-0.49,0.14-1.31,0.19-1.9
		c-3.29,0.08-6.36,0.4-9.4,0.17c-5.65-0.41-11.34-0.8-16.92-1.83c-7.18-1.32-14.28-3.2-21.39-4.95c-2.01-0.5-4.02-1.21-5.89-2.14
		c-2-1-2.61-2.85-2-4.83c0.38-1.25,0.79-2.49,1.08-3.76c0.13-0.56,0.11-1.24-0.06-1.79c-1.02-3.23,0.39-5.33,3.61-5.08
		c1.48,0.11,2.94,0.58,4.38,1c4.42,1.3,8.82,2.72,13.25,3.96c4.09,1.14,8.21,2.22,12.35,3.13c8.62,1.89,17.35,2.68,26.16,2.49
		c0.31-0.01,0.68-0.18,0.92-0.4c0.96-0.87,1.92-1.76,2.82-2.7c2.14-2.23,6.68-2.58,8.98-0.2c0.44,0.46,0.98,0.81,1.51,1.15
		c0.21,0.13,0.53,0.16,0.79,0.11c2.88-0.56,5.35,0.2,7.39,2.49c0.17,0.19,0.5,0.35,0.72,0.31c3.63-0.64,7.26-1.29,10.88-1.98
		c3.24-0.61,6.47-1.22,9.69-1.92c3.41-0.75,6.81-1.51,10.18-2.44c4-1.11,7.95-2.42,11.93-3.62c1.5-0.46,3.01-0.9,4.53-1.3
		c1.29-0.33,2.53-0.01,3.71,0.56c0.97,0.46,1.54,1.62,1.39,2.75c-0.01,0.1-0.02,0.22-0.07,0.3c-0.93,1.87-0.36,3.7,0.12,5.54
		c0.21,0.8,0.37,1.63,0.48,2.45c0.23,1.76-0.57,3.08-2.05,3.86c-2.64,1.39-5.47,2.04-8.3,2.7c-6.65,1.54-13.28,3.25-19.98,4.52
		c-7.85,1.49-15.81,1.94-23.78,1.89C325.97,285.57,325.6,285.6,325,285.63z"/>
	<path class="st2" d="M333.79,501.86c0.46,0.61,0.77,1.04,1.09,1.46c3.6,4.8,6.4,10.13,9.27,15.44c2.85,5.26,5.22,10.74,7.28,16.38
		c1.69,4.62,3.17,9.33,4.74,14c0.5,1.47,0.41,2.97-0.34,4.24c-1.31,2.23-2.79,4.34-4.21,6.49c-0.81,1.23-1.56,2.5-2.47,3.64
		c-1.54,1.93-3.18,3.75-4.76,5.64c-0.56,0.67-0.99,1.47-1.6,2.09c-0.46,0.47-1.16,1.08-1.64,0.99c-0.47-0.09-1.02-0.94-1.16-1.56
		c-0.47-2.13-0.85-4.29-1.13-6.46c-0.39-3-0.56-6.04-1.02-9.03c-1.32-8.68-2.21-17.44-4.4-25.95c-0.78-3.02-1.52-6.06-2.45-9.02
		c-1.31-4.18-2.78-8.3-4.18-12.45c-0.03-0.09-0.1-0.17-0.2-0.32c-0.29,0.09-0.59,0.19-0.89,0.28c-2.72,0.78-5.33,0.87-7.61-1.33
		c-0.5-0.48-1.33-0.32-1.59,0.36c-0.95,2.5-1.92,5-2.73,7.56c-1.36,4.32-2.61,8.67-3.87,13.02c-1.96,6.76-3.1,13.7-3.98,20.7
		c-0.87,6.91-1.68,13.82-2.54,20.73c-0.11,0.89-0.4,1.75-0.65,2.61c-0.32,1.09-1.34,1.41-2.17,0.69c-0.25-0.22-0.46-0.49-0.67-0.76
		c-1.32-1.67-2.51-3.5-3.99-4.98c-2.91-2.92-4.8-6.65-7.17-9.99c-0.77-1.09-1.48-2.25-2.06-3.47c-0.55-1.16-0.51-2.44-0.1-3.67
		c2.5-7.5,4.73-15.12,8.08-22.25c2.24-4.78,4.65-9.49,7.2-14.09c1.84-3.31,4.08-6.36,6.06-9.59c0.3-0.49,0.14-1.31,0.19-1.9
		c-3.29,0.08-6.36,0.4-9.4,0.17c-5.65-0.41-11.34-0.8-16.92-1.83c-7.18-1.32-14.28-3.2-21.39-4.95c-2.01-0.5-4.02-1.21-5.89-2.14
		c-2-1-2.61-2.85-2-4.83c0.38-1.25,0.79-2.49,1.08-3.76c0.13-0.56,0.11-1.24-0.06-1.79c-1.02-3.23,0.39-5.33,3.61-5.08
		c1.48,0.11,2.94,0.58,4.38,1c4.42,1.3,8.82,2.72,13.25,3.96c4.09,1.14,8.21,2.22,12.35,3.13c8.62,1.89,17.35,2.68,26.16,2.49
		c0.31-0.01,0.68-0.18,0.92-0.4c0.96-0.87,1.92-1.76,2.82-2.7c2.14-2.23,6.68-2.58,8.98-0.2c0.44,0.46,0.98,0.81,1.51,1.15
		c0.21,0.13,0.53,0.16,0.79,0.11c2.88-0.56,5.35,0.2,7.39,2.49c0.17,0.19,0.5,0.35,0.72,0.31c3.63-0.64,7.26-1.29,10.88-1.98
		c3.24-0.61,6.47-1.22,9.69-1.92c3.41-0.75,6.81-1.51,10.18-2.44c4-1.11,7.95-2.42,11.93-3.62c1.5-0.46,3.01-0.9,4.53-1.3
		c1.29-0.33,2.53-0.01,3.71,0.56c0.97,0.46,1.54,1.62,1.39,2.75c-0.01,0.1-0.02,0.22-0.07,0.3c-0.93,1.87-0.36,3.7,0.12,5.54
		c0.21,0.8,0.37,1.63,0.48,2.45c0.23,1.76-0.57,3.08-2.05,3.86c-2.64,1.39-5.47,2.04-8.3,2.7c-6.65,1.54-13.28,3.25-19.98,4.52
		c-7.85,1.49-15.81,1.94-23.78,1.89C334.76,501.79,334.38,501.83,333.79,501.86z"/>
	<path class="st3" d="M486.29,384.8c0.46,0.61,0.77,1.04,1.09,1.46c3.6,4.8,6.4,10.13,9.27,15.44c2.85,5.26,5.22,10.74,7.28,16.38
		c1.69,4.62,3.17,9.33,4.74,14c0.5,1.47,0.41,2.97-0.34,4.24c-1.31,2.23-2.79,4.34-4.21,6.49c-0.81,1.23-1.56,2.5-2.47,3.64
		c-1.54,1.93-3.18,3.75-4.76,5.64c-0.56,0.67-0.99,1.47-1.6,2.09c-0.46,0.47-1.16,1.08-1.64,0.99c-0.47-0.09-1.02-0.94-1.16-1.56
		c-0.47-2.13-0.85-4.29-1.13-6.46c-0.39-3-0.56-6.04-1.02-9.03c-1.32-8.68-2.21-17.44-4.4-25.95c-0.78-3.02-1.52-6.06-2.45-9.02
		c-1.31-4.18-2.78-8.3-4.18-12.45c-0.03-0.09-0.1-0.17-0.2-0.32c-0.29,0.09-0.59,0.19-0.89,0.28c-2.72,0.78-5.33,0.87-7.61-1.33
		c-0.5-0.48-1.33-0.32-1.59,0.36c-0.95,2.5-1.92,5-2.73,7.56c-1.36,4.32-2.61,8.67-3.87,13.02c-1.96,6.76-3.1,13.7-3.98,20.7
		c-0.87,6.91-1.68,13.82-2.54,20.73c-0.11,0.89-0.4,1.75-0.65,2.61c-0.32,1.09-1.34,1.41-2.17,0.69c-0.25-0.22-0.46-0.49-0.67-0.76
		c-1.32-1.67-2.51-3.5-3.99-4.98c-2.91-2.92-4.8-6.65-7.17-9.99c-0.77-1.09-1.48-2.25-2.06-3.47c-0.55-1.16-0.51-2.44-0.1-3.67
		c2.5-7.5,4.73-15.12,8.08-22.25c2.24-4.78,4.65-9.49,7.2-14.09c1.84-3.31,4.08-6.36,6.06-9.59c0.3-0.49,0.14-1.31,0.19-1.9
		c-3.29,0.08-6.36,0.4-9.4,0.17c-5.65-0.41-11.34-0.8-16.92-1.83c-7.18-1.32-14.28-3.2-21.39-4.95c-2.01-0.5-4.02-1.21-5.89-2.14
		c-2-1-2.61-2.85-2-4.83c0.38-1.25,0.79-2.49,1.08-3.76c0.13-0.56,0.11-1.24-0.06-1.79c-1.02-3.23,0.39-5.33,3.61-5.08
		c1.48,0.11,2.94,0.58,4.38,1c4.42,1.3,8.82,2.72,13.25,3.96c4.09,1.14,8.21,2.22,12.35,3.13c8.62,1.89,17.35,2.68,26.16,2.49
		c0.31-0.01,0.68-0.18,0.92-0.4c0.96-0.87,1.92-1.76,2.82-2.7c2.14-2.23,6.68-2.58,8.98-0.2c0.44,0.46,0.98,0.81,1.51,1.15
		c0.21,0.13,0.53,0.16,0.79,0.11c2.88-0.56,5.35,0.2,7.39,2.49c0.17,0.19,0.5,0.35,0.72,0.31c3.63-0.64,7.26-1.29,10.88-1.98
		c3.24-0.61,6.47-1.22,9.69-1.92c3.41-0.75,6.81-1.51,10.18-2.44c4-1.11,7.95-2.42,11.93-3.62c1.5-0.46,3.01-0.9,4.53-1.3
		c1.29-0.33,2.53-0.01,3.71,0.56c0.97,0.46,1.54,1.62,1.39,2.75c-0.01,0.1-0.02,0.22-0.07,0.3c-0.93,1.87-0.36,3.7,0.12,5.54
		c0.21,0.8,0.37,1.63,0.48,2.45c0.23,1.76-0.57,3.08-2.05,3.86c-2.64,1.39-5.47,2.04-8.3,2.7c-6.65,1.54-13.28,3.25-19.98,4.52
		c-7.85,1.49-15.81,1.94-23.78,1.89C487.26,384.74,486.89,384.77,486.29,384.8z"/>
	<path class="st4" d="M152.78,149.1c0.46,0.61,0.77,1.04,1.09,1.46c3.6,4.8,6.4,10.13,9.27,15.44c2.85,5.26,5.22,10.74,7.28,16.38
		c1.69,4.62,3.17,9.33,4.74,14c0.5,1.47,0.41,2.97-0.34,4.24c-1.31,2.23-2.79,4.34-4.21,6.49c-0.81,1.23-1.56,2.5-2.47,3.64
		c-1.54,1.93-3.18,3.75-4.76,5.64c-0.56,0.67-0.99,1.47-1.6,2.09c-0.46,0.47-1.16,1.08-1.64,0.99c-0.47-0.09-1.02-0.94-1.16-1.56
		c-0.47-2.13-0.85-4.29-1.13-6.46c-0.39-3-0.56-6.04-1.02-9.03c-1.32-8.68-2.21-17.44-4.4-25.95c-0.78-3.02-1.52-6.06-2.45-9.02
		c-1.31-4.18-2.78-8.3-4.18-12.45c-0.03-0.09-0.1-0.17-0.2-0.32c-0.29,0.09-0.59,0.19-0.89,0.28c-2.72,0.78-5.33,0.87-7.61-1.33
		c-0.5-0.48-1.33-0.32-1.59,0.36c-0.95,2.5-1.92,5-2.73,7.56c-1.36,4.32-2.61,8.67-3.87,13.02c-1.96,6.76-3.1,13.7-3.98,20.7
		c-0.87,6.91-1.68,13.82-2.54,20.73c-0.11,0.89-0.4,1.75-0.65,2.61c-0.32,1.09-1.34,1.41-2.17,0.69c-0.25-0.22-0.46-0.49-0.67-0.76
		c-1.32-1.67-2.51-3.5-3.99-4.98c-2.91-2.92-4.8-6.65-7.17-9.99c-0.77-1.09-1.48-2.25-2.06-3.47c-0.55-1.16-0.51-2.44-0.1-3.67
		c2.5-7.5,4.73-15.12,8.08-22.25c2.24-4.78,4.65-9.49,7.2-14.09c1.84-3.31,4.08-6.36,6.06-9.59c0.3-0.49,0.14-1.31,0.19-1.9
		c-3.29,0.08-6.36,0.4-9.4,0.17c-5.65-0.41-11.34-0.8-16.92-1.83c-7.18-1.32-14.28-3.2-21.39-4.95c-2.01-0.5-4.02-1.21-5.89-2.14
		c-2-1-2.61-2.85-2-4.83c0.38-1.25,0.79-2.49,1.08-3.76c0.13-0.56,0.11-1.24-0.06-1.79c-1.02-3.23,0.39-5.33,3.61-5.08
		c1.48,0.11,2.94,0.58,4.38,1c4.42,1.3,8.82,2.72,13.25,3.96c4.09,1.14,8.21,2.22,12.35,3.13c8.62,1.89,17.35,2.68,26.16,2.49
		c0.31-0.01,0.68-0.18,0.92-0.4c0.96-0.87,1.92-1.76,2.82-2.7c2.14-2.23,6.68-2.58,8.98-0.2c0.44,0.46,0.98,0.81,1.51,1.15
		c0.21,0.13,0.53,0.16,0.79,0.11c2.88-0.56,5.35,0.2,7.39,2.49c0.17,0.19,0.5,0.35,0.72,0.31c3.63-0.64,7.26-1.29,10.88-1.98
		c3.24-0.61,6.47-1.22,9.69-1.92c3.41-0.75,6.81-1.51,10.18-2.44c4-1.11,7.95-2.42,11.93-3.62c1.5-0.46,3.01-0.9,4.53-1.3
		c1.29-0.33,2.53-0.01,3.71,0.56c0.97,0.46,1.54,1.62,1.39,2.75c-0.01,0.1-0.02,0.22-0.07,0.3c-0.93,1.87-0.36,3.7,0.12,5.54
		c0.21,0.8,0.37,1.63,0.48,2.45c0.23,1.76-0.57,3.08-2.05,3.86c-2.64,1.39-5.47,2.04-8.3,2.7c-6.65,1.54-13.28,3.25-19.98,4.52
		c-7.85,1.49-15.81,1.94-23.78,1.89C153.75,149.04,153.38,149.07,152.78,149.1z"/>
	<path d="M125.94,148.4c-8.9,1.04-17.38,0.03-25.85-1.3c-7.37-1.16-14.56-3.18-21.77-5.08c-2.13-0.56-4.25-1.34-6.24-2.33
		c-1.79-0.89-2.34-2.81-1.77-4.64c0.4-1.27,0.81-2.55,1.1-3.85c0.12-0.56,0.08-1.24-0.1-1.78c-1-3.07,0.25-5.1,3.31-4.98
		c1.54,0.06,3.13,0.37,4.58,0.93c6.33,2.46,12.9,3.95,19.45,5.52c5.18,1.24,10.39,2.48,15.65,3.13c5.59,0.69,11.26,0.69,16.89,0.96
		c0.29,0.01,0.64-0.25,0.89-0.48c1.17-1.04,2.25-2.21,3.48-3.16c2.3-1.8,5.43-1.75,7.78-0.01c0.08,0.06,0.16,0.11,0.24,0.18
		c1.12,0.95,2.2,1.57,3.82,1.33c2.36-0.34,4.48,0.65,6.11,2.61c0.14,0.17,0.43,0.34,0.62,0.31c4.89-0.86,9.78-1.65,14.64-2.66
		c4.8-0.99,9.58-2.08,14.32-3.35c5.27-1.41,10.49-3.06,15.72-4.63c2.06-0.62,4.09-1.22,6.19-0.13c1.05,0.55,1.91,1.65,1.47,2.72
		c-1.07,2.58-0.06,4.89,0.43,7.29c0.55,2.72,0.04,4.04-2.32,5.08c-1.8,0.79-3.67,1.46-5.55,1.97c-4.58,1.24-9.17,2.43-13.79,3.49
		c-10.72,2.48-21.58,3.54-32.55,3.54c-0.31,0-0.62,0-1.02,0c1.25,1.84,2.43,3.53,3.56,5.26c1.16,1.79,2.33,3.59,3.38,5.46
		c1.22,2.14,2.25,4.41,3.48,6.54c2.91,5.02,5.07,10.42,7.08,15.89c1.71,4.65,3.18,9.4,4.79,14.09c0.71,2.08,0.04,3.89-0.99,5.53
		c-2.92,4.64-5.96,9.19-9.55,13.29c-1.04,1.19-2.03,2.43-3.04,3.64c-1.08,1.29-2.17,1.11-2.53-0.6c-0.58-2.78-1.01-5.61-1.4-8.43
		c-0.34-2.41-0.47-4.86-0.8-7.27c-1.63-12.03-3.35-24.04-6.99-35.61c-1.26-4.01-2.72-7.95-4.09-11.92
		c-0.03-0.09-0.11-0.16-0.22-0.31c-1.8,0.87-3.7,1.06-5.6,0.5c-0.94-0.27-1.85-0.78-2.65-1.37c-0.74-0.53-1.39-0.59-1.79,0.25
		c-0.53,1.1-1.06,2.22-1.41,3.39c-1.89,6.33-3.71,12.68-5.59,19.02c-2.1,7.1-2.99,14.45-3.93,21.78
		c-0.77,5.97-1.45,11.95-2.18,17.93c-0.08,0.69-0.28,1.36-0.45,2.03c-0.17,0.71-0.51,1.45-1.23,1.4c-0.57-0.04-1.24-0.41-1.63-0.86
		c-1.42-1.63-2.65-3.46-4.11-5.04c-2.5-2.68-4.4-5.83-6.37-8.93c-0.98-1.53-2.31-2.79-2.9-4.64c-0.4-1.26-0.51-2.46-0.1-3.67
		c2.49-7.5,4.73-15.12,8.07-22.26c2.26-4.81,4.68-9.55,7.25-14.18c1.82-3.28,4.05-6.3,6.01-9.49
		C126.02,150.01,125.87,149.19,125.94,148.4z M159.01,217.63c0.11,0.03,0.22,0.05,0.34,0.08c0.2-0.27,0.39-0.54,0.59-0.8
		c0.77-0.99,1.52-2,2.31-2.98c1.23-1.52,2.59-2.93,3.72-4.53c1.74-2.46,3.32-5.05,4.98-7.58c1.21-1.85,1.69-3.7,0.73-5.95
		c-0.99-2.32-1.63-4.81-2.44-7.22c-2.05-6.08-4.29-12.07-7.08-17.83c-3.06-6.34-6.2-12.62-9.76-18.65c-0.55-0.93-1.17-1.81-1.69-2.6
		c-1.5,1.35-2.92,2.61-4.3,3.91c-0.14,0.13-0.22,0.49-0.17,0.69c0.35,1.19,0.72,2.38,1.14,3.55c1.06,2.97,2.38,5.86,3.19,8.91
		c1.89,7.05,3.96,14.09,5.18,21.28c1.36,8.04,1.86,16.24,2.73,24.37C158.64,214.06,158.82,215.85,159.01,217.63z M126.51,151.11
		c-0.73,1.29-1.48,2.54-2.18,3.83c-1.57,2.92-3.23,5.79-4.65,8.79c-2.72,5.78-5.5,11.53-7.85,17.48
		c-2.07,5.21-3.59,10.67-5.35,16.03c-0.45,1.36-0.12,2.62,0.58,3.78c0.7,1.17,1.52,2.26,2.2,3.45c1.77,3.09,3.84,5.93,6.09,8.63
		c1.27,1.53,2.48,3.1,3.8,4.75c0.1-0.38,0.21-0.66,0.25-0.95c0.26-1.82,0.56-3.63,0.75-5.45c0.26-2.52,0.35-5.06,0.65-7.58
		c0.71-5.94,1.34-11.9,2.29-17.8c1.06-6.61,2.58-13.12,4.93-19.38c0.95-2.54,1.73-5.16,2.57-7.75c0.58-1.76,1.13-3.53,1.71-5.34
		c-0.3-0.04-0.53-0.07-0.75-0.1c-1.58-0.2-1.6-0.13-2.12,1.52c-0.57,1.77-1.23,3.5-1.88,5.23c-0.67,1.76-1.49,3.45-2.06,5.24
		c-1.98,6.21-3.88,12.46-5.8,18.69c-0.55,1.79-1.03,3.59-1.56,5.39c-0.09,0.31-0.26,0.59-0.4,0.88c-0.2-0.33-0.24-0.57-0.2-0.8
		c0.74-4.47,1.34-8.94,2.72-13.3c1.79-5.64,3.58-11.27,5.86-16.7c0.25-0.6,0.45-1.24,0.75-1.81c0.83-1.58,1.7-3.14,2.53-4.66
		C128.34,152.43,127.45,151.79,126.51,151.11z M130.03,137.26c-0.35-0.03-0.53-0.04-0.72-0.05c-3.39-0.16-6.78-0.19-10.16-0.52
		c-7.54-0.72-14.99-2.02-22.36-3.92c-6.36-1.64-12.78-3.05-18.87-5.71c-1.04-0.45-2.19-0.68-3.31-0.87
		c-1.89-0.32-2.61,0.66-2.06,2.58c0.36,1.26,0.69,2.54,0.9,3.83c0.19,1.15-0.12,1.38-1.21,1.18c-0.05,0.27-0.1,0.54-0.15,0.82
		c-0.46,2.92-0.25,3.43,2.38,4.42c1.59,0.6,3.25,0.99,4.9,1.38c6.65,1.55,13.26,3.31,19.96,4.53c5.35,0.97,10.8,1.44,16.22,1.8
		c3.2,0.21,6.45-0.21,9.67-0.39c0.23-0.01,0.53-0.39,0.66-0.67c0.46-1.06,0.78-2.19,1.3-3.21
		C128.05,140.73,129.02,139.09,130.03,137.26z M151.95,147.26c0.34,0.03,0.53,0.07,0.71,0.07c8.16-0.21,16.3-0.72,24.35-2.2
		c5.68-1.05,11.3-2.44,16.93-3.77c2.99-0.7,6.02-1.35,8.89-2.43c3.15-1.19,3.12-1.55,2.26-5.17c-1.3,0.28-1.62,0-1.3-1.44
		c0.33-1.47,0.88-2.89,1.26-4.35c0.09-0.34-0.03-0.99-0.25-1.11c-0.63-0.35-1.37-0.72-2.05-0.7c-0.92,0.04-1.85,0.37-2.74,0.69
		c-2.13,0.75-4.21,1.73-6.37,2.33c-6.18,1.7-12.37,3.38-18.61,4.81c-4.23,0.97-8.54,1.54-12.83,2.18c-2.61,0.38-5.24,0.54-7.91,0.81
		C154.98,140.66,153.73,143.95,151.95,147.26z M134.97,152.18c-0.55-0.79-1.02-1.39-1.4-2.06c-0.13-0.24-0.01-0.63-0.01-0.96
		c0.34,0.04,0.68,0.03,1,0.13c0.16,0.05,0.26,0.29,0.39,0.45c0.8,1.01,1.58,2.04,2.4,3.03c0.83,1.02,1.82,1.28,3.08,0.96
		c1.67-0.43,3.08-1.32,4.36-2.48c1.24-1.13,2.44-2.31,3.6-3.53c2.41-2.53,4.1-5.42,3.72-9.24c-0.29-2.87-1.67-4.58-3.95-4.54
		c-1.02,0.02-2.06,0.53-3.03,0.96c-0.63,0.28-1.16,0.83-1.85,1.35c-0.2-1.27,0.79-1.7,1.21-2.49c-1.02-1.02-2.22-1.62-3.52-2.13
		c-1.73-0.67-3.18-0.23-4.47,0.92c-3.6,3.21-6.43,7.09-8.47,11.61c-0.76,1.68-0.8,3.44-0.19,5.18c0.49,1.42,1.43,2.31,2.89,2.45
		C132.05,151.94,133.38,152.04,134.97,152.18z"/>
	<g>
		<path class="st1" d="M494.95,278.64c0.46,0.61,0.77,1.04,1.09,1.46c3.6,4.8,6.4,10.13,9.27,15.44c2.85,5.26,5.22,10.74,7.28,16.38
			c1.69,4.62,3.17,9.33,4.74,14c0.5,1.47,0.41,2.97-0.34,4.24c-1.31,2.23-2.79,4.34-4.21,6.49c-0.81,1.23-1.56,2.5-2.47,3.64
			c-1.54,1.93-3.18,3.75-4.76,5.64c-0.56,0.67-0.99,1.47-1.6,2.09c-0.46,0.47-1.16,1.08-1.64,0.99c-0.47-0.09-1.02-0.94-1.16-1.56
			c-0.47-2.13-0.85-4.29-1.13-6.46c-0.39-3-0.56-6.04-1.02-9.03c-1.32-8.68-2.21-17.44-4.4-25.95c-0.78-3.02-1.52-6.06-2.45-9.02
			c-1.31-4.18-2.78-8.3-4.18-12.45c-0.03-0.09-0.1-0.17-0.2-0.32c-0.29,0.09-0.59,0.19-0.89,0.28c-2.72,0.78-5.33,0.87-7.61-1.33
			c-0.5-0.48-1.33-0.32-1.59,0.36c-0.95,2.5-1.92,5-2.73,7.56c-1.36,4.32-2.61,8.67-3.87,13.02c-1.96,6.76-3.1,13.7-3.98,20.7
			c-0.87,6.91-1.68,13.82-2.54,20.73c-0.11,0.89-0.4,1.75-0.65,2.61c-0.32,1.09-1.34,1.41-2.17,0.69c-0.25-0.22-0.46-0.49-0.67-0.76
			c-1.32-1.67-2.51-3.5-3.99-4.98c-2.91-2.92-4.8-6.65-7.17-9.99c-0.77-1.09-1.48-2.25-2.06-3.47c-0.55-1.16-0.51-2.44-0.1-3.67
			c2.5-7.5,4.73-15.12,8.08-22.25c2.24-4.78,4.65-9.49,7.2-14.09c1.84-3.31,4.08-6.36,6.06-9.59c0.3-0.49,0.14-1.31,0.19-1.9
			c-3.29,0.08-6.36,0.4-9.4,0.17c-5.65-0.41-11.34-0.8-16.92-1.83c-7.18-1.32-14.28-3.2-21.39-4.95c-2.01-0.5-4.02-1.21-5.89-2.14
			c-2-1-2.61-2.85-2-4.83c0.38-1.25,0.79-2.49,1.08-3.76c0.13-0.56,0.11-1.24-0.06-1.79c-1.02-3.23,0.39-5.33,3.61-5.08
			c1.48,0.11,2.94,0.58,4.38,1c4.42,1.3,8.82,2.72,13.25,3.96c4.09,1.14,8.21,2.22,12.35,3.13c8.62,1.89,17.35,2.68,26.16,2.49
			c0.31-0.01,0.68-0.18,0.92-0.4c0.96-0.87,1.92-1.76,2.82-2.7c2.14-2.23,6.68-2.58,8.98-0.2c0.44,0.46,0.98,0.81,1.51,1.15
			c0.21,0.13,0.53,0.16,0.79,0.11c2.88-0.56,5.35,0.2,7.39,2.49c0.17,0.19,0.5,0.35,0.72,0.31c3.63-0.64,7.26-1.29,10.88-1.98
			c3.24-0.61,6.47-1.22,9.69-1.92c3.41-0.75,6.81-1.51,10.18-2.44c4-1.11,7.95-2.42,11.93-3.62c1.5-0.46,3.01-0.9,4.53-1.3
			c1.29-0.33,2.53-0.01,3.71,0.56c0.97,0.46,1.54,1.62,1.39,2.75c-0.01,0.1-0.02,0.22-0.07,0.3c-0.93,1.87-0.36,3.7,0.12,5.54
			c0.21,0.8,0.37,1.63,0.48,2.45c0.23,1.76-0.57,3.08-2.05,3.86c-2.64,1.39-5.47,2.04-8.3,2.7c-6.65,1.54-13.28,3.25-19.98,4.52
			c-7.85,1.49-15.81,1.94-23.78,1.89C495.92,278.57,495.55,278.61,494.95,278.64z"/>
		<g>
			<g>
				<path class="st0" d="M464.26,329.53c-1.01-0.51-1.95-1.12-2.85-1.8c-0.04-0.03-0.39-0.3-0.16-0.12
					c0.24,0.18-0.11-0.09-0.15-0.12c-0.21-0.17-0.43-0.34-0.64-0.52c-0.47-0.38-0.94-0.77-1.4-1.16c-1.89-1.56-3.79-3.13-5.68-4.69
					c-1.01-0.83-2.56-1.06-3.54,0c-0.84,0.92-1.08,2.65,0,3.54c1.95,1.61,3.9,3.22,5.85,4.83c1.91,1.58,3.82,3.23,6.04,4.35
					c1.17,0.59,2.76,0.35,3.42-0.9C465.76,331.81,465.51,330.15,464.26,329.53L464.26,329.53z"/>
			</g>
		</g>
		<g>
			<g>
				<path class="st0" d="M503.1,328.22c-0.03-0.02-0.05-0.05-0.08-0.07c0.21,0.37,0.43,0.74,0.64,1.1
					c-0.01-0.04-0.01-0.07-0.02-0.11c0,0.44,0,0.89,0,1.33c-0.21,0.79-0.68,0.95-0.23,0.54c0.13-0.12,0.26-0.23,0.39-0.34
					c0.26-0.22,0.53-0.44,0.81-0.65c-0.27,0.22-0.11,0.09,0.07-0.05c0.25-0.19,0.5-0.39,0.75-0.58c0.27-0.21,0.53-0.42,0.79-0.63
					c0.91-0.76,1.74-1.6,2.58-2.44c0.84-0.83,1.67-1.67,2.57-2.43c0.11-0.1,0.23-0.19,0.35-0.28c0.26-0.22-0.49,0.35-0.01,0.01
					c0.24-0.17,0.48-0.35,0.73-0.51c0.5-0.32,1.03-0.61,1.57-0.85c1.2-0.54,1.57-2.37,0.9-3.42c-0.8-1.24-2.14-1.47-3.42-0.9
					c-2.65,1.19-4.71,3.35-6.75,5.36c-0.47,0.47-0.95,0.94-1.45,1.38c-0.25,0.22-0.5,0.44-0.75,0.65c-0.16,0.13-0.32,0.26-0.48,0.39
					c-0.54,0.43,0.4-0.31-0.15,0.12c-0.71,0.55-1.45,1.08-2.1,1.7c-1.15,1.1-1.53,3.03-0.24,4.21c0.97,0.88,2.59,1.03,3.54,0
					C503.98,330.79,504.13,329.16,503.1,328.22L503.1,328.22z"/>
			</g>
		</g>
		<path d="M469.2,277.93c-8.9,1.04-17.38,0.03-25.85-1.3c-7.37-1.16-14.56-3.18-21.77-5.08c-2.13-0.56-4.25-1.34-6.24-2.33
			c-1.79-0.89-2.34-2.81-1.77-4.64c0.4-1.27,0.81-2.55,1.1-3.85c0.12-0.56,0.08-1.24-0.1-1.78c-1-3.07,0.25-5.1,3.31-4.98
			c1.54,0.06,3.13,0.37,4.58,0.93c6.33,2.46,12.9,3.95,19.45,5.52c5.18,1.24,10.39,2.48,15.65,3.13c5.59,0.69,11.26,0.69,16.89,0.96
			c0.29,0.01,0.64-0.25,0.89-0.48c1.17-1.04,2.25-2.21,3.48-3.16c2.3-1.8,5.43-1.75,7.78-0.01c0.08,0.06,0.16,0.11,0.24,0.18
			c1.12,0.95,2.2,1.57,3.82,1.33c2.36-0.34,4.48,0.65,6.11,2.61c0.14,0.17,0.43,0.34,0.62,0.31c4.89-0.86,9.78-1.65,14.64-2.66
			c4.8-0.99,9.58-2.08,14.32-3.35c5.27-1.41,10.49-3.06,15.72-4.63c2.06-0.62,4.09-1.22,6.19-0.13c1.05,0.55,1.91,1.65,1.47,2.72
			c-1.07,2.58-0.06,4.89,0.43,7.29c0.55,2.72,0.04,4.04-2.32,5.08c-1.8,0.79-3.67,1.46-5.55,1.97c-4.58,1.24-9.17,2.43-13.79,3.49
			c-10.72,2.48-21.58,3.54-32.55,3.54c-0.31,0-0.62,0-1.02,0c1.25,1.84,2.43,3.53,3.56,5.26c1.16,1.79,2.33,3.59,3.38,5.46
			c1.22,2.14,2.25,4.41,3.48,6.54c2.91,5.02,5.07,10.42,7.08,15.89c1.71,4.65,3.18,9.4,4.79,14.09c0.71,2.08,0.04,3.89-0.99,5.53
			c-2.92,4.64-5.96,9.19-9.55,13.29c-1.04,1.19-2.03,2.43-3.04,3.64c-1.08,1.29-2.17,1.11-2.53-0.6c-0.58-2.78-1.01-5.61-1.4-8.43
			c-0.34-2.41-0.47-4.86-0.8-7.27c-1.63-12.03-3.35-24.04-6.99-35.61c-1.26-4.01-2.72-7.95-4.09-11.92
			c-0.03-0.09-0.11-0.16-0.22-0.31c-1.8,0.87-3.7,1.06-5.6,0.5c-0.94-0.27-1.85-0.78-2.65-1.37c-0.74-0.53-1.39-0.59-1.79,0.25
			c-0.53,1.1-1.06,2.22-1.41,3.39c-1.89,6.33-3.71,12.68-5.59,19.02c-2.1,7.1-2.99,14.45-3.93,21.78
			c-0.77,5.97-1.45,11.95-2.18,17.93c-0.08,0.69-0.28,1.36-0.45,2.03c-0.17,0.71-0.51,1.45-1.23,1.4c-0.57-0.04-1.24-0.41-1.63-0.86
			c-1.42-1.63-2.65-3.46-4.11-5.04c-2.5-2.68-4.4-5.83-6.37-8.93c-0.98-1.53-2.31-2.79-2.9-4.64c-0.4-1.26-0.51-2.46-0.1-3.67
			c2.49-7.5,4.73-15.12,8.07-22.26c2.26-4.81,4.68-9.55,7.25-14.18c1.82-3.28,4.05-6.3,6.01-9.49
			C469.28,279.54,469.13,278.72,469.2,277.93z M502.27,347.16c0.11,0.03,0.22,0.05,0.34,0.08c0.2-0.27,0.39-0.54,0.59-0.8
			c0.77-0.99,1.52-2,2.31-2.98c1.23-1.52,2.59-2.93,3.72-4.53c1.74-2.46,3.32-5.05,4.98-7.58c1.21-1.85,1.69-3.7,0.73-5.95
			c-0.99-2.32-1.63-4.81-2.44-7.22c-2.05-6.08-4.29-12.07-7.08-17.83c-3.06-6.34-6.2-12.62-9.76-18.65
			c-0.55-0.93-1.17-1.81-1.69-2.6c-1.5,1.35-2.92,2.61-4.3,3.91c-0.14,0.13-0.22,0.49-0.17,0.69c0.35,1.19,0.72,2.38,1.14,3.55
			c1.06,2.97,2.38,5.86,3.19,8.91c1.89,7.05,3.96,14.09,5.18,21.28c1.36,8.04,1.86,16.24,2.73,24.37
			C501.9,343.59,502.08,345.38,502.27,347.16z M469.77,280.64c-0.73,1.29-1.48,2.54-2.18,3.83c-1.57,2.92-3.23,5.79-4.65,8.79
			c-2.72,5.78-5.5,11.53-7.85,17.48c-2.07,5.21-3.59,10.67-5.35,16.03c-0.45,1.36-0.12,2.62,0.58,3.78c0.7,1.17,1.52,2.26,2.2,3.45
			c1.77,3.09,3.84,5.93,6.09,8.63c1.27,1.53,2.48,3.1,3.8,4.75c0.1-0.38,0.21-0.66,0.25-0.95c0.26-1.82,0.56-3.63,0.75-5.45
			c0.26-2.52,0.35-5.06,0.65-7.58c0.71-5.94,1.34-11.9,2.29-17.8c1.06-6.61,2.58-13.12,4.93-19.38c0.95-2.54,1.73-5.16,2.57-7.75
			c0.58-1.76,1.13-3.53,1.71-5.34c-0.3-0.04-0.53-0.07-0.75-0.1c-1.58-0.2-1.6-0.13-2.12,1.52c-0.57,1.77-1.23,3.5-1.88,5.23
			c-0.67,1.76-1.49,3.45-2.06,5.24c-1.98,6.21-3.88,12.46-5.8,18.69c-0.55,1.79-1.03,3.59-1.56,5.39c-0.09,0.31-0.26,0.59-0.4,0.88
			c-0.2-0.33-0.24-0.57-0.2-0.8c0.74-4.47,1.34-8.94,2.72-13.3c1.79-5.64,3.58-11.27,5.86-16.7c0.25-0.6,0.45-1.24,0.75-1.81
			c0.83-1.58,1.7-3.14,2.53-4.66C471.59,281.96,470.71,281.32,469.77,280.64z M473.29,266.79c-0.35-0.03-0.53-0.04-0.72-0.05
			c-3.39-0.16-6.78-0.19-10.16-0.52c-7.54-0.72-14.99-2.02-22.36-3.92c-6.36-1.64-12.78-3.05-18.87-5.71
			c-1.04-0.45-2.19-0.68-3.31-0.87c-1.89-0.32-2.61,0.66-2.06,2.58c0.36,1.26,0.69,2.54,0.9,3.83c0.19,1.15-0.12,1.38-1.21,1.18
			c-0.05,0.27-0.1,0.54-0.15,0.82c-0.46,2.92-0.25,3.43,2.38,4.42c1.59,0.6,3.25,0.99,4.9,1.38c6.65,1.55,13.26,3.31,19.96,4.53
			c5.35,0.97,10.8,1.44,16.22,1.8c3.2,0.21,6.45-0.21,9.67-0.39c0.23-0.01,0.53-0.39,0.66-0.67c0.46-1.06,0.78-2.19,1.3-3.21
			C471.31,270.26,472.28,268.62,473.29,266.79z M495.21,276.79c0.34,0.03,0.53,0.07,0.71,0.07c8.16-0.21,16.3-0.72,24.35-2.2
			c5.68-1.05,11.3-2.44,16.93-3.77c2.99-0.7,6.02-1.35,8.89-2.43c3.15-1.19,3.12-1.55,2.26-5.17c-1.3,0.28-1.62,0-1.3-1.44
			c0.33-1.47,0.88-2.89,1.26-4.35c0.09-0.34-0.03-0.99-0.25-1.11c-0.63-0.35-1.37-0.72-2.05-0.7c-0.92,0.04-1.85,0.37-2.74,0.69
			c-2.13,0.75-4.21,1.73-6.37,2.33c-6.18,1.7-12.37,3.38-18.61,4.81c-4.23,0.97-8.54,1.54-12.83,2.18
			c-2.61,0.38-5.24,0.54-7.91,0.81C498.23,270.19,496.99,273.48,495.21,276.79z M478.23,281.71c-0.55-0.79-1.02-1.39-1.4-2.06
			c-0.13-0.24-0.01-0.63-0.01-0.96c0.34,0.04,0.68,0.03,1,0.13c0.16,0.05,0.26,0.29,0.39,0.45c0.8,1.01,1.58,2.04,2.4,3.03
			c0.83,1.02,1.82,1.28,3.08,0.96c1.67-0.43,3.08-1.32,4.36-2.48c1.24-1.13,2.44-2.31,3.6-3.53c2.41-2.53,4.1-5.42,3.72-9.24
			c-0.29-2.87-1.67-4.58-3.95-4.54c-1.02,0.02-2.06,0.53-3.03,0.96c-0.63,0.28-1.16,0.83-1.85,1.35c-0.2-1.27,0.79-1.7,1.21-2.49
			c-1.02-1.02-2.22-1.62-3.52-2.13c-1.73-0.67-3.18-0.23-4.47,0.92c-3.6,3.21-6.43,7.09-8.47,11.61c-0.76,1.68-0.8,3.44-0.19,5.18
			c0.49,1.42,1.43,2.31,2.89,2.45C475.31,281.47,476.64,281.57,478.23,281.71z"/>
	</g>
	<path d="M460.63,384.1c-8.9,1.04-17.38,0.03-25.85-1.3c-7.37-1.16-14.56-3.18-21.77-5.08c-2.13-0.56-4.25-1.34-6.24-2.33
		c-1.79-0.89-2.34-2.81-1.77-4.64c0.4-1.27,0.81-2.55,1.1-3.85c0.12-0.56,0.08-1.24-0.1-1.78c-1-3.07,0.25-5.1,3.31-4.98
		c1.54,0.06,3.13,0.37,4.58,0.93c6.33,2.46,12.9,3.95,19.45,5.52c5.18,1.24,10.39,2.48,15.65,3.13c5.59,0.69,11.26,0.69,16.89,0.96
		c0.29,0.01,0.64-0.25,0.89-0.48c1.17-1.04,2.25-2.21,3.48-3.16c2.3-1.8,5.43-1.75,7.78-0.01c0.08,0.06,0.16,0.11,0.24,0.18
		c1.12,0.95,2.2,1.57,3.82,1.33c2.36-0.34,4.48,0.65,6.11,2.61c0.14,0.17,0.43,0.34,0.62,0.31c4.89-0.86,9.78-1.65,14.64-2.66
		c4.8-0.99,9.58-2.08,14.32-3.35c5.27-1.41,10.49-3.06,15.72-4.63c2.06-0.62,4.09-1.22,6.18-0.13c1.05,0.55,1.91,1.65,1.47,2.72
		c-1.07,2.58-0.06,4.89,0.43,7.29c0.55,2.72,0.03,4.04-2.32,5.08c-1.8,0.79-3.67,1.46-5.55,1.97c-4.58,1.24-9.17,2.43-13.79,3.49
		c-10.72,2.48-21.58,3.54-32.54,3.54c-0.31,0-0.62,0-1.02,0c1.25,1.84,2.43,3.53,3.56,5.26c1.16,1.79,2.33,3.59,3.38,5.46
		c1.22,2.14,2.25,4.41,3.48,6.54c2.91,5.02,5.07,10.42,7.08,15.89c1.71,4.65,3.18,9.4,4.79,14.09c0.71,2.08,0.04,3.89-0.99,5.53
		c-2.92,4.64-5.96,9.19-9.55,13.29c-1.04,1.19-2.03,2.43-3.04,3.64c-1.08,1.29-2.17,1.11-2.53-0.6c-0.58-2.78-1.01-5.61-1.4-8.43
		c-0.34-2.41-0.47-4.86-0.8-7.27c-1.63-12.03-3.35-24.04-6.99-35.61c-1.26-4.01-2.72-7.95-4.09-11.92
		c-0.03-0.09-0.11-0.16-0.22-0.31c-1.8,0.87-3.7,1.06-5.6,0.5c-0.94-0.27-1.85-0.78-2.65-1.37c-0.74-0.53-1.39-0.59-1.79,0.25
		c-0.53,1.1-1.06,2.22-1.41,3.39c-1.89,6.33-3.71,12.68-5.59,19.02c-2.1,7.1-2.99,14.45-3.93,21.78
		c-0.77,5.97-1.45,11.95-2.18,17.93c-0.08,0.69-0.28,1.36-0.45,2.03c-0.17,0.71-0.51,1.45-1.23,1.4c-0.57-0.04-1.24-0.41-1.63-0.86
		c-1.42-1.63-2.65-3.46-4.11-5.04c-2.5-2.68-4.4-5.83-6.37-8.93c-0.98-1.53-2.31-2.79-2.9-4.64c-0.4-1.26-0.51-2.46-0.1-3.67
		c2.49-7.5,4.73-15.12,8.07-22.26c2.26-4.81,4.68-9.55,7.25-14.18c1.82-3.28,4.05-6.3,6.01-9.49
		C460.71,385.71,460.56,384.9,460.63,384.1z M493.7,453.34c0.11,0.03,0.22,0.05,0.34,0.08c0.2-0.27,0.39-0.54,0.59-0.8
		c0.77-0.99,1.52-2,2.31-2.98c1.23-1.52,2.59-2.93,3.72-4.53c1.74-2.46,3.32-5.05,4.98-7.58c1.21-1.85,1.69-3.7,0.73-5.95
		c-0.99-2.32-1.63-4.81-2.44-7.22c-2.05-6.08-4.29-12.07-7.08-17.83c-3.06-6.34-6.2-12.62-9.76-18.65c-0.55-0.93-1.17-1.81-1.69-2.6
		c-1.5,1.35-2.92,2.61-4.3,3.91c-0.14,0.13-0.22,0.49-0.17,0.69c0.35,1.19,0.72,2.38,1.14,3.55c1.06,2.97,2.38,5.86,3.19,8.91
		c1.89,7.05,3.96,14.09,5.18,21.28c1.36,8.04,1.86,16.24,2.73,24.37C493.33,449.76,493.51,451.55,493.7,453.34z M461.21,386.82
		c-0.73,1.29-1.48,2.54-2.18,3.83c-1.57,2.92-3.23,5.79-4.65,8.79c-2.72,5.78-5.5,11.53-7.85,17.48
		c-2.07,5.21-3.59,10.67-5.35,16.03c-0.45,1.36-0.12,2.62,0.58,3.78c0.7,1.17,1.52,2.26,2.2,3.45c1.77,3.09,3.84,5.93,6.09,8.63
		c1.27,1.53,2.48,3.1,3.8,4.75c0.1-0.38,0.21-0.66,0.25-0.95c0.26-1.82,0.56-3.63,0.75-5.45c0.26-2.52,0.35-5.06,0.65-7.58
		c0.71-5.94,1.34-11.9,2.29-17.8c1.06-6.61,2.58-13.12,4.93-19.38c0.95-2.54,1.73-5.16,2.57-7.75c0.58-1.76,1.13-3.53,1.71-5.34
		c-0.3-0.04-0.53-0.07-0.75-0.1c-1.58-0.2-1.6-0.13-2.12,1.52c-0.57,1.77-1.23,3.5-1.88,5.23c-0.67,1.76-1.49,3.45-2.06,5.24
		c-1.98,6.21-3.88,12.46-5.8,18.69c-0.55,1.79-1.03,3.59-1.56,5.39c-0.09,0.31-0.26,0.59-0.4,0.88c-0.2-0.33-0.24-0.57-0.2-0.8
		c0.74-4.47,1.34-8.94,2.72-13.3c1.79-5.64,3.58-11.27,5.86-16.7c0.25-0.6,0.45-1.24,0.75-1.81c0.83-1.58,1.7-3.14,2.53-4.66
		C463.03,388.13,462.14,387.49,461.21,386.82z M464.73,372.97c-0.35-0.03-0.54-0.04-0.72-0.05c-3.39-0.16-6.78-0.19-10.16-0.52
		c-7.54-0.72-14.99-2.02-22.36-3.92c-6.36-1.64-12.78-3.05-18.87-5.71c-1.04-0.45-2.19-0.68-3.31-0.87
		c-1.89-0.32-2.61,0.66-2.06,2.58c0.36,1.26,0.69,2.54,0.9,3.83c0.19,1.15-0.12,1.38-1.21,1.18c-0.05,0.27-0.1,0.54-0.15,0.82
		c-0.46,2.92-0.25,3.43,2.38,4.42c1.59,0.6,3.25,0.99,4.9,1.38c6.65,1.55,13.26,3.31,19.96,4.53c5.35,0.97,10.8,1.44,16.22,1.8
		c3.2,0.21,6.45-0.21,9.67-0.39c0.23-0.01,0.53-0.39,0.66-0.67c0.46-1.06,0.78-2.19,1.3-3.21
		C462.74,376.44,463.71,374.79,464.73,372.97z M486.64,382.97c0.34,0.03,0.53,0.07,0.71,0.07c8.16-0.21,16.3-0.72,24.35-2.2
		c5.68-1.05,11.3-2.44,16.93-3.77c2.99-0.7,6.02-1.35,8.89-2.43c3.15-1.19,3.12-1.55,2.26-5.17c-1.3,0.28-1.62,0-1.3-1.44
		c0.33-1.47,0.88-2.89,1.26-4.35c0.09-0.34-0.03-0.99-0.25-1.11c-0.63-0.35-1.37-0.72-2.05-0.7c-0.92,0.04-1.85,0.37-2.74,0.69
		c-2.13,0.75-4.21,1.73-6.37,2.33c-6.18,1.7-12.37,3.38-18.61,4.81c-4.23,0.97-8.54,1.54-12.83,2.18c-2.61,0.38-5.24,0.54-7.91,0.81
		C489.67,376.36,488.42,379.65,486.64,382.97z M469.66,387.88c-0.55-0.79-1.02-1.39-1.4-2.06c-0.13-0.24-0.01-0.63-0.01-0.96
		c0.33,0.04,0.68,0.03,1,0.13c0.16,0.05,0.26,0.29,0.39,0.45c0.8,1.01,1.58,2.04,2.4,3.03c0.83,1.02,1.82,1.28,3.08,0.96
		c1.67-0.43,3.08-1.32,4.36-2.48c1.24-1.13,2.44-2.31,3.6-3.53c2.41-2.53,4.1-5.42,3.72-9.24c-0.29-2.87-1.67-4.58-3.95-4.54
		c-1.02,0.02-2.06,0.53-3.03,0.96c-0.63,0.28-1.16,0.83-1.85,1.35c-0.2-1.27,0.79-1.7,1.21-2.49c-1.02-1.02-2.22-1.62-3.52-2.13
		c-1.73-0.67-3.18-0.23-4.47,0.92c-3.6,3.21-6.43,7.09-8.47,11.61c-0.76,1.68-0.8,3.44-0.19,5.18c0.49,1.42,1.43,2.31,2.89,2.45
		C466.74,387.64,468.07,387.74,469.66,387.88z"/>
	<g>
		<path class="st5" d="M490.74,149.1c0.46,0.61,0.77,1.04,1.09,1.46c3.6,4.8,6.4,10.13,9.27,15.44c2.85,5.26,5.22,10.74,7.28,16.38
			c1.69,4.62,3.17,9.33,4.74,14c0.5,1.47,0.41,2.97-0.34,4.24c-1.31,2.23-2.79,4.34-4.21,6.49c-0.81,1.23-1.56,2.5-2.47,3.64
			c-1.54,1.93-3.18,3.75-4.76,5.64c-0.56,0.67-0.99,1.47-1.6,2.09c-0.46,0.47-1.16,1.08-1.64,0.99c-0.47-0.09-1.02-0.94-1.16-1.56
			c-0.47-2.13-0.85-4.29-1.13-6.46c-0.39-3-0.56-6.04-1.02-9.03c-1.32-8.68-2.21-17.44-4.4-25.95c-0.78-3.02-1.52-6.06-2.45-9.02
			c-1.31-4.18-2.78-8.3-4.18-12.45c-0.03-0.09-0.1-0.17-0.2-0.32c-0.29,0.09-0.59,0.19-0.89,0.28c-2.72,0.78-5.33,0.87-7.61-1.33
			c-0.5-0.48-1.33-0.32-1.59,0.36c-0.95,2.5-1.92,5-2.73,7.56c-1.36,4.32-2.61,8.67-3.87,13.02c-1.96,6.76-3.1,13.7-3.98,20.7
			c-0.87,6.91-1.68,13.82-2.54,20.73c-0.11,0.89-0.4,1.75-0.65,2.61c-0.32,1.09-1.34,1.41-2.17,0.69c-0.25-0.22-0.46-0.49-0.67-0.76
			c-1.32-1.67-2.51-3.5-3.99-4.98c-2.91-2.92-4.8-6.65-7.17-9.99c-0.77-1.09-1.48-2.25-2.06-3.47c-0.55-1.16-0.51-2.44-0.1-3.67
			c2.5-7.5,4.73-15.12,8.08-22.25c2.24-4.78,4.65-9.49,7.2-14.09c1.84-3.31,4.08-6.36,6.06-9.59c0.3-0.49,0.14-1.31,0.19-1.9
			c-3.29,0.08-6.36,0.4-9.4,0.17c-5.65-0.41-11.34-0.8-16.92-1.83c-7.18-1.32-14.28-3.2-21.39-4.95c-2.01-0.5-4.02-1.21-5.89-2.14
			c-2-1-2.61-2.85-2-4.83c0.38-1.25,0.79-2.49,1.08-3.76c0.13-0.56,0.11-1.24-0.06-1.79c-1.02-3.23,0.39-5.33,3.61-5.08
			c1.48,0.11,2.94,0.58,4.38,1c4.42,1.3,8.82,2.72,13.25,3.96c4.09,1.14,8.21,2.22,12.35,3.13c8.62,1.89,17.35,2.68,26.16,2.49
			c0.31-0.01,0.68-0.18,0.92-0.4c0.96-0.87,1.92-1.76,2.82-2.7c2.14-2.23,6.68-2.58,8.98-0.2c0.44,0.46,0.98,0.81,1.51,1.15
			c0.21,0.13,0.53,0.16,0.79,0.11c2.88-0.56,5.35,0.2,7.39,2.49c0.17,0.19,0.5,0.35,0.72,0.31c3.63-0.64,7.26-1.29,10.88-1.98
			c3.24-0.61,6.47-1.22,9.69-1.92c3.41-0.75,6.81-1.51,10.18-2.44c4-1.11,7.95-2.42,11.93-3.62c1.5-0.46,3.01-0.9,4.53-1.3
			c1.29-0.33,2.53-0.01,3.71,0.56c0.97,0.46,1.54,1.62,1.39,2.75c-0.01,0.1-0.02,0.22-0.07,0.3c-0.93,1.87-0.36,3.7,0.12,5.54
			c0.21,0.8,0.37,1.63,0.48,2.45c0.23,1.76-0.57,3.08-2.05,3.86c-2.64,1.39-5.47,2.04-8.3,2.7c-6.65,1.54-13.28,3.25-19.98,4.52
			c-7.85,1.49-15.81,1.94-23.78,1.89C491.71,149.04,491.34,149.07,490.74,149.1z"/>
		<path d="M465.08,148.4c-8.9,1.04-17.38,0.03-25.85-1.3c-7.37-1.16-14.56-3.18-21.77-5.08c-2.13-0.56-4.25-1.34-6.24-2.33
			c-1.79-0.89-2.34-2.81-1.77-4.64c0.4-1.27,0.81-2.55,1.1-3.85c0.12-0.56,0.08-1.24-0.1-1.78c-1-3.07,0.25-5.1,3.31-4.98
			c1.54,0.06,3.13,0.37,4.58,0.93c6.33,2.46,12.9,3.95,19.45,5.52c5.18,1.24,10.39,2.48,15.65,3.13c5.59,0.69,11.26,0.69,16.89,0.96
			c0.29,0.01,0.64-0.25,0.89-0.48c1.17-1.04,2.25-2.21,3.48-3.16c2.3-1.8,5.43-1.75,7.78-0.01c0.08,0.06,0.16,0.11,0.24,0.18
			c1.12,0.95,2.2,1.57,3.82,1.33c2.36-0.34,4.48,0.65,6.11,2.61c0.14,0.17,0.43,0.34,0.62,0.31c4.89-0.86,9.78-1.65,14.64-2.66
			c4.8-0.99,9.58-2.08,14.32-3.35c5.27-1.41,10.49-3.06,15.72-4.63c2.06-0.62,4.09-1.22,6.19-0.13c1.05,0.55,1.91,1.65,1.47,2.72
			c-1.07,2.58-0.06,4.89,0.43,7.29c0.55,2.72,0.04,4.04-2.32,5.08c-1.8,0.79-3.67,1.46-5.55,1.97c-4.58,1.24-9.17,2.43-13.79,3.49
			c-10.72,2.48-21.58,3.54-32.55,3.54c-0.31,0-0.62,0-1.02,0c1.25,1.84,2.43,3.53,3.56,5.26c1.16,1.79,2.33,3.59,3.38,5.46
			c1.22,2.14,2.25,4.41,3.48,6.54c2.91,5.02,5.07,10.42,7.08,15.89c1.71,4.65,3.18,9.4,4.79,14.09c0.71,2.08,0.04,3.89-0.99,5.53
			c-2.92,4.64-5.96,9.19-9.55,13.29c-1.04,1.19-2.03,2.43-3.04,3.64c-1.08,1.29-2.17,1.11-2.53-0.6c-0.58-2.78-1.01-5.61-1.4-8.43
			c-0.34-2.41-0.47-4.86-0.8-7.27c-1.63-12.03-3.35-24.04-6.99-35.61c-1.26-4.01-2.72-7.95-4.09-11.92
			c-0.03-0.09-0.11-0.16-0.22-0.31c-1.8,0.87-3.7,1.06-5.6,0.5c-0.94-0.27-1.85-0.78-2.65-1.37c-0.74-0.53-1.39-0.59-1.79,0.25
			c-0.53,1.1-1.06,2.22-1.41,3.39c-1.89,6.33-3.71,12.68-5.59,19.02c-2.1,7.1-2.99,14.45-3.93,21.78
			c-0.77,5.97-1.45,11.95-2.18,17.93c-0.08,0.69-0.28,1.36-0.45,2.03c-0.17,0.71-0.51,1.45-1.23,1.4c-0.57-0.04-1.24-0.41-1.63-0.86
			c-1.42-1.63-2.65-3.46-4.11-5.04c-2.5-2.68-4.4-5.83-6.37-8.93c-0.98-1.53-2.31-2.79-2.9-4.64c-0.4-1.26-0.51-2.46-0.1-3.67
			c2.49-7.5,4.73-15.12,8.07-22.26c2.26-4.81,4.68-9.55,7.25-14.18c1.82-3.28,4.05-6.3,6.01-9.49
			C465.16,150.01,465.01,149.19,465.08,148.4z M498.15,217.63c0.11,0.03,0.22,0.05,0.34,0.08c0.2-0.27,0.39-0.54,0.59-0.8
			c0.77-0.99,1.52-2,2.31-2.98c1.23-1.52,2.59-2.93,3.72-4.53c1.74-2.46,3.32-5.05,4.98-7.58c1.21-1.85,1.69-3.7,0.73-5.95
			c-0.99-2.32-1.63-4.81-2.44-7.22c-2.05-6.08-4.29-12.07-7.08-17.83c-3.06-6.34-6.2-12.62-9.76-18.65
			c-0.55-0.93-1.17-1.81-1.69-2.6c-1.5,1.35-2.92,2.61-4.3,3.91c-0.14,0.13-0.22,0.49-0.17,0.69c0.35,1.19,0.72,2.38,1.14,3.55
			c1.06,2.97,2.38,5.86,3.19,8.91c1.89,7.05,3.96,14.09,5.18,21.28c1.36,8.04,1.86,16.24,2.73,24.37
			C497.78,214.06,497.96,215.85,498.15,217.63z M465.65,151.11c-0.73,1.29-1.48,2.54-2.18,3.83c-1.57,2.92-3.23,5.79-4.65,8.79
			c-2.72,5.78-5.5,11.53-7.85,17.48c-2.07,5.21-3.59,10.67-5.35,16.03c-0.45,1.36-0.12,2.62,0.58,3.78c0.7,1.17,1.52,2.26,2.2,3.45
			c1.77,3.09,3.84,5.93,6.09,8.63c1.27,1.53,2.48,3.1,3.8,4.75c0.1-0.38,0.21-0.66,0.25-0.95c0.26-1.82,0.56-3.63,0.75-5.45
			c0.26-2.52,0.35-5.06,0.65-7.58c0.71-5.94,1.34-11.9,2.29-17.8c1.06-6.61,2.58-13.12,4.93-19.38c0.95-2.54,1.73-5.16,2.57-7.75
			c0.58-1.76,1.13-3.53,1.71-5.34c-0.3-0.04-0.53-0.07-0.75-0.1c-1.58-0.2-1.6-0.13-2.12,1.52c-0.57,1.77-1.23,3.5-1.88,5.23
			c-0.67,1.76-1.49,3.45-2.06,5.24c-1.98,6.21-3.88,12.46-5.8,18.69c-0.55,1.79-1.03,3.59-1.56,5.39c-0.09,0.31-0.26,0.59-0.4,0.88
			c-0.2-0.33-0.24-0.57-0.2-0.8c0.74-4.47,1.34-8.94,2.72-13.3c1.79-5.64,3.58-11.27,5.86-16.7c0.25-0.6,0.45-1.24,0.75-1.81
			c0.83-1.58,1.7-3.14,2.53-4.66C467.48,152.43,466.59,151.79,465.65,151.11z M469.17,137.26c-0.35-0.03-0.54-0.04-0.72-0.05
			c-3.39-0.16-6.78-0.19-10.16-0.52c-7.54-0.72-14.99-2.02-22.36-3.92c-6.36-1.64-12.78-3.05-18.87-5.71
			c-1.04-0.45-2.19-0.68-3.31-0.87c-1.89-0.32-2.61,0.66-2.06,2.58c0.36,1.26,0.69,2.54,0.9,3.83c0.19,1.15-0.12,1.38-1.21,1.18
			c-0.05,0.27-0.1,0.54-0.15,0.82c-0.46,2.92-0.25,3.43,2.38,4.42c1.59,0.6,3.25,0.99,4.9,1.38c6.65,1.55,13.26,3.31,19.96,4.53
			c5.35,0.97,10.8,1.44,16.22,1.8c3.2,0.21,6.45-0.21,9.67-0.39c0.23-0.01,0.53-0.39,0.66-0.67c0.46-1.06,0.78-2.19,1.3-3.21
			C467.19,140.73,468.16,139.09,469.17,137.26z M491.09,147.26c0.34,0.03,0.53,0.07,0.71,0.07c8.16-0.21,16.3-0.72,24.35-2.2
			c5.68-1.05,11.3-2.44,16.93-3.77c2.99-0.7,6.02-1.35,8.89-2.43c3.15-1.19,3.12-1.55,2.26-5.17c-1.3,0.28-1.62,0-1.3-1.44
			c0.33-1.47,0.88-2.89,1.26-4.35c0.09-0.34-0.03-0.99-0.25-1.11c-0.63-0.35-1.37-0.72-2.05-0.7c-0.92,0.04-1.85,0.37-2.74,0.69
			c-2.13,0.75-4.21,1.73-6.37,2.33c-6.18,1.7-12.37,3.38-18.61,4.81c-4.23,0.97-8.54,1.54-12.83,2.18
			c-2.61,0.38-5.24,0.54-7.91,0.81C494.12,140.66,492.87,143.95,491.09,147.26z M474.11,152.18c-0.55-0.79-1.02-1.39-1.4-2.06
			c-0.13-0.24-0.01-0.63-0.01-0.96c0.33,0.04,0.68,0.03,1,0.13c0.16,0.05,0.26,0.29,0.39,0.45c0.8,1.01,1.58,2.04,2.4,3.03
			c0.83,1.02,1.82,1.28,3.08,0.96c1.67-0.43,3.08-1.32,4.36-2.48c1.24-1.13,2.44-2.31,3.6-3.53c2.41-2.53,4.1-5.42,3.72-9.24
			c-0.29-2.87-1.67-4.58-3.95-4.54c-1.02,0.02-2.06,0.53-3.03,0.96c-0.63,0.28-1.16,0.83-1.85,1.35c-0.2-1.27,0.79-1.7,1.21-2.49
			c-1.02-1.02-2.22-1.62-3.52-2.13c-1.73-0.67-3.18-0.23-4.47,0.92c-3.6,3.21-6.43,7.09-8.47,11.61c-0.76,1.68-0.8,3.44-0.19,5.18
			c0.49,1.42,1.43,2.31,2.89,2.45C471.19,151.94,472.52,152.04,474.11,152.18z"/>
	</g>
	<path d="M120.82,389.54c-8.9,1.04-17.38,0.03-25.85-1.3c-7.37-1.16-14.56-3.18-21.77-5.08c-2.13-0.56-4.25-1.34-6.24-2.33
		c-1.79-0.89-2.34-2.81-1.77-4.64c0.4-1.27,0.81-2.55,1.1-3.85c0.12-0.56,0.08-1.24-0.1-1.78c-1-3.07,0.25-5.1,3.31-4.98
		c1.54,0.06,3.13,0.37,4.58,0.93c6.33,2.46,12.9,3.95,19.45,5.52c5.18,1.24,10.39,2.48,15.65,3.13c5.59,0.69,11.26,0.69,16.89,0.96
		c0.29,0.01,0.64-0.25,0.89-0.48c1.17-1.04,2.25-2.21,3.48-3.16c2.3-1.8,5.43-1.75,7.78-0.01c0.08,0.06,0.16,0.11,0.24,0.18
		c1.12,0.95,2.2,1.57,3.82,1.33c2.36-0.34,4.48,0.65,6.11,2.61c0.14,0.17,0.43,0.34,0.62,0.31c4.89-0.86,9.78-1.65,14.64-2.66
		c4.8-0.99,9.58-2.08,14.32-3.35c5.27-1.41,10.49-3.06,15.72-4.63c2.06-0.62,4.09-1.22,6.19-0.13c1.05,0.55,1.91,1.65,1.47,2.72
		c-1.07,2.58-0.06,4.89,0.43,7.29c0.55,2.72,0.04,4.04-2.32,5.08c-1.8,0.79-3.67,1.46-5.55,1.97c-4.58,1.24-9.17,2.43-13.79,3.49
		c-10.72,2.48-21.58,3.54-32.55,3.54c-0.31,0-0.62,0-1.02,0c1.25,1.84,2.43,3.53,3.56,5.26c1.16,1.79,2.33,3.59,3.38,5.46
		c1.22,2.14,2.25,4.41,3.48,6.54c2.91,5.02,5.07,10.42,7.08,15.89c1.71,4.65,3.18,9.4,4.79,14.09c0.71,2.08,0.04,3.89-0.99,5.53
		c-2.92,4.64-5.96,9.19-9.55,13.29c-1.04,1.19-2.03,2.43-3.04,3.64c-1.08,1.29-2.17,1.11-2.53-0.6c-0.58-2.78-1.01-5.61-1.4-8.43
		c-0.34-2.41-0.47-4.86-0.8-7.27c-1.63-12.03-3.35-24.04-6.99-35.61c-1.26-4.01-2.72-7.95-4.09-11.92
		c-0.03-0.09-0.11-0.16-0.22-0.31c-1.8,0.87-3.7,1.06-5.6,0.5c-0.94-0.27-1.85-0.78-2.65-1.37c-0.74-0.53-1.39-0.59-1.79,0.25
		c-0.53,1.1-1.06,2.22-1.41,3.39c-1.89,6.33-3.71,12.68-5.59,19.02c-2.1,7.1-2.99,14.45-3.93,21.78
		c-0.77,5.97-1.45,11.95-2.18,17.93c-0.08,0.69-0.28,1.36-0.45,2.03c-0.17,0.71-0.51,1.45-1.23,1.4c-0.57-0.04-1.24-0.41-1.63-0.86
		c-1.42-1.63-2.65-3.46-4.11-5.04c-2.5-2.68-4.4-5.83-6.37-8.93c-0.98-1.53-2.31-2.79-2.9-4.64c-0.4-1.26-0.51-2.46-0.1-3.67
		c2.49-7.5,4.73-15.12,8.07-22.26c2.26-4.81,4.68-9.55,7.25-14.18c1.82-3.28,4.05-6.3,6.01-9.49
		C120.9,391.15,120.75,390.34,120.82,389.54z M153.89,458.78c0.11,0.03,0.22,0.05,0.34,0.08c0.2-0.27,0.39-0.54,0.59-0.8
		c0.77-0.99,1.52-2,2.31-2.98c1.23-1.52,2.59-2.93,3.72-4.53c1.74-2.46,3.32-5.05,4.98-7.58c1.21-1.85,1.69-3.7,0.73-5.95
		c-0.99-2.32-1.63-4.81-2.44-7.22c-2.05-6.08-4.29-12.07-7.08-17.83c-3.06-6.34-6.2-12.62-9.76-18.65c-0.55-0.93-1.17-1.81-1.69-2.6
		c-1.5,1.35-2.92,2.61-4.3,3.91c-0.14,0.13-0.22,0.49-0.17,0.69c0.35,1.19,0.72,2.38,1.14,3.55c1.06,2.97,2.38,5.86,3.19,8.91
		c1.89,7.05,3.96,14.09,5.18,21.28c1.36,8.04,1.86,16.24,2.73,24.37C153.52,455.2,153.7,456.99,153.89,458.78z M121.4,392.26
		c-0.73,1.29-1.48,2.54-2.18,3.83c-1.57,2.92-3.23,5.79-4.65,8.79c-2.72,5.78-5.5,11.53-7.85,17.48
		c-2.07,5.21-3.59,10.67-5.35,16.03c-0.45,1.36-0.12,2.62,0.58,3.78c0.7,1.17,1.52,2.26,2.2,3.45c1.77,3.09,3.84,5.93,6.09,8.63
		c1.27,1.53,2.48,3.1,3.8,4.75c0.1-0.38,0.21-0.66,0.25-0.95c0.26-1.82,0.56-3.63,0.75-5.45c0.26-2.52,0.35-5.06,0.65-7.58
		c0.71-5.94,1.34-11.9,2.29-17.8c1.06-6.61,2.58-13.12,4.93-19.38c0.95-2.54,1.73-5.16,2.57-7.75c0.58-1.76,1.13-3.53,1.71-5.34
		c-0.3-0.04-0.53-0.07-0.75-0.1c-1.58-0.2-1.6-0.13-2.12,1.52c-0.57,1.77-1.23,3.5-1.88,5.23c-0.67,1.76-1.49,3.45-2.06,5.24
		c-1.98,6.21-3.88,12.46-5.8,18.69c-0.55,1.79-1.03,3.59-1.56,5.39c-0.09,0.31-0.26,0.59-0.4,0.88c-0.2-0.33-0.24-0.57-0.2-0.8
		c0.74-4.47,1.34-8.94,2.72-13.3c1.79-5.64,3.58-11.27,5.86-16.7c0.25-0.6,0.45-1.24,0.75-1.81c0.83-1.58,1.7-3.14,2.53-4.66
		C123.22,393.57,122.33,392.93,121.4,392.26z M124.92,378.41c-0.35-0.03-0.53-0.04-0.72-0.05c-3.39-0.16-6.78-0.19-10.16-0.52
		c-7.54-0.72-14.99-2.02-22.36-3.92c-6.36-1.64-12.78-3.05-18.87-5.71c-1.04-0.45-2.19-0.68-3.31-0.87
		c-1.89-0.32-2.61,0.66-2.06,2.58c0.36,1.26,0.69,2.54,0.9,3.83c0.19,1.15-0.12,1.38-1.21,1.18c-0.05,0.27-0.1,0.54-0.15,0.82
		c-0.46,2.92-0.25,3.43,2.38,4.42c1.59,0.6,3.25,0.99,4.9,1.38c6.65,1.55,13.26,3.31,19.96,4.53c5.35,0.97,10.8,1.44,16.22,1.8
		c3.2,0.21,6.45-0.21,9.67-0.39c0.23-0.01,0.53-0.39,0.66-0.67c0.46-1.06,0.78-2.19,1.3-3.21
		C122.93,381.88,123.9,380.23,124.92,378.41z M146.83,388.41c0.34,0.03,0.53,0.07,0.71,0.07c8.16-0.21,16.3-0.72,24.35-2.2
		c5.68-1.05,11.3-2.44,16.93-3.77c2.99-0.7,6.02-1.35,8.89-2.43c3.15-1.19,3.12-1.55,2.26-5.17c-1.3,0.28-1.62,0-1.3-1.44
		c0.33-1.47,0.88-2.89,1.26-4.35c0.09-0.34-0.03-0.99-0.25-1.11c-0.63-0.35-1.37-0.72-2.05-0.7c-0.92,0.04-1.85,0.37-2.74,0.69
		c-2.13,0.75-4.21,1.73-6.37,2.33c-6.18,1.7-12.37,3.38-18.61,4.81c-4.23,0.97-8.54,1.54-12.83,2.18c-2.61,0.38-5.24,0.54-7.91,0.81
		C149.86,381.8,148.61,385.09,146.83,388.41z M129.85,393.32c-0.55-0.79-1.02-1.39-1.4-2.06c-0.13-0.24-0.01-0.63-0.01-0.96
		c0.34,0.04,0.68,0.03,1,0.13c0.16,0.05,0.26,0.29,0.39,0.45c0.8,1.01,1.58,2.04,2.4,3.03c0.83,1.02,1.82,1.28,3.08,0.96
		c1.67-0.43,3.08-1.32,4.36-2.48c1.24-1.13,2.44-2.31,3.6-3.53c2.41-2.53,4.1-5.42,3.72-9.24c-0.29-2.87-1.67-4.58-3.95-4.54
		c-1.02,0.02-2.06,0.53-3.03,0.96c-0.63,0.28-1.16,0.83-1.85,1.35c-0.2-1.27,0.79-1.7,1.21-2.49c-1.02-1.02-2.22-1.62-3.52-2.13
		c-1.73-0.67-3.18-0.23-4.47,0.92c-3.6,3.21-6.43,7.09-8.47,11.61c-0.76,1.68-0.8,3.44-0.19,5.18c0.49,1.42,1.43,2.31,2.89,2.45
		C126.93,393.08,128.26,393.18,129.85,393.32z"/>
	<path d="M306.94,501.15c-8.9,1.04-17.38,0.03-25.85-1.3c-7.37-1.16-14.56-3.18-21.77-5.08c-2.13-0.56-4.25-1.34-6.24-2.33
		c-1.79-0.89-2.34-2.81-1.77-4.64c0.4-1.27,0.81-2.55,1.1-3.85c0.12-0.56,0.08-1.24-0.1-1.78c-1-3.07,0.25-5.1,3.31-4.98
		c1.54,0.06,3.13,0.37,4.58,0.93c6.33,2.46,12.9,3.95,19.45,5.52c5.18,1.24,10.39,2.48,15.65,3.13c5.59,0.69,11.26,0.69,16.89,0.96
		c0.29,0.01,0.64-0.25,0.89-0.48c1.17-1.04,2.25-2.21,3.48-3.16c2.3-1.8,5.43-1.75,7.78-0.01c0.08,0.06,0.16,0.11,0.24,0.18
		c1.12,0.95,2.2,1.57,3.82,1.33c2.36-0.34,4.48,0.65,6.11,2.61c0.14,0.17,0.43,0.34,0.62,0.31c4.89-0.86,9.78-1.65,14.64-2.66
		c4.8-0.99,9.58-2.08,14.32-3.35c5.27-1.41,10.49-3.06,15.72-4.63c2.06-0.62,4.09-1.22,6.18-0.13c1.05,0.55,1.91,1.65,1.47,2.72
		c-1.07,2.58-0.06,4.89,0.43,7.29c0.55,2.72,0.04,4.04-2.32,5.08c-1.8,0.79-3.67,1.46-5.55,1.97c-4.58,1.24-9.17,2.43-13.79,3.49
		c-10.72,2.48-21.58,3.54-32.55,3.54c-0.31,0-0.62,0-1.02,0c1.25,1.84,2.43,3.53,3.56,5.26c1.16,1.79,2.33,3.59,3.38,5.46
		c1.22,2.14,2.25,4.41,3.48,6.54c2.91,5.02,5.07,10.42,7.08,15.89c1.71,4.65,3.18,9.4,4.79,14.09c0.71,2.08,0.04,3.89-0.99,5.53
		c-2.92,4.64-5.96,9.19-9.55,13.29c-1.04,1.19-2.03,2.43-3.04,3.64c-1.08,1.29-2.17,1.11-2.53-0.6c-0.58-2.78-1.01-5.61-1.4-8.43
		c-0.34-2.41-0.47-4.86-0.8-7.27c-1.63-12.03-3.35-24.04-6.99-35.61c-1.26-4.01-2.72-7.95-4.09-11.92
		c-0.03-0.09-0.11-0.16-0.22-0.31c-1.8,0.87-3.7,1.06-5.6,0.5c-0.94-0.27-1.85-0.78-2.65-1.37c-0.74-0.53-1.39-0.59-1.79,0.25
		c-0.53,1.1-1.06,2.22-1.41,3.39c-1.89,6.33-3.71,12.68-5.59,19.02c-2.1,7.1-2.99,14.45-3.93,21.78
		c-0.77,5.97-1.45,11.95-2.18,17.93c-0.08,0.69-0.28,1.36-0.45,2.03c-0.17,0.71-0.51,1.45-1.23,1.4c-0.57-0.04-1.24-0.41-1.63-0.86
		c-1.42-1.63-2.65-3.46-4.11-5.04c-2.5-2.68-4.4-5.83-6.37-8.93c-0.98-1.53-2.31-2.79-2.9-4.64c-0.4-1.26-0.51-2.46-0.1-3.67
		c2.49-7.5,4.73-15.12,8.07-22.26c2.26-4.81,4.68-9.55,7.25-14.18c1.82-3.28,4.05-6.3,6.01-9.49
		C307.02,502.76,306.87,501.95,306.94,501.15z M340.01,570.39c0.11,0.03,0.22,0.05,0.34,0.08c0.2-0.27,0.39-0.54,0.59-0.8
		c0.77-0.99,1.52-2,2.31-2.98c1.23-1.52,2.59-2.93,3.72-4.53c1.74-2.46,3.32-5.05,4.98-7.58c1.21-1.85,1.69-3.7,0.73-5.95
		c-0.99-2.32-1.63-4.81-2.44-7.22c-2.05-6.08-4.29-12.07-7.08-17.83c-3.06-6.34-6.2-12.62-9.76-18.65c-0.55-0.93-1.17-1.81-1.69-2.6
		c-1.5,1.35-2.92,2.61-4.3,3.91c-0.14,0.13-0.22,0.49-0.17,0.69c0.35,1.19,0.72,2.38,1.14,3.55c1.06,2.97,2.38,5.86,3.19,8.91
		c1.89,7.05,3.96,14.09,5.18,21.28c1.36,8.04,1.86,16.24,2.73,24.37C339.64,566.81,339.82,568.6,340.01,570.39z M307.52,503.87
		c-0.73,1.29-1.48,2.54-2.18,3.83c-1.57,2.92-3.23,5.79-4.65,8.79c-2.72,5.78-5.5,11.53-7.85,17.48
		c-2.07,5.21-3.59,10.67-5.35,16.03c-0.45,1.36-0.12,2.62,0.58,3.78c0.7,1.17,1.52,2.26,2.2,3.45c1.77,3.09,3.84,5.93,6.09,8.63
		c1.27,1.53,2.48,3.1,3.8,4.75c0.1-0.38,0.21-0.66,0.25-0.95c0.26-1.82,0.56-3.63,0.75-5.45c0.26-2.52,0.35-5.06,0.65-7.58
		c0.71-5.94,1.34-11.9,2.29-17.8c1.06-6.61,2.58-13.12,4.93-19.38c0.95-2.54,1.73-5.16,2.57-7.75c0.58-1.76,1.13-3.53,1.71-5.34
		c-0.3-0.04-0.53-0.07-0.75-0.1c-1.58-0.2-1.6-0.13-2.12,1.52c-0.57,1.77-1.23,3.5-1.88,5.23c-0.67,1.76-1.49,3.45-2.06,5.24
		c-1.98,6.21-3.88,12.46-5.8,18.69c-0.55,1.79-1.03,3.59-1.56,5.39c-0.09,0.31-0.26,0.59-0.4,0.88c-0.2-0.33-0.24-0.57-0.2-0.8
		c0.74-4.47,1.34-8.94,2.72-13.3c1.79-5.64,3.58-11.27,5.86-16.7c0.25-0.6,0.45-1.24,0.75-1.81c0.83-1.58,1.7-3.14,2.53-4.66
		C309.34,505.19,308.45,504.55,307.52,503.87z M311.04,490.02c-0.35-0.03-0.53-0.04-0.72-0.05c-3.39-0.16-6.78-0.19-10.16-0.52
		c-7.54-0.72-14.99-2.02-22.36-3.92c-6.36-1.64-12.78-3.05-18.87-5.71c-1.04-0.45-2.19-0.68-3.31-0.87
		c-1.89-0.32-2.61,0.66-2.06,2.58c0.36,1.26,0.69,2.54,0.9,3.83c0.19,1.15-0.12,1.38-1.21,1.18c-0.05,0.27-0.1,0.54-0.15,0.82
		c-0.46,2.92-0.25,3.43,2.38,4.42c1.59,0.6,3.25,0.99,4.9,1.38c6.65,1.55,13.26,3.31,19.96,4.53c5.35,0.97,10.8,1.44,16.22,1.8
		c3.2,0.21,6.45-0.21,9.67-0.39c0.23-0.01,0.53-0.39,0.66-0.67c0.46-1.06,0.78-2.19,1.3-3.21
		C309.05,493.49,310.02,491.84,311.04,490.02z M332.95,500.02c0.34,0.03,0.53,0.07,0.71,0.07c8.16-0.21,16.3-0.72,24.35-2.2
		c5.68-1.05,11.3-2.44,16.93-3.77c2.99-0.7,6.02-1.35,8.89-2.43c3.15-1.19,3.12-1.55,2.26-5.17c-1.3,0.28-1.62,0-1.3-1.44
		c0.33-1.47,0.88-2.89,1.26-4.35c0.09-0.34-0.03-0.99-0.25-1.11c-0.63-0.35-1.37-0.72-2.05-0.7c-0.92,0.04-1.85,0.37-2.74,0.69
		c-2.13,0.75-4.21,1.73-6.37,2.33c-6.18,1.7-12.37,3.38-18.61,4.81c-4.23,0.97-8.54,1.54-12.83,2.18c-2.61,0.38-5.24,0.54-7.91,0.81
		C335.98,493.41,334.73,496.7,332.95,500.02z M315.97,504.93c-0.55-0.79-1.02-1.39-1.4-2.06c-0.13-0.24-0.01-0.63-0.01-0.96
		c0.33,0.04,0.68,0.03,1,0.13c0.16,0.05,0.26,0.29,0.39,0.45c0.8,1.01,1.58,2.04,2.4,3.03c0.83,1.02,1.82,1.28,3.08,0.96
		c1.67-0.43,3.08-1.32,4.36-2.48c1.24-1.13,2.44-2.31,3.6-3.53c2.41-2.53,4.1-5.42,3.72-9.24c-0.29-2.87-1.67-4.58-3.95-4.54
		c-1.02,0.02-2.06,0.53-3.03,0.96c-0.63,0.28-1.16,0.83-1.85,1.35c-0.2-1.27,0.79-1.7,1.21-2.49c-1.02-1.02-2.22-1.62-3.52-2.13
		c-1.73-0.67-3.18-0.23-4.47,0.92c-3.6,3.21-6.43,7.09-8.47,11.61c-0.76,1.68-0.8,3.44-0.19,5.18c0.49,1.42,1.43,2.31,2.89,2.45
		C313.05,504.69,314.38,504.8,315.97,504.93z"/>
	<g>
		<path class="st3" d="M151.6,501.86c0.46,0.61,0.77,1.04,1.09,1.46c3.6,4.8,6.4,10.13,9.27,15.44c2.85,5.26,5.22,10.74,7.28,16.38
			c1.69,4.62,3.17,9.33,4.74,14c0.5,1.47,0.41,2.97-0.34,4.24c-1.31,2.23-2.79,4.34-4.21,6.49c-0.81,1.23-1.56,2.5-2.47,3.64
			c-1.54,1.93-3.18,3.75-4.76,5.64c-0.56,0.67-0.99,1.47-1.6,2.09c-0.46,0.47-1.16,1.08-1.64,0.99c-0.47-0.09-1.02-0.94-1.16-1.56
			c-0.47-2.13-0.85-4.29-1.13-6.46c-0.39-3-0.56-6.04-1.02-9.03c-1.32-8.68-2.21-17.44-4.4-25.95c-0.78-3.02-1.52-6.06-2.45-9.02
			c-1.31-4.18-2.78-8.3-4.18-12.45c-0.03-0.09-0.1-0.17-0.2-0.32c-0.29,0.09-0.59,0.19-0.89,0.28c-2.72,0.78-5.33,0.87-7.61-1.33
			c-0.5-0.48-1.33-0.32-1.59,0.36c-0.95,2.5-1.92,5-2.73,7.56c-1.36,4.32-2.61,8.67-3.87,13.02c-1.96,6.76-3.1,13.7-3.98,20.7
			c-0.87,6.91-1.68,13.82-2.54,20.73c-0.11,0.89-0.4,1.75-0.65,2.61c-0.32,1.09-1.34,1.41-2.17,0.69c-0.25-0.22-0.46-0.49-0.67-0.76
			c-1.32-1.67-2.51-3.5-3.99-4.98c-2.91-2.92-4.8-6.65-7.17-9.99c-0.77-1.09-1.48-2.25-2.06-3.47c-0.55-1.16-0.51-2.44-0.1-3.67
			c2.5-7.5,4.73-15.12,8.08-22.25c2.24-4.78,4.65-9.49,7.2-14.09c1.84-3.31,4.08-6.36,6.06-9.59c0.3-0.49,0.14-1.31,0.19-1.9
			c-3.29,0.08-6.36,0.4-9.4,0.17c-5.65-0.41-11.34-0.8-16.92-1.83c-7.18-1.32-14.28-3.2-21.39-4.95c-2.01-0.5-4.02-1.21-5.89-2.14
			c-2-1-2.61-2.85-2-4.83c0.38-1.25,0.79-2.49,1.08-3.76c0.13-0.56,0.11-1.24-0.06-1.79c-1.02-3.23,0.39-5.33,3.61-5.08
			c1.48,0.11,2.94,0.58,4.38,1c4.42,1.3,8.82,2.72,13.25,3.96c4.09,1.14,8.21,2.22,12.35,3.13c8.62,1.89,17.35,2.68,26.16,2.49
			c0.31-0.01,0.68-0.18,0.92-0.4c0.96-0.87,1.92-1.76,2.82-2.7c2.14-2.23,6.68-2.58,8.98-0.2c0.44,0.46,0.98,0.81,1.51,1.15
			c0.21,0.13,0.53,0.16,0.79,0.11c2.88-0.56,5.35,0.2,7.39,2.49c0.17,0.19,0.5,0.35,0.72,0.31c3.63-0.64,7.26-1.29,10.88-1.98
			c3.24-0.61,6.47-1.22,9.69-1.92c3.41-0.75,6.81-1.51,10.18-2.44c4-1.11,7.95-2.42,11.93-3.62c1.5-0.46,3.01-0.9,4.53-1.3
			c1.29-0.33,2.53-0.01,3.71,0.56c0.97,0.46,1.54,1.62,1.39,2.75c-0.01,0.1-0.02,0.22-0.07,0.3c-0.93,1.87-0.36,3.7,0.12,5.54
			c0.21,0.8,0.37,1.63,0.48,2.45c0.23,1.76-0.57,3.08-2.05,3.86c-2.64,1.39-5.47,2.04-8.3,2.7c-6.65,1.54-13.28,3.25-19.98,4.52
			c-7.85,1.49-15.81,1.94-23.78,1.89C152.57,501.79,152.2,501.83,151.6,501.86z"/>
		<g>
			<g>
				<path class="st2" d="M108.99,544.7c3.24,2.22,6.63,4.22,10.15,5.98c1.17,0.59,2.76,0.35,3.42-0.9c0.6-1.13,0.35-2.8-0.9-3.42
					c-3.51-1.76-6.9-3.76-10.15-5.98c-1.08-0.74-2.82-0.24-3.42,0.9C107.43,542.55,107.84,543.91,108.99,544.7L108.99,544.7z"/>
			</g>
		</g>
		<g>
			<g>
				<path class="st2" d="M159.29,553.91c3.64-2.55,7.52-4.74,11.58-6.55c1.2-0.53,1.57-2.37,0.9-3.42c-0.8-1.24-2.14-1.47-3.42-0.9
					c-4.06,1.81-7.94,4-11.58,6.55c-1.07,0.75-1.67,2.22-0.9,3.42C156.55,554.08,158.14,554.72,159.29,553.91L159.29,553.91z"/>
			</g>
		</g>
		<path d="M125.94,501.15c-8.9,1.04-17.38,0.03-25.85-1.3c-7.37-1.16-14.56-3.18-21.77-5.08c-2.13-0.56-4.25-1.34-6.24-2.33
			c-1.79-0.89-2.34-2.81-1.77-4.64c0.4-1.27,0.81-2.55,1.1-3.85c0.12-0.56,0.08-1.24-0.1-1.78c-1-3.07,0.25-5.1,3.31-4.98
			c1.54,0.06,3.13,0.37,4.58,0.93c6.33,2.46,12.9,3.95,19.45,5.52c5.18,1.24,10.39,2.48,15.65,3.13c5.59,0.69,11.26,0.69,16.89,0.96
			c0.29,0.01,0.64-0.25,0.89-0.48c1.17-1.04,2.25-2.21,3.48-3.16c2.3-1.8,5.43-1.75,7.78-0.01c0.08,0.06,0.16,0.11,0.24,0.18
			c1.12,0.95,2.2,1.57,3.82,1.33c2.36-0.34,4.48,0.65,6.11,2.61c0.14,0.17,0.43,0.34,0.62,0.31c4.89-0.86,9.78-1.65,14.64-2.66
			c4.8-0.99,9.58-2.08,14.32-3.35c5.27-1.41,10.49-3.06,15.72-4.63c2.06-0.62,4.09-1.22,6.19-0.13c1.05,0.55,1.91,1.65,1.47,2.72
			c-1.07,2.58-0.06,4.89,0.43,7.29c0.55,2.72,0.04,4.04-2.32,5.08c-1.8,0.79-3.67,1.46-5.55,1.97c-4.58,1.24-9.17,2.43-13.79,3.49
			c-10.72,2.48-21.58,3.54-32.55,3.54c-0.31,0-0.62,0-1.02,0c1.25,1.84,2.43,3.53,3.56,5.26c1.16,1.79,2.33,3.59,3.38,5.46
			c1.22,2.14,2.25,4.41,3.48,6.54c2.91,5.02,5.07,10.42,7.08,15.89c1.71,4.65,3.18,9.4,4.79,14.09c0.71,2.08,0.04,3.89-0.99,5.53
			c-2.92,4.64-5.96,9.19-9.55,13.29c-1.04,1.19-2.03,2.43-3.04,3.64c-1.08,1.29-2.17,1.11-2.53-0.6c-0.58-2.78-1.01-5.61-1.4-8.43
			c-0.34-2.41-0.47-4.86-0.8-7.27c-1.63-12.03-3.35-24.04-6.99-35.61c-1.26-4.01-2.72-7.95-4.09-11.92
			c-0.03-0.09-0.11-0.16-0.22-0.31c-1.8,0.87-3.7,1.06-5.6,0.5c-0.94-0.27-1.85-0.78-2.65-1.37c-0.74-0.53-1.39-0.59-1.79,0.25
			c-0.53,1.1-1.06,2.22-1.41,3.39c-1.89,6.33-3.71,12.68-5.59,19.02c-2.1,7.1-2.99,14.45-3.93,21.78
			c-0.77,5.97-1.45,11.95-2.18,17.93c-0.08,0.69-0.28,1.36-0.45,2.03c-0.17,0.71-0.51,1.45-1.23,1.4c-0.57-0.04-1.24-0.41-1.63-0.86
			c-1.42-1.63-2.65-3.46-4.11-5.04c-2.5-2.68-4.4-5.83-6.37-8.93c-0.98-1.53-2.31-2.79-2.9-4.64c-0.4-1.26-0.51-2.46-0.1-3.67
			c2.49-7.5,4.73-15.12,8.07-22.26c2.26-4.81,4.68-9.55,7.25-14.18c1.82-3.28,4.05-6.3,6.01-9.49
			C126.02,502.76,125.87,501.95,125.94,501.15z M159.01,570.39c0.11,0.03,0.22,0.05,0.34,0.08c0.2-0.27,0.39-0.54,0.59-0.8
			c0.77-0.99,1.52-2,2.31-2.98c1.23-1.52,2.59-2.93,3.72-4.53c1.74-2.46,3.32-5.05,4.98-7.58c1.21-1.85,1.69-3.7,0.73-5.95
			c-0.99-2.32-1.63-4.81-2.44-7.22c-2.05-6.08-4.29-12.07-7.08-17.83c-3.06-6.34-6.2-12.62-9.76-18.65
			c-0.55-0.93-1.17-1.81-1.69-2.6c-1.5,1.35-2.92,2.61-4.3,3.91c-0.14,0.13-0.22,0.49-0.17,0.69c0.35,1.19,0.72,2.38,1.14,3.55
			c1.06,2.97,2.38,5.86,3.19,8.91c1.89,7.05,3.96,14.09,5.18,21.28c1.36,8.04,1.86,16.24,2.73,24.37
			C158.64,566.81,158.82,568.6,159.01,570.39z M126.51,503.87c-0.73,1.29-1.48,2.54-2.18,3.83c-1.57,2.92-3.23,5.79-4.65,8.79
			c-2.72,5.78-5.5,11.53-7.85,17.48c-2.07,5.21-3.59,10.67-5.35,16.03c-0.45,1.36-0.12,2.62,0.58,3.78c0.7,1.17,1.52,2.26,2.2,3.45
			c1.77,3.09,3.84,5.93,6.09,8.63c1.27,1.53,2.48,3.1,3.8,4.75c0.1-0.38,0.21-0.66,0.25-0.95c0.26-1.82,0.56-3.63,0.75-5.45
			c0.26-2.52,0.35-5.06,0.65-7.58c0.71-5.94,1.34-11.9,2.29-17.8c1.06-6.61,2.58-13.12,4.93-19.38c0.95-2.54,1.73-5.16,2.57-7.75
			c0.58-1.76,1.13-3.53,1.71-5.34c-0.3-0.04-0.53-0.07-0.75-0.1c-1.58-0.2-1.6-0.13-2.12,1.52c-0.57,1.77-1.23,3.5-1.88,5.23
			c-0.67,1.76-1.49,3.45-2.06,5.24c-1.98,6.21-3.88,12.46-5.8,18.69c-0.55,1.79-1.03,3.59-1.56,5.39c-0.09,0.31-0.26,0.59-0.4,0.88
			c-0.2-0.33-0.24-0.57-0.2-0.8c0.74-4.47,1.34-8.94,2.72-13.3c1.79-5.64,3.58-11.27,5.86-16.7c0.25-0.6,0.45-1.24,0.75-1.81
			c0.83-1.58,1.7-3.14,2.53-4.66C128.34,505.19,127.45,504.55,126.51,503.87z M130.03,490.02c-0.35-0.03-0.53-0.04-0.72-0.05
			c-3.39-0.16-6.78-0.19-10.16-0.52c-7.54-0.72-14.99-2.02-22.36-3.92c-6.36-1.64-12.78-3.05-18.87-5.71
			c-1.04-0.45-2.19-0.68-3.31-0.87c-1.89-0.32-2.61,0.66-2.06,2.58c0.36,1.26,0.69,2.54,0.9,3.83c0.19,1.15-0.12,1.38-1.21,1.18
			c-0.05,0.27-0.1,0.54-0.15,0.82c-0.46,2.92-0.25,3.43,2.38,4.42c1.59,0.6,3.25,0.99,4.9,1.38c6.65,1.55,13.26,3.31,19.96,4.53
			c5.35,0.97,10.8,1.44,16.22,1.8c3.2,0.21,6.45-0.21,9.67-0.39c0.23-0.01,0.53-0.39,0.66-0.67c0.46-1.06,0.78-2.19,1.3-3.21
			C128.05,493.49,129.02,491.84,130.03,490.02z M151.95,500.02c0.34,0.03,0.53,0.07,0.71,0.07c8.16-0.21,16.3-0.72,24.35-2.2
			c5.68-1.05,11.3-2.44,16.93-3.77c2.99-0.7,6.02-1.35,8.89-2.43c3.15-1.19,3.12-1.55,2.26-5.17c-1.3,0.28-1.62,0-1.3-1.44
			c0.33-1.47,0.88-2.89,1.26-4.35c0.09-0.34-0.03-0.99-0.25-1.11c-0.63-0.35-1.37-0.72-2.05-0.7c-0.92,0.04-1.85,0.37-2.74,0.69
			c-2.13,0.75-4.21,1.73-6.37,2.33c-6.18,1.7-12.37,3.38-18.61,4.81c-4.23,0.97-8.54,1.54-12.83,2.18
			c-2.61,0.38-5.24,0.54-7.91,0.81C154.98,493.41,153.73,496.7,151.95,500.02z M134.97,504.93c-0.55-0.79-1.02-1.39-1.4-2.06
			c-0.13-0.24-0.01-0.63-0.01-0.96c0.34,0.04,0.68,0.03,1,0.13c0.16,0.05,0.26,0.29,0.39,0.45c0.8,1.01,1.58,2.04,2.4,3.03
			c0.83,1.02,1.82,1.28,3.08,0.96c1.67-0.43,3.08-1.32,4.36-2.48c1.24-1.13,2.44-2.31,3.6-3.53c2.41-2.53,4.1-5.42,3.72-9.24
			c-0.29-2.87-1.67-4.58-3.95-4.54c-1.02,0.02-2.06,0.53-3.03,0.96c-0.63,0.28-1.16,0.83-1.85,1.35c-0.2-1.27,0.79-1.7,1.21-2.49
			c-1.02-1.02-2.22-1.62-3.52-2.13c-1.73-0.67-3.18-0.23-4.47,0.92c-3.6,3.21-6.43,7.09-8.47,11.61c-0.76,1.68-0.8,3.44-0.19,5.18
			c0.49,1.42,1.43,2.31,2.89,2.45C132.05,504.69,133.38,504.8,134.97,504.93z"/>
	</g>
	<g>
		<path class="st0" d="M328.8,390.25c0.46,0.61,0.77,1.04,1.09,1.46c3.6,4.8,6.4,10.13,9.27,15.44c2.85,5.26,5.22,10.74,7.28,16.38
			c1.69,4.62,3.17,9.33,4.74,14c0.5,1.47,0.41,2.97-0.34,4.24c-1.31,2.23-2.79,4.34-4.21,6.49c-0.81,1.23-1.56,2.5-2.47,3.64
			c-1.54,1.93-3.18,3.75-4.76,5.64c-0.56,0.67-0.99,1.47-1.6,2.09c-0.46,0.47-1.16,1.08-1.64,0.99c-0.47-0.09-1.02-0.94-1.16-1.56
			c-0.47-2.13-0.85-4.29-1.13-6.46c-0.39-3-0.56-6.04-1.02-9.03c-1.32-8.68-2.21-17.44-4.4-25.95c-0.78-3.02-1.52-6.06-2.45-9.02
			c-1.31-4.18-2.78-8.3-4.18-12.45c-0.03-0.09-0.1-0.17-0.2-0.32c-0.29,0.09-0.59,0.19-0.89,0.28c-2.72,0.78-5.33,0.87-7.61-1.33
			c-0.5-0.48-1.33-0.32-1.59,0.36c-0.95,2.5-1.92,5-2.73,7.56c-1.36,4.32-2.61,8.67-3.87,13.02c-1.96,6.76-3.1,13.7-3.98,20.7
			c-0.87,6.91-1.68,13.82-2.54,20.73c-0.11,0.89-0.4,1.75-0.65,2.61c-0.32,1.09-1.34,1.41-2.17,0.69c-0.25-0.22-0.46-0.49-0.67-0.76
			c-1.32-1.67-2.51-3.5-3.99-4.98c-2.91-2.92-4.8-6.65-7.17-9.99c-0.77-1.09-1.48-2.25-2.06-3.47c-0.55-1.16-0.51-2.44-0.1-3.67
			c2.5-7.5,4.73-15.12,8.08-22.25c2.24-4.78,4.65-9.49,7.2-14.09c1.84-3.31,4.08-6.36,6.06-9.59c0.3-0.49,0.14-1.31,0.19-1.9
			c-3.29,0.08-6.36,0.4-9.4,0.17c-5.65-0.41-11.34-0.8-16.92-1.83c-7.18-1.32-14.28-3.2-21.39-4.95c-2.01-0.5-4.02-1.21-5.89-2.14
			c-2-1-2.61-2.85-2-4.83c0.38-1.25,0.79-2.49,1.08-3.76c0.13-0.56,0.11-1.24-0.06-1.79c-1.02-3.23,0.39-5.33,3.61-5.08
			c1.48,0.11,2.94,0.58,4.38,1c4.42,1.3,8.82,2.72,13.25,3.96c4.09,1.14,8.21,2.22,12.35,3.13c8.62,1.89,17.35,2.68,26.16,2.49
			c0.31-0.01,0.68-0.18,0.92-0.4c0.96-0.87,1.92-1.76,2.82-2.7c2.14-2.23,6.68-2.58,8.98-0.2c0.44,0.46,0.98,0.81,1.51,1.15
			c0.21,0.13,0.53,0.16,0.79,0.11c2.88-0.56,5.35,0.2,7.39,2.49c0.17,0.19,0.5,0.35,0.72,0.31c3.63-0.64,7.26-1.29,10.88-1.98
			c3.24-0.61,6.47-1.22,9.69-1.92c3.41-0.75,6.81-1.51,10.18-2.44c4-1.11,7.95-2.42,11.93-3.62c1.5-0.46,3.01-0.9,4.53-1.3
			c1.29-0.33,2.53-0.01,3.71,0.56c0.97,0.46,1.54,1.62,1.39,2.75c-0.01,0.1-0.02,0.22-0.07,0.3c-0.93,1.87-0.36,3.7,0.12,5.54
			c0.21,0.8,0.37,1.63,0.48,2.45c0.23,1.76-0.57,3.08-2.05,3.86c-2.64,1.39-5.47,2.04-8.3,2.7c-6.65,1.54-13.28,3.25-19.98,4.52
			c-7.85,1.49-15.81,1.94-23.78,1.89C329.77,390.18,329.4,390.22,328.8,390.25z"/>
		<g>
			<g>
				<path class="st3" d="M283.62,434.61c3.81,2.63,7.71,5.12,11.7,7.47c1.13,0.66,2.79,0.3,3.42-0.9c0.63-1.2,0.31-2.71-0.9-3.42
					c-3.99-2.34-7.89-4.83-11.7-7.47c-1.08-0.75-2.82-0.23-3.42,0.9C282.05,432.47,282.47,433.81,283.62,434.61L283.62,434.61z"/>
			</g>
		</g>
		<g>
			<g>
				<path class="st3" d="M335.97,442.6c3.69-2.09,7.38-4.17,11.07-6.26c1.14-0.64,1.62-2.3,0.9-3.42c-0.74-1.15-2.2-1.59-3.42-0.9
					c-3.69,2.09-7.38,4.17-11.07,6.26c-1.14,0.64-1.62,2.3-0.9,3.42C333.3,442.85,334.76,443.29,335.97,442.6L335.97,442.6z"/>
			</g>
		</g>
		<path d="M301.96,389.54c-8.9,1.04-17.38,0.03-25.85-1.3c-7.37-1.16-14.56-3.18-21.77-5.08c-2.13-0.56-4.25-1.34-6.24-2.33
			c-1.79-0.89-2.34-2.81-1.77-4.64c0.4-1.27,0.81-2.55,1.1-3.85c0.12-0.56,0.08-1.24-0.1-1.78c-1-3.07,0.25-5.1,3.31-4.98
			c1.54,0.06,3.13,0.37,4.58,0.93c6.33,2.46,12.9,3.95,19.45,5.52c5.18,1.24,10.39,2.48,15.65,3.13c5.59,0.69,11.26,0.69,16.89,0.96
			c0.29,0.01,0.64-0.25,0.89-0.48c1.17-1.04,2.25-2.21,3.48-3.16c2.3-1.8,5.43-1.75,7.78-0.01c0.08,0.06,0.16,0.11,0.24,0.18
			c1.12,0.95,2.2,1.57,3.82,1.33c2.36-0.34,4.48,0.65,6.11,2.61c0.14,0.17,0.43,0.34,0.62,0.31c4.89-0.86,9.78-1.65,14.64-2.66
			c4.8-0.99,9.58-2.08,14.32-3.35c5.27-1.41,10.49-3.06,15.72-4.63c2.06-0.62,4.09-1.22,6.19-0.13c1.05,0.55,1.91,1.65,1.47,2.72
			c-1.07,2.58-0.06,4.89,0.43,7.29c0.55,2.72,0.04,4.04-2.32,5.08c-1.8,0.79-3.67,1.46-5.55,1.97c-4.58,1.24-9.17,2.43-13.79,3.49
			c-10.72,2.48-21.58,3.54-32.55,3.54c-0.31,0-0.62,0-1.02,0c1.25,1.84,2.43,3.53,3.56,5.26c1.16,1.79,2.33,3.59,3.38,5.46
			c1.22,2.14,2.25,4.41,3.48,6.54c2.91,5.02,5.07,10.42,7.08,15.89c1.71,4.65,3.18,9.4,4.79,14.09c0.71,2.08,0.04,3.89-0.99,5.53
			c-2.92,4.64-5.96,9.19-9.55,13.29c-1.04,1.19-2.03,2.43-3.04,3.64c-1.08,1.29-2.17,1.11-2.53-0.6c-0.58-2.78-1.01-5.61-1.4-8.43
			c-0.34-2.41-0.47-4.86-0.8-7.27c-1.63-12.03-3.35-24.04-6.99-35.61c-1.26-4.01-2.72-7.95-4.09-11.92
			c-0.03-0.09-0.11-0.16-0.22-0.31c-1.8,0.87-3.7,1.06-5.6,0.5c-0.94-0.27-1.85-0.78-2.65-1.37c-0.74-0.53-1.39-0.59-1.79,0.25
			c-0.53,1.1-1.06,2.22-1.41,3.39c-1.89,6.33-3.71,12.68-5.59,19.02c-2.1,7.1-2.99,14.45-3.93,21.78
			c-0.77,5.97-1.45,11.95-2.18,17.93c-0.08,0.69-0.28,1.36-0.45,2.03c-0.17,0.71-0.51,1.45-1.23,1.4c-0.57-0.04-1.24-0.41-1.63-0.86
			c-1.42-1.63-2.65-3.46-4.11-5.04c-2.5-2.68-4.4-5.83-6.37-8.93c-0.98-1.53-2.31-2.79-2.9-4.64c-0.4-1.26-0.51-2.46-0.1-3.67
			c2.49-7.5,4.73-15.12,8.07-22.26c2.26-4.81,4.68-9.55,7.25-14.18c1.82-3.28,4.05-6.3,6.01-9.49
			C302.04,391.15,301.89,390.34,301.96,389.54z M335.02,458.78c0.11,0.03,0.22,0.05,0.34,0.08c0.2-0.27,0.39-0.54,0.59-0.8
			c0.77-0.99,1.52-2,2.31-2.98c1.23-1.52,2.59-2.93,3.72-4.53c1.74-2.46,3.32-5.05,4.98-7.58c1.21-1.85,1.69-3.7,0.73-5.95
			c-0.99-2.32-1.63-4.81-2.44-7.22c-2.05-6.08-4.29-12.07-7.08-17.83c-3.06-6.34-6.2-12.62-9.76-18.65
			c-0.55-0.93-1.17-1.81-1.69-2.6c-1.5,1.35-2.92,2.61-4.3,3.91c-0.14,0.13-0.22,0.49-0.17,0.69c0.35,1.19,0.72,2.38,1.14,3.55
			c1.06,2.97,2.38,5.86,3.19,8.91c1.89,7.05,3.96,14.09,5.18,21.28c1.36,8.04,1.86,16.24,2.73,24.37
			C334.66,455.2,334.84,456.99,335.02,458.78z M302.53,392.26c-0.73,1.29-1.48,2.54-2.18,3.83c-1.57,2.92-3.23,5.79-4.65,8.79
			c-2.72,5.78-5.5,11.53-7.85,17.48c-2.07,5.21-3.59,10.67-5.35,16.03c-0.45,1.36-0.12,2.62,0.58,3.78c0.7,1.17,1.52,2.26,2.2,3.45
			c1.77,3.09,3.84,5.93,6.09,8.63c1.27,1.53,2.48,3.1,3.8,4.75c0.1-0.38,0.21-0.66,0.25-0.95c0.26-1.82,0.56-3.63,0.75-5.45
			c0.26-2.52,0.35-5.06,0.65-7.58c0.71-5.94,1.34-11.9,2.29-17.8c1.06-6.61,2.58-13.12,4.93-19.38c0.95-2.54,1.73-5.16,2.57-7.75
			c0.58-1.76,1.13-3.53,1.71-5.34c-0.3-0.04-0.53-0.07-0.75-0.1c-1.58-0.2-1.6-0.13-2.12,1.52c-0.57,1.77-1.23,3.5-1.88,5.23
			c-0.67,1.76-1.49,3.45-2.06,5.24c-1.98,6.21-3.88,12.46-5.8,18.69c-0.55,1.79-1.03,3.59-1.56,5.39c-0.09,0.31-0.26,0.59-0.4,0.88
			c-0.2-0.33-0.24-0.57-0.2-0.8c0.74-4.47,1.34-8.94,2.72-13.3c1.79-5.64,3.58-11.27,5.86-16.7c0.25-0.6,0.45-1.24,0.75-1.81
			c0.83-1.58,1.7-3.14,2.53-4.66C304.35,393.57,303.47,392.93,302.53,392.26z M306.05,378.41c-0.35-0.03-0.54-0.04-0.72-0.05
			c-3.39-0.16-6.78-0.19-10.16-0.52c-7.54-0.72-14.99-2.02-22.36-3.92c-6.36-1.64-12.78-3.05-18.87-5.71
			c-1.04-0.45-2.19-0.68-3.31-0.87c-1.89-0.32-2.61,0.66-2.06,2.58c0.36,1.26,0.69,2.54,0.9,3.83c0.19,1.15-0.12,1.38-1.21,1.18
			c-0.05,0.27-0.1,0.54-0.15,0.82c-0.46,2.92-0.25,3.43,2.38,4.42c1.59,0.6,3.25,0.99,4.9,1.38c6.65,1.55,13.26,3.31,19.96,4.53
			c5.35,0.97,10.8,1.44,16.22,1.8c3.2,0.21,6.45-0.21,9.67-0.39c0.23-0.01,0.53-0.39,0.66-0.67c0.46-1.06,0.78-2.19,1.3-3.21
			C304.06,381.88,305.04,380.23,306.05,378.41z M327.97,388.41c0.34,0.03,0.53,0.07,0.71,0.07c8.16-0.21,16.3-0.72,24.35-2.2
			c5.68-1.05,11.3-2.44,16.93-3.77c2.99-0.7,6.02-1.35,8.89-2.43c3.15-1.19,3.12-1.55,2.26-5.17c-1.3,0.28-1.62,0-1.3-1.44
			c0.33-1.47,0.88-2.89,1.26-4.35c0.09-0.34-0.03-0.99-0.25-1.11c-0.63-0.35-1.37-0.72-2.05-0.7c-0.92,0.04-1.85,0.37-2.74,0.69
			c-2.13,0.75-4.21,1.73-6.37,2.33c-6.18,1.7-12.37,3.38-18.61,4.81c-4.23,0.97-8.54,1.54-12.83,2.18
			c-2.61,0.38-5.24,0.54-7.91,0.81C330.99,381.8,329.74,385.09,327.97,388.41z M310.98,393.32c-0.55-0.79-1.02-1.39-1.4-2.06
			c-0.13-0.24-0.01-0.63-0.01-0.96c0.33,0.04,0.68,0.03,1,0.13c0.16,0.05,0.26,0.29,0.39,0.45c0.8,1.01,1.58,2.04,2.4,3.03
			c0.83,1.02,1.82,1.28,3.08,0.96c1.67-0.43,3.08-1.32,4.36-2.48c1.24-1.13,2.44-2.31,3.6-3.53c2.41-2.53,4.1-5.42,3.72-9.24
			c-0.29-2.87-1.67-4.58-3.95-4.54c-1.02,0.02-2.06,0.53-3.03,0.96c-0.63,0.28-1.16,0.83-1.85,1.35c-0.2-1.27,0.79-1.7,1.21-2.49
			c-1.02-1.02-2.22-1.62-3.52-2.13c-1.73-0.67-3.18-0.23-4.47,0.92c-3.6,3.21-6.43,7.09-8.47,11.61c-0.76,1.68-0.8,3.44-0.19,5.18
			c0.49,1.42,1.43,2.31,2.89,2.45C308.07,393.08,309.4,393.18,310.98,393.32z"/>
	</g>
	<path d="M298.37,284.93c-8.9,1.04-17.38,0.03-25.85-1.3c-7.37-1.16-14.56-3.18-21.77-5.08c-2.13-0.56-4.25-1.34-6.24-2.33
		c-1.79-0.89-2.34-2.81-1.77-4.64c0.4-1.27,0.81-2.55,1.1-3.85c0.12-0.56,0.08-1.24-0.1-1.78c-1-3.07,0.25-5.1,3.31-4.98
		c1.54,0.06,3.13,0.37,4.58,0.93c6.33,2.46,12.9,3.95,19.45,5.52c5.18,1.24,10.39,2.48,15.65,3.13c5.59,0.69,11.26,0.69,16.89,0.96
		c0.29,0.01,0.64-0.25,0.89-0.48c1.17-1.04,2.25-2.21,3.48-3.16c2.3-1.8,5.43-1.75,7.78-0.01c0.08,0.06,0.16,0.11,0.24,0.18
		c1.12,0.95,2.2,1.57,3.82,1.33c2.36-0.34,4.48,0.65,6.11,2.61c0.14,0.17,0.43,0.34,0.62,0.31c4.89-0.86,9.78-1.65,14.64-2.66
		c4.8-0.99,9.58-2.08,14.32-3.35c5.27-1.41,10.49-3.06,15.72-4.63c2.06-0.62,4.09-1.22,6.19-0.13c1.05,0.55,1.91,1.65,1.47,2.72
		c-1.07,2.58-0.06,4.89,0.43,7.29c0.55,2.72,0.04,4.04-2.32,5.08c-1.8,0.79-3.67,1.46-5.55,1.97c-4.58,1.24-9.17,2.43-13.79,3.49
		c-10.72,2.48-21.58,3.54-32.55,3.54c-0.31,0-0.62,0-1.02,0c1.25,1.84,2.43,3.53,3.56,5.26c1.16,1.79,2.33,3.59,3.38,5.46
		c1.22,2.14,2.25,4.41,3.48,6.54c2.91,5.02,5.07,10.42,7.08,15.89c1.71,4.65,3.18,9.4,4.79,14.09c0.71,2.08,0.04,3.89-0.99,5.53
		c-2.92,4.64-5.96,9.19-9.55,13.29c-1.04,1.19-2.03,2.43-3.04,3.64c-1.08,1.29-2.17,1.11-2.53-0.6c-0.58-2.78-1.01-5.61-1.4-8.43
		c-0.34-2.41-0.47-4.86-0.8-7.27c-1.63-12.03-3.35-24.04-6.99-35.61c-1.26-4.01-2.72-7.95-4.09-11.92
		c-0.03-0.09-0.11-0.16-0.22-0.31c-1.8,0.87-3.7,1.06-5.6,0.5c-0.94-0.27-1.85-0.78-2.65-1.37c-0.74-0.53-1.39-0.59-1.79,0.25
		c-0.53,1.1-1.06,2.22-1.41,3.39c-1.89,6.33-3.71,12.68-5.59,19.02c-2.1,7.1-2.99,14.45-3.93,21.78
		c-0.77,5.97-1.45,11.95-2.18,17.93c-0.08,0.69-0.28,1.36-0.45,2.03c-0.17,0.71-0.51,1.45-1.23,1.4c-0.57-0.04-1.24-0.41-1.63-0.86
		c-1.42-1.63-2.65-3.46-4.11-5.04c-2.5-2.68-4.4-5.83-6.37-8.93c-0.98-1.53-2.31-2.79-2.9-4.64c-0.4-1.26-0.51-2.46-0.1-3.67
		c2.49-7.5,4.73-15.12,8.07-22.26c2.26-4.81,4.68-9.55,7.25-14.18c1.82-3.28,4.05-6.3,6.01-9.49
		C298.46,286.54,298.3,285.72,298.37,284.93z M331.44,354.16c0.11,0.03,0.22,0.05,0.34,0.08c0.2-0.27,0.39-0.54,0.59-0.8
		c0.77-0.99,1.52-2,2.31-2.98c1.23-1.52,2.59-2.93,3.72-4.53c1.74-2.46,3.32-5.05,4.98-7.58c1.21-1.85,1.69-3.7,0.73-5.95
		c-0.99-2.32-1.63-4.81-2.44-7.22c-2.05-6.08-4.29-12.07-7.08-17.83c-3.06-6.34-6.2-12.62-9.76-18.65c-0.55-0.93-1.17-1.81-1.69-2.6
		c-1.5,1.35-2.92,2.61-4.3,3.91c-0.14,0.13-0.22,0.49-0.17,0.69c0.35,1.19,0.72,2.38,1.14,3.55c1.06,2.97,2.38,5.86,3.19,8.91
		c1.89,7.05,3.96,14.09,5.18,21.28c1.36,8.04,1.86,16.24,2.73,24.37C331.08,350.59,331.26,352.38,331.44,354.16z M298.95,287.64
		c-0.73,1.29-1.48,2.54-2.18,3.83c-1.57,2.92-3.23,5.79-4.65,8.79c-2.72,5.78-5.5,11.53-7.85,17.48
		c-2.07,5.21-3.59,10.67-5.35,16.03c-0.45,1.36-0.12,2.62,0.58,3.78c0.7,1.17,1.52,2.26,2.2,3.45c1.77,3.09,3.84,5.93,6.09,8.63
		c1.27,1.53,2.48,3.1,3.8,4.75c0.1-0.38,0.21-0.66,0.25-0.95c0.26-1.82,0.56-3.63,0.75-5.45c0.26-2.52,0.35-5.06,0.65-7.58
		c0.71-5.94,1.34-11.9,2.29-17.8c1.06-6.61,2.58-13.12,4.93-19.38c0.95-2.54,1.73-5.16,2.57-7.75c0.58-1.76,1.13-3.53,1.71-5.34
		c-0.3-0.04-0.53-0.07-0.75-0.1c-1.58-0.2-1.6-0.13-2.12,1.52c-0.57,1.77-1.23,3.5-1.88,5.23c-0.67,1.76-1.49,3.45-2.06,5.24
		c-1.98,6.21-3.88,12.46-5.8,18.69c-0.55,1.79-1.03,3.59-1.56,5.39c-0.09,0.31-0.26,0.59-0.4,0.88c-0.2-0.33-0.24-0.57-0.2-0.8
		c0.74-4.47,1.34-8.94,2.72-13.3c1.79-5.64,3.58-11.27,5.86-16.7c0.25-0.6,0.45-1.24,0.75-1.81c0.83-1.58,1.7-3.14,2.53-4.66
		C300.77,288.96,299.89,288.32,298.95,287.64z M302.47,273.79c-0.35-0.03-0.54-0.04-0.72-0.05c-3.39-0.16-6.78-0.19-10.16-0.52
		c-7.54-0.72-14.99-2.02-22.36-3.92c-6.36-1.64-12.78-3.05-18.87-5.71c-1.04-0.45-2.19-0.68-3.31-0.87
		c-1.89-0.32-2.61,0.66-2.06,2.58c0.36,1.26,0.69,2.54,0.9,3.83c0.19,1.15-0.12,1.38-1.21,1.18c-0.05,0.27-0.1,0.54-0.15,0.82
		c-0.46,2.92-0.25,3.43,2.38,4.42c1.59,0.6,3.25,0.99,4.9,1.38c6.65,1.55,13.26,3.31,19.96,4.53c5.35,0.97,10.8,1.44,16.22,1.8
		c3.2,0.21,6.45-0.21,9.67-0.39c0.23-0.01,0.53-0.39,0.66-0.67c0.46-1.06,0.78-2.19,1.3-3.21
		C300.48,277.26,301.46,275.62,302.47,273.79z M324.39,283.79c0.34,0.03,0.53,0.07,0.71,0.07c8.16-0.21,16.3-0.72,24.35-2.2
		c5.68-1.05,11.3-2.44,16.93-3.77c2.99-0.7,6.02-1.35,8.89-2.43c3.15-1.19,3.12-1.55,2.26-5.17c-1.3,0.28-1.62,0-1.3-1.44
		c0.33-1.47,0.88-2.89,1.26-4.35c0.09-0.34-0.03-0.99-0.25-1.11c-0.63-0.35-1.37-0.72-2.05-0.7c-0.92,0.04-1.85,0.37-2.74,0.69
		c-2.13,0.75-4.21,1.73-6.37,2.33c-6.18,1.7-12.37,3.38-18.61,4.81c-4.23,0.97-8.54,1.54-12.83,2.18c-2.61,0.38-5.24,0.54-7.91,0.81
		C327.41,277.19,326.16,280.48,324.39,283.79z M307.4,288.71c-0.55-0.79-1.02-1.39-1.4-2.06c-0.13-0.24-0.01-0.63-0.01-0.96
		c0.33,0.04,0.68,0.03,1,0.13c0.16,0.05,0.26,0.29,0.39,0.45c0.8,1.01,1.58,2.04,2.4,3.03c0.83,1.02,1.82,1.28,3.08,0.96
		c1.67-0.43,3.08-1.32,4.36-2.48c1.24-1.13,2.44-2.31,3.6-3.53c2.41-2.53,4.1-5.42,3.72-9.24c-0.29-2.87-1.67-4.58-3.95-4.54
		c-1.02,0.02-2.06,0.53-3.03,0.96c-0.63,0.28-1.16,0.83-1.85,1.35c-0.2-1.27,0.79-1.7,1.21-2.49c-1.02-1.02-2.22-1.62-3.52-2.13
		c-1.73-0.67-3.18-0.23-4.47,0.92c-3.6,3.21-6.42,7.09-8.47,11.61c-0.76,1.68-0.8,3.44-0.19,5.18c0.49,1.42,1.43,2.31,2.89,2.45
		C304.48,288.47,305.81,288.57,307.4,288.71z"/>
	<g>
		<path class="st6" d="M145.3,278.63c0.46,0.61,0.77,1.04,1.09,1.46c3.6,4.8,6.4,10.13,9.27,15.44c2.85,5.26,5.22,10.74,7.28,16.38
			c1.69,4.62,3.17,9.33,4.74,14c0.5,1.47,0.41,2.97-0.34,4.24c-1.31,2.23-2.79,4.34-4.21,6.49c-0.81,1.23-1.56,2.5-2.47,3.64
			c-1.54,1.93-3.18,3.75-4.76,5.64c-0.56,0.67-0.99,1.47-1.6,2.09c-0.46,0.47-1.16,1.08-1.64,0.99c-0.47-0.09-1.02-0.94-1.16-1.56
			c-0.47-2.13-0.85-4.29-1.13-6.46c-0.39-3-0.56-6.04-1.02-9.03c-1.32-8.68-2.21-17.44-4.4-25.95c-0.78-3.02-1.52-6.06-2.45-9.02
			c-1.31-4.18-2.78-8.3-4.18-12.45c-0.03-0.09-0.1-0.17-0.2-0.32c-0.29,0.09-0.59,0.19-0.89,0.28c-2.72,0.78-5.33,0.87-7.61-1.33
			c-0.5-0.48-1.33-0.32-1.59,0.36c-0.95,2.5-1.92,5-2.73,7.56c-1.36,4.32-2.61,8.67-3.87,13.02c-1.96,6.76-3.1,13.7-3.98,20.7
			c-0.87,6.91-1.68,13.82-2.54,20.73c-0.11,0.89-0.4,1.75-0.65,2.61c-0.32,1.09-1.34,1.41-2.17,0.69c-0.25-0.22-0.46-0.49-0.67-0.76
			c-1.32-1.67-2.51-3.5-3.99-4.98c-2.91-2.92-4.8-6.65-7.17-9.99c-0.77-1.09-1.48-2.25-2.06-3.47c-0.55-1.16-0.51-2.44-0.1-3.67
			c2.5-7.5,4.73-15.12,8.08-22.25c2.24-4.78,4.65-9.49,7.2-14.09c1.84-3.31,4.08-6.36,6.06-9.59c0.3-0.49,0.14-1.31,0.19-1.9
			c-3.29,0.08-6.36,0.4-9.4,0.17c-5.65-0.41-11.34-0.8-16.92-1.83c-7.18-1.32-14.28-3.2-21.39-4.95c-2.01-0.5-4.02-1.21-5.89-2.14
			c-2-1-2.61-2.85-2-4.83c0.38-1.25,0.79-2.49,1.08-3.76c0.13-0.56,0.11-1.24-0.06-1.79c-1.02-3.23,0.39-5.33,3.61-5.08
			c1.48,0.11,2.94,0.58,4.38,1c4.42,1.3,8.82,2.72,13.25,3.96c4.09,1.14,8.21,2.22,12.35,3.13c8.62,1.89,17.35,2.68,26.16,2.49
			c0.31-0.01,0.68-0.18,0.92-0.4c0.96-0.87,1.92-1.76,2.82-2.7c2.14-2.23,6.68-2.58,8.98-0.2c0.44,0.46,0.98,0.81,1.51,1.15
			c0.21,0.13,0.53,0.16,0.79,0.11c2.88-0.56,5.35,0.2,7.39,2.49c0.17,0.19,0.5,0.35,0.72,0.31c3.63-0.64,7.26-1.29,10.88-1.98
			c3.24-0.61,6.47-1.22,9.69-1.92c3.41-0.75,6.81-1.51,10.18-2.44c4-1.11,7.95-2.42,11.93-3.62c1.5-0.46,3.01-0.9,4.53-1.3
			c1.29-0.33,2.53-0.01,3.71,0.56c0.97,0.46,1.54,1.62,1.39,2.75c-0.01,0.1-0.02,0.22-0.07,0.3c-0.93,1.87-0.36,3.7,0.12,5.54
			c0.21,0.8,0.37,1.63,0.48,2.45c0.23,1.76-0.57,3.08-2.05,3.86c-2.64,1.39-5.47,2.04-8.3,2.7c-6.65,1.54-13.28,3.25-19.98,4.52
			c-7.85,1.49-15.81,1.94-23.78,1.89C146.27,278.56,145.9,278.6,145.3,278.63z"/>
		<g>
			<g>
				<path class="st1" d="M101.62,322.18c3.73,2.65,7.65,5,11.75,7.03c1.17,0.58,2.76,0.35,3.42-0.9c0.6-1.13,0.35-2.8-0.9-3.42
					c-4.1-2.03-8.03-4.38-11.75-7.03c-1.07-0.76-2.83-0.22-3.42,0.9C100.04,320.04,100.48,321.37,101.62,322.18L101.62,322.18z"/>
			</g>
		</g>
		<g>
			<g>
				<path class="st1" d="M153.21,331.59c2-1.04,3.89-2.31,5.81-3.5c2.01-1.25,4.01-2.5,6.02-3.75c1.11-0.69,1.64-2.26,0.9-3.42
					c-0.72-1.11-2.23-1.64-3.42-0.9c-2.01,1.25-4.01,2.5-6.02,3.75c-1.92,1.19-3.81,2.46-5.81,3.5c-1.16,0.61-1.6,2.32-0.9,3.42
					C150.56,331.88,151.97,332.24,153.21,331.59L153.21,331.59z"/>
			</g>
		</g>
		<path d="M119.64,277.93c-8.9,1.04-17.38,0.03-25.85-1.3c-7.37-1.16-14.56-3.18-21.77-5.08c-2.13-0.56-4.25-1.34-6.24-2.33
			c-1.79-0.89-2.34-2.81-1.77-4.64c0.4-1.27,0.81-2.55,1.1-3.85c0.12-0.56,0.08-1.24-0.1-1.78c-1-3.07,0.25-5.1,3.31-4.98
			c1.54,0.06,3.13,0.37,4.58,0.93c6.33,2.46,12.9,3.95,19.45,5.52c5.18,1.24,10.39,2.48,15.65,3.13c5.59,0.69,11.26,0.69,16.89,0.96
			c0.29,0.01,0.64-0.25,0.89-0.48c1.17-1.04,2.25-2.21,3.48-3.16c2.3-1.8,5.43-1.75,7.78-0.01c0.08,0.06,0.16,0.11,0.24,0.18
			c1.12,0.95,2.2,1.57,3.82,1.33c2.36-0.34,4.48,0.65,6.11,2.61c0.14,0.17,0.43,0.34,0.62,0.31c4.89-0.86,9.78-1.65,14.64-2.66
			c4.8-0.99,9.58-2.08,14.32-3.35c5.27-1.41,10.49-3.06,15.72-4.63c2.06-0.62,4.09-1.22,6.19-0.13c1.05,0.55,1.91,1.65,1.47,2.72
			c-1.07,2.58-0.06,4.89,0.43,7.29c0.55,2.72,0.04,4.04-2.32,5.08c-1.8,0.79-3.67,1.46-5.55,1.97c-4.58,1.24-9.17,2.43-13.79,3.49
			c-10.72,2.48-21.58,3.54-32.55,3.54c-0.31,0-0.62,0-1.02,0c1.25,1.84,2.43,3.53,3.56,5.26c1.16,1.79,2.33,3.59,3.38,5.46
			c1.22,2.14,2.25,4.41,3.48,6.54c2.91,5.02,5.07,10.42,7.08,15.89c1.71,4.65,3.18,9.4,4.79,14.09c0.71,2.08,0.04,3.89-0.99,5.53
			c-2.92,4.64-5.96,9.19-9.55,13.29c-1.04,1.19-2.03,2.43-3.04,3.64c-1.08,1.29-2.17,1.11-2.53-0.6c-0.58-2.78-1.01-5.61-1.4-8.43
			c-0.34-2.41-0.47-4.86-0.8-7.27c-1.63-12.03-3.35-24.04-6.99-35.61c-1.26-4.01-2.72-7.95-4.09-11.92
			c-0.03-0.09-0.11-0.16-0.22-0.31c-1.8,0.87-3.7,1.06-5.6,0.5c-0.94-0.27-1.85-0.78-2.65-1.37c-0.74-0.53-1.39-0.59-1.79,0.25
			c-0.53,1.1-1.06,2.22-1.41,3.39c-1.89,6.33-3.71,12.68-5.59,19.02c-2.1,7.1-2.99,14.45-3.93,21.78
			c-0.77,5.97-1.45,11.95-2.18,17.93c-0.08,0.69-0.28,1.36-0.45,2.03c-0.17,0.71-0.51,1.45-1.23,1.4c-0.57-0.04-1.24-0.41-1.63-0.86
			c-1.42-1.63-2.65-3.46-4.11-5.04c-2.5-2.68-4.4-5.83-6.37-8.93c-0.98-1.53-2.31-2.79-2.9-4.64c-0.4-1.26-0.51-2.46-0.1-3.67
			c2.49-7.5,4.73-15.12,8.07-22.26c2.26-4.81,4.68-9.55,7.25-14.18c1.82-3.28,4.05-6.3,6.01-9.49
			C119.72,279.54,119.57,278.72,119.64,277.93z M152.71,347.16c0.11,0.03,0.22,0.05,0.34,0.08c0.2-0.27,0.39-0.54,0.59-0.8
			c0.77-0.99,1.52-2,2.31-2.98c1.23-1.52,2.59-2.93,3.72-4.53c1.74-2.46,3.32-5.05,4.98-7.58c1.21-1.85,1.69-3.7,0.73-5.95
			c-0.99-2.32-1.63-4.81-2.44-7.22c-2.05-6.08-4.29-12.07-7.08-17.83c-3.06-6.34-6.2-12.62-9.76-18.65
			c-0.55-0.93-1.17-1.81-1.69-2.6c-1.5,1.35-2.92,2.61-4.3,3.91c-0.14,0.13-0.22,0.49-0.17,0.69c0.35,1.19,0.72,2.38,1.14,3.55
			c1.06,2.97,2.38,5.86,3.19,8.91c1.89,7.05,3.96,14.09,5.18,21.28c1.36,8.04,1.86,16.24,2.73,24.37
			C152.34,343.59,152.52,345.38,152.71,347.16z M120.21,280.64c-0.73,1.29-1.48,2.54-2.18,3.83c-1.57,2.92-3.23,5.79-4.65,8.79
			c-2.72,5.78-5.5,11.53-7.85,17.48c-2.07,5.21-3.59,10.67-5.35,16.03c-0.45,1.36-0.12,2.62,0.58,3.78c0.7,1.17,1.52,2.26,2.2,3.45
			c1.77,3.09,3.84,5.93,6.09,8.63c1.27,1.53,2.48,3.1,3.8,4.75c0.1-0.38,0.21-0.66,0.25-0.95c0.26-1.82,0.56-3.63,0.75-5.45
			c0.26-2.52,0.35-5.06,0.65-7.58c0.71-5.94,1.34-11.9,2.29-17.8c1.06-6.61,2.58-13.12,4.93-19.38c0.95-2.54,1.73-5.16,2.57-7.75
			c0.58-1.76,1.13-3.53,1.71-5.34c-0.3-0.04-0.53-0.07-0.75-0.1c-1.58-0.2-1.6-0.13-2.12,1.52c-0.57,1.77-1.23,3.5-1.88,5.23
			c-0.67,1.76-1.49,3.45-2.06,5.24c-1.98,6.21-3.88,12.46-5.8,18.69c-0.55,1.79-1.03,3.59-1.56,5.39c-0.09,0.31-0.26,0.59-0.4,0.88
			c-0.2-0.33-0.24-0.57-0.2-0.8c0.74-4.47,1.34-8.94,2.72-13.3c1.79-5.64,3.58-11.27,5.86-16.7c0.25-0.6,0.45-1.24,0.75-1.81
			c0.83-1.58,1.7-3.14,2.53-4.66C122.04,281.96,121.15,281.32,120.21,280.64z M123.73,266.79c-0.35-0.03-0.53-0.04-0.72-0.05
			c-3.39-0.16-6.78-0.19-10.16-0.52c-7.54-0.72-14.99-2.02-22.36-3.92c-6.36-1.64-12.78-3.05-18.87-5.71
			c-1.04-0.45-2.19-0.68-3.31-0.87c-1.89-0.32-2.61,0.66-2.06,2.58c0.36,1.26,0.69,2.54,0.9,3.83c0.19,1.15-0.12,1.38-1.21,1.18
			c-0.05,0.27-0.1,0.54-0.15,0.82c-0.46,2.92-0.25,3.43,2.38,4.42c1.59,0.6,3.25,0.99,4.9,1.38c6.65,1.55,13.26,3.31,19.96,4.53
			c5.35,0.97,10.8,1.44,16.22,1.8c3.2,0.21,6.45-0.21,9.67-0.39c0.23-0.01,0.53-0.39,0.66-0.67c0.46-1.06,0.78-2.19,1.3-3.21
			C121.75,270.26,122.72,268.62,123.73,266.79z M145.65,276.79c0.34,0.03,0.53,0.07,0.71,0.07c8.16-0.21,16.3-0.72,24.35-2.2
			c5.68-1.05,11.3-2.44,16.93-3.77c2.99-0.7,6.02-1.35,8.89-2.43c3.15-1.19,3.12-1.55,2.26-5.17c-1.3,0.28-1.62,0-1.3-1.44
			c0.33-1.47,0.88-2.89,1.26-4.35c0.09-0.34-0.03-0.99-0.25-1.11c-0.63-0.35-1.37-0.72-2.05-0.7c-0.92,0.04-1.85,0.37-2.74,0.69
			c-2.13,0.75-4.21,1.73-6.37,2.33c-6.18,1.7-12.37,3.38-18.61,4.81c-4.23,0.97-8.54,1.54-12.83,2.18
			c-2.61,0.38-5.24,0.54-7.91,0.81C148.68,270.19,147.43,273.48,145.65,276.79z M128.67,281.71c-0.55-0.79-1.02-1.39-1.4-2.06
			c-0.13-0.24-0.01-0.63-0.01-0.96c0.33,0.04,0.68,0.03,1,0.13c0.16,0.05,0.26,0.29,0.39,0.45c0.8,1.01,1.58,2.04,2.4,3.03
			c0.83,1.02,1.82,1.28,3.08,0.96c1.67-0.43,3.08-1.32,4.36-2.48c1.24-1.13,2.44-2.31,3.6-3.53c2.41-2.53,4.1-5.42,3.72-9.24
			c-0.29-2.87-1.67-4.58-3.95-4.54c-1.02,0.02-2.06,0.53-3.03,0.96c-0.63,0.28-1.16,0.83-1.85,1.35c-0.2-1.27,0.79-1.7,1.21-2.49
			c-1.02-1.02-2.22-1.62-3.52-2.13c-1.73-0.67-3.18-0.23-4.47,0.92c-3.6,3.21-6.43,7.09-8.47,11.61c-0.76,1.68-0.8,3.44-0.19,5.18
			c0.49,1.42,1.43,2.31,2.89,2.45C125.75,281.47,127.08,281.57,128.67,281.71z"/>
	</g>
	<g>
		<path class="st4" d="M316.78,149.1c0.46,0.61,0.77,1.04,1.09,1.46c3.6,4.8,6.4,10.13,9.27,15.44c2.85,5.26,5.22,10.74,7.28,16.38
			c1.69,4.62,3.17,9.33,4.74,14c0.5,1.47,0.41,2.97-0.34,4.24c-1.31,2.23-2.79,4.34-4.21,6.49c-0.81,1.23-1.56,2.5-2.47,3.64
			c-1.54,1.93-3.18,3.75-4.76,5.64c-0.56,0.67-0.99,1.47-1.6,2.09c-0.46,0.47-1.16,1.08-1.64,0.99c-0.47-0.09-1.02-0.94-1.16-1.56
			c-0.47-2.13-0.85-4.29-1.13-6.46c-0.39-3-0.56-6.04-1.02-9.03c-1.32-8.68-2.21-17.44-4.4-25.95c-0.78-3.02-1.52-6.06-2.45-9.02
			c-1.31-4.18-2.78-8.3-4.18-12.45c-0.03-0.09-0.1-0.17-0.2-0.32c-0.29,0.09-0.59,0.19-0.89,0.28c-2.72,0.78-5.33,0.87-7.61-1.33
			c-0.5-0.48-1.33-0.32-1.59,0.36c-0.95,2.5-1.92,5-2.73,7.56c-1.36,4.32-2.61,8.67-3.87,13.02c-1.96,6.76-3.1,13.7-3.98,20.7
			c-0.87,6.91-1.68,13.82-2.54,20.73c-0.11,0.89-0.4,1.75-0.65,2.61c-0.32,1.09-1.34,1.41-2.17,0.69c-0.25-0.22-0.46-0.49-0.67-0.76
			c-1.32-1.67-2.51-3.5-3.99-4.98c-2.91-2.92-4.8-6.65-7.17-9.99c-0.77-1.09-1.48-2.25-2.06-3.47c-0.55-1.16-0.51-2.44-0.1-3.67
			c2.5-7.5,4.73-15.12,8.08-22.25c2.24-4.78,4.65-9.49,7.2-14.09c1.84-3.31,4.08-6.36,6.06-9.59c0.3-0.49,0.14-1.31,0.19-1.9
			c-3.29,0.08-6.36,0.4-9.4,0.17c-5.65-0.41-11.34-0.8-16.92-1.83c-7.18-1.32-14.28-3.2-21.39-4.95c-2.01-0.5-4.02-1.21-5.89-2.14
			c-2-1-2.61-2.85-2-4.83c0.38-1.25,0.79-2.49,1.08-3.76c0.13-0.56,0.11-1.24-0.06-1.79c-1.02-3.23,0.39-5.33,3.61-5.08
			c1.48,0.11,2.94,0.58,4.38,1c4.42,1.3,8.82,2.72,13.25,3.96c4.09,1.14,8.21,2.22,12.35,3.13c8.62,1.89,17.35,2.68,26.16,2.49
			c0.31-0.01,0.68-0.18,0.92-0.4c0.96-0.87,1.92-1.76,2.82-2.7c2.14-2.23,6.68-2.58,8.98-0.2c0.44,0.46,0.98,0.81,1.51,1.15
			c0.21,0.13,0.53,0.16,0.79,0.11c2.88-0.56,5.35,0.2,7.39,2.49c0.17,0.19,0.5,0.35,0.72,0.31c3.63-0.64,7.26-1.29,10.88-1.98
			c3.24-0.61,6.47-1.22,9.69-1.92c3.41-0.75,6.81-1.51,10.18-2.44c4-1.11,7.95-2.42,11.93-3.62c1.5-0.46,3.01-0.9,4.53-1.3
			c1.29-0.33,2.53-0.01,3.71,0.56c0.97,0.46,1.54,1.62,1.39,2.75c-0.01,0.1-0.02,0.22-0.07,0.3c-0.93,1.87-0.36,3.7,0.12,5.54
			c0.21,0.8,0.37,1.63,0.48,2.45c0.23,1.76-0.57,3.08-2.05,3.86c-2.64,1.39-5.47,2.04-8.3,2.7c-6.65,1.54-13.28,3.25-19.98,4.52
			c-7.85,1.49-15.81,1.94-23.78,1.89C317.75,149.04,317.38,149.07,316.78,149.1z"/>
		<g>
			<g>
				<path class="st5" d="M274.32,194.09c3.24,1.71,6.49,3.43,9.73,5.14c1.16,0.61,2.77,0.33,3.42-0.9c0.61-1.16,0.34-2.77-0.9-3.42
					c-3.24-1.71-6.49-3.43-9.73-5.14c-1.16-0.61-2.77-0.33-3.42,0.9C272.81,191.83,273.08,193.44,274.32,194.09L274.32,194.09z"/>
			</g>
		</g>
		<g>
			<g>
				<path class="st5" d="M324.98,201.95c3.88-2.16,7.69-4.43,11.44-6.81c1.1-0.7,1.65-2.26,0.9-3.42c-0.71-1.1-2.24-1.65-3.42-0.9
					c-3.75,2.38-7.56,4.65-11.44,6.81c-1.14,0.64-1.62,2.3-0.9,3.42C322.3,202.21,323.75,202.63,324.98,201.95L324.98,201.95z"/>
			</g>
		</g>
		<path d="M291.12,148.4c-8.9,1.04-17.38,0.03-25.85-1.3c-7.37-1.16-14.56-3.18-21.77-5.08c-2.13-0.56-4.25-1.34-6.24-2.33
			c-1.79-0.89-2.34-2.81-1.77-4.64c0.4-1.27,0.81-2.55,1.1-3.85c0.12-0.56,0.08-1.24-0.1-1.78c-1-3.07,0.25-5.1,3.31-4.98
			c1.54,0.06,3.13,0.37,4.58,0.93c6.33,2.46,12.9,3.95,19.45,5.52c5.18,1.24,10.39,2.48,15.65,3.13c5.59,0.69,11.26,0.69,16.89,0.96
			c0.29,0.01,0.64-0.25,0.89-0.48c1.17-1.04,2.25-2.21,3.48-3.16c2.3-1.8,5.43-1.75,7.78-0.01c0.08,0.06,0.16,0.11,0.24,0.18
			c1.12,0.95,2.2,1.57,3.82,1.33c2.36-0.34,4.48,0.65,6.11,2.61c0.14,0.17,0.43,0.34,0.62,0.31c4.89-0.86,9.78-1.65,14.64-2.66
			c4.8-0.99,9.58-2.08,14.32-3.35c5.27-1.41,10.49-3.06,15.72-4.63c2.06-0.62,4.09-1.22,6.19-0.13c1.05,0.55,1.91,1.65,1.47,2.72
			c-1.07,2.58-0.06,4.89,0.43,7.29c0.55,2.72,0.04,4.04-2.32,5.08c-1.8,0.79-3.67,1.46-5.55,1.97c-4.58,1.24-9.17,2.43-13.79,3.49
			c-10.72,2.48-21.58,3.54-32.55,3.54c-0.31,0-0.62,0-1.02,0c1.25,1.84,2.43,3.53,3.56,5.26c1.16,1.79,2.33,3.59,3.38,5.46
			c1.22,2.14,2.25,4.41,3.48,6.54c2.91,5.02,5.07,10.42,7.08,15.89c1.71,4.65,3.18,9.4,4.79,14.09c0.71,2.08,0.04,3.89-0.99,5.53
			c-2.92,4.64-5.96,9.19-9.55,13.29c-1.04,1.19-2.03,2.43-3.04,3.64c-1.08,1.29-2.17,1.11-2.53-0.6c-0.58-2.78-1.01-5.61-1.4-8.43
			c-0.34-2.41-0.47-4.86-0.8-7.27c-1.63-12.03-3.35-24.04-6.99-35.61c-1.26-4.01-2.72-7.95-4.09-11.92
			c-0.03-0.09-0.11-0.16-0.22-0.31c-1.8,0.87-3.7,1.06-5.6,0.5c-0.94-0.27-1.85-0.78-2.65-1.37c-0.74-0.53-1.39-0.59-1.79,0.25
			c-0.53,1.1-1.06,2.22-1.41,3.39c-1.89,6.33-3.71,12.68-5.59,19.02c-2.1,7.1-2.99,14.45-3.93,21.78
			c-0.77,5.97-1.45,11.95-2.18,17.93c-0.08,0.69-0.28,1.36-0.45,2.03c-0.17,0.71-0.51,1.45-1.23,1.4c-0.57-0.04-1.24-0.41-1.63-0.86
			c-1.42-1.63-2.65-3.46-4.11-5.04c-2.5-2.68-4.4-5.83-6.37-8.93c-0.98-1.53-2.31-2.79-2.9-4.64c-0.4-1.26-0.51-2.46-0.1-3.67
			c2.49-7.5,4.73-15.12,8.07-22.26c2.26-4.81,4.68-9.55,7.25-14.18c1.82-3.28,4.05-6.3,6.01-9.49
			C291.2,150.01,291.05,149.19,291.12,148.4z M324.19,217.63c0.11,0.03,0.22,0.05,0.34,0.08c0.2-0.27,0.39-0.54,0.59-0.8
			c0.77-0.99,1.52-2,2.31-2.98c1.23-1.52,2.59-2.93,3.72-4.53c1.74-2.46,3.32-5.05,4.98-7.58c1.21-1.85,1.69-3.7,0.73-5.95
			c-0.99-2.32-1.63-4.81-2.44-7.22c-2.05-6.08-4.29-12.07-7.08-17.83c-3.06-6.34-6.2-12.62-9.76-18.65
			c-0.55-0.93-1.17-1.81-1.69-2.6c-1.5,1.35-2.92,2.61-4.3,3.91c-0.14,0.13-0.22,0.49-0.17,0.69c0.35,1.19,0.72,2.38,1.14,3.55
			c1.06,2.97,2.38,5.86,3.19,8.91c1.89,7.05,3.96,14.09,5.18,21.28c1.36,8.04,1.86,16.24,2.73,24.37
			C323.82,214.06,324,215.85,324.19,217.63z M291.7,151.11c-0.73,1.29-1.48,2.54-2.18,3.83c-1.57,2.92-3.23,5.79-4.65,8.79
			c-2.72,5.78-5.5,11.53-7.85,17.48c-2.07,5.21-3.59,10.67-5.35,16.03c-0.45,1.36-0.12,2.62,0.58,3.78c0.7,1.17,1.52,2.26,2.2,3.45
			c1.77,3.09,3.84,5.93,6.09,8.63c1.27,1.53,2.48,3.1,3.8,4.75c0.1-0.38,0.21-0.66,0.25-0.95c0.26-1.82,0.56-3.63,0.75-5.45
			c0.26-2.52,0.35-5.06,0.65-7.58c0.71-5.94,1.34-11.9,2.29-17.8c1.06-6.61,2.58-13.12,4.93-19.38c0.95-2.54,1.73-5.16,2.57-7.75
			c0.58-1.76,1.13-3.53,1.71-5.34c-0.3-0.04-0.53-0.07-0.75-0.1c-1.58-0.2-1.6-0.13-2.12,1.52c-0.57,1.77-1.23,3.5-1.88,5.23
			c-0.67,1.76-1.49,3.45-2.06,5.24c-1.98,6.21-3.88,12.46-5.8,18.69c-0.55,1.79-1.03,3.59-1.56,5.39c-0.09,0.31-0.26,0.59-0.4,0.88
			c-0.2-0.33-0.24-0.57-0.2-0.8c0.74-4.47,1.34-8.94,2.72-13.3c1.79-5.64,3.58-11.27,5.86-16.7c0.25-0.6,0.45-1.24,0.75-1.81
			c0.83-1.58,1.7-3.14,2.53-4.66C293.52,152.43,292.63,151.79,291.7,151.11z M295.22,137.26c-0.35-0.03-0.53-0.04-0.72-0.05
			c-3.39-0.16-6.78-0.19-10.16-0.52c-7.54-0.72-14.99-2.02-22.36-3.92c-6.36-1.64-12.78-3.05-18.87-5.71
			c-1.04-0.45-2.19-0.68-3.31-0.87c-1.89-0.32-2.61,0.66-2.06,2.58c0.36,1.26,0.69,2.54,0.9,3.83c0.19,1.15-0.12,1.38-1.21,1.18
			c-0.05,0.27-0.1,0.54-0.15,0.82c-0.46,2.92-0.25,3.43,2.38,4.42c1.59,0.6,3.25,0.99,4.9,1.38c6.65,1.55,13.26,3.31,19.96,4.53
			c5.35,0.97,10.8,1.44,16.22,1.8c3.2,0.21,6.45-0.21,9.67-0.39c0.23-0.01,0.53-0.39,0.66-0.67c0.46-1.06,0.78-2.19,1.3-3.21
			C293.23,140.73,294.2,139.09,295.22,137.26z M317.13,147.26c0.34,0.03,0.53,0.07,0.71,0.07c8.16-0.21,16.3-0.72,24.35-2.2
			c5.68-1.05,11.3-2.44,16.93-3.77c2.99-0.7,6.02-1.35,8.89-2.43c3.15-1.19,3.12-1.55,2.26-5.17c-1.3,0.28-1.62,0-1.3-1.44
			c0.33-1.47,0.88-2.89,1.26-4.35c0.09-0.34-0.03-0.99-0.25-1.11c-0.63-0.35-1.37-0.72-2.05-0.7c-0.92,0.04-1.85,0.37-2.74,0.69
			c-2.13,0.75-4.21,1.73-6.37,2.33c-6.18,1.7-12.37,3.38-18.61,4.81c-4.23,0.97-8.54,1.54-12.83,2.18
			c-2.61,0.38-5.24,0.54-7.91,0.81C320.16,140.66,318.91,143.95,317.13,147.26z M300.15,152.18c-0.55-0.79-1.02-1.39-1.4-2.06
			c-0.13-0.24-0.01-0.63-0.01-0.96c0.34,0.04,0.68,0.03,1,0.13c0.16,0.05,0.26,0.29,0.39,0.45c0.8,1.01,1.58,2.04,2.4,3.03
			c0.83,1.02,1.82,1.28,3.08,0.96c1.67-0.43,3.08-1.32,4.36-2.48c1.24-1.13,2.44-2.31,3.6-3.53c2.41-2.53,4.1-5.42,3.72-9.24
			c-0.29-2.87-1.67-4.58-3.95-4.54c-1.02,0.02-2.06,0.53-3.03,0.96c-0.63,0.28-1.16,0.83-1.85,1.35c-0.2-1.27,0.79-1.7,1.21-2.49
			c-1.02-1.02-2.22-1.62-3.52-2.13c-1.73-0.67-3.18-0.23-4.47,0.92c-3.6,3.21-6.43,7.09-8.47,11.61c-0.76,1.68-0.8,3.44-0.19,5.18
			c0.49,1.42,1.43,2.31,2.89,2.45C297.23,151.94,298.56,152.04,300.15,152.18z"/>
	</g>
</g>
</svg>
