<?xml version="1.0" encoding="utf-8"?>
<!-- Generator: Adobe Illustrator 27.0.0, SVG Export Plug-In . SVG Version: 6.00 Build 0)  -->
<svg version="1.1" id="Capa_1" xmlns="http://www.w3.org/2000/svg" xmlns:xlink="http://www.w3.org/1999/xlink" x="0px" y="0px"
	 viewBox="0 0 612 792" style="enable-background:new 0 0 612 792;" xml:space="preserve">
<style type="text/css">
	.st0{fill:#1E2B51;}
</style>
<path class="st0" d="M257.71,382.52c-0.18,3.3-3.43,5.05-4.11,8.11C250.05,385.02,250.32,384.51,257.71,382.52z"/>
<g>
	<path class="st0" d="M280.75,390.5c0.2-1.35,0.41-2.69,0.61-4.04c1.1,0,2.19,0.01,3.29,0.01c2.6,0.73,4.3,6.62,8.04,1.34
		c0.53-0.75,1.88,0.06,2.58,0.8c1.2,1.26,2.55,2.09,4.37,1.85c0.04,0.8-0.04,1.55-0.77,2.05c-0.81,0.23-0.87,0.56-0.13,1
		c-0.01,1.59-0.02,3.19-0.03,4.78c-1.24,2.56-1.19,5.27-0.94,8c-0.03,1.06-0.06,2.12-0.09,3.19c0.05,0.83,0.1,1.66,0.15,2.49
		c-0.37,8.92,1.2,17.91-0.97,26.8c-0.29,1.19,0.86,2.73,1.34,4.11c-1.68,2.21-4.32,2.17-6.61,2.41c-2.65,0.28-1.55-2.75-2.69-3.97
		c-0.91-0.98-1.75-1.94-3.23-1.87c-1.77-0.04-2.05-1.14-2.06-2.64c-0.11-14.51-4.25-28.75-2.81-43.36
		C282.11,392.44,282.02,391.46,280.75,390.5z"/>
	<path class="st0" d="M318.41,300.34c1.42,1.1,2.83,2.19,4.25,3.29c-1.24,3.17-3.77,6.08-2.03,9.87c-0.8,0.51-1.74,0.95-1.52,2.14
		c0.03,0.18,0.51,0.45,0.69,0.39c1.24-0.42,0.76-1.57,0.96-2.43c3.31-0.65,6.63,1.32,9.93-0.06c0.14,0.08,0.28,0.15,0.42,0.23
		c-0.14-0.08-0.28-0.15-0.42-0.23c-0.27-2.51-0.55-5.02-0.82-7.54c6.9,0.67,8.68,6.01,8.87,11.32c0.33,9.3,0.76,18.74-1.81,27.86
		c-1.17,4.17-2.36,8.16-0.16,12.29c-0.24,0.22-0.53,0.41-0.7,0.67c-0.79,1.3,0.03,3.7-2.21,3.94c-2.69,0.29-1.27-2.45-2.22-3.5
		c-0.32-0.36-0.65-0.73-0.97-1.09c-0.1-3.29-3.02-5.61-3.03-8.93c1.24-0.41,3.66,1.16,3.43,0.21c-0.71-2.93,2.69-6.35,0.6-7.81
		c-3.25-2.28-3.79-5.37-4.98-8.43c0.03-1.31,0.06-2.63,0.08-3.94c1.65-0.38,3.43-0.68,1.92-3.05c0.6-1.52,1.23-3.03,1.78-4.57
		c0.44-1.24,2.05-2.82-0.41-3.56c-1.95-0.59-1.93,1.36-2.29,2.46c-1,3.07-1.37,6.41-4.09,8.65c-2.21,1.3-4.94,1.72-6.17,4.6
		c-0.89,2.1-3.71,2.09-4.28,0.52c-1.22-3.38-3.46-2.07-5.51-2.12c-0.34-2.41,0.4-4.67,0.9-6.97c0.36-1.97,0.72-3.94,1.08-5.91
		c1.35-2.31,2.5-4.72,3.11-7.34c1.5-1.37,0.42-3.24,0.93-4.79C317.64,306.21,315.46,301.34,318.41,300.34z M324.08,316.1
		c-0.31-0.09-0.49-0.15-0.68-0.21c0.04,0.12,0.07,0.35,0.11,0.35C323.65,316.26,323.8,316.19,324.08,316.1z"/>
	<path class="st0" d="M327.64,348.56c0.01,3.32,2.93,5.64,3.03,8.93c-0.99,0-1.99-0.01-2.98-0.02c-3.24-0.49-6.77-1.78-8.03,3.01
		c-1.98,1.01-3.97,2.03-5.95,3.04c-1.49,1.17-3.66,1.64-4.05,3.95c-1.26,0.07-1.94,0.71-1.97,1.99c-0.68,0.03-1.36,0.06-2.04,0.09
		c-0.31-0.34-0.62-0.67-0.92-1.01c-1.12-0.02-2.29-0.2-3.02,0.97c-0.04,0.33-0.05,0.66-0.03,0.99l-0.01-0.02
		c-4.23,0.95-7.12,3.86-10.3,6.58c1.64,1.05,3.64-0.4,4.95,1.67c-1.47,1.17-3.21,0.56-4.71,0.91c-2.85-0.2-3.3-3.38-5.45-4.55
		c-0.77,1.33-0.94,3.36-2.76,3.23c-5.09-0.36-3.51,3.17-3.59,5.78c-1.81,1.26-3.52,2.74-5.92,2.7c-0.39-2.43-0.78-4.86-1.17-7.29
		c3.03-3.16,7.51-3.46,12.54-6c-3.85,0.45-6.2,0.72-8.56,1c0.4-7.4,3.87-13.18,9.42-17.86c1.82,0.84,3.14,1.71,1.24,3.89
		c-2,2.28-6.96,5.95,1.66,4.55c0.23-0.04,0.64,1.01,0.97,1.55c-0.48,0.89-0.96,1.79-1.43,2.69c-0.42,0.21-0.84,0.41-1.26,0.62
		c0.11,0.12,0.27,0.35,0.32,0.33c0.43-0.17,0.83-0.39,1.25-0.59c4.89-0.79,9.09-3.02,12.87-6.14c2.04-0.38,3.96-0.99,5.18-2.86
		c4.09-1.15,8.1-2.46,10.85-6.02c0.66-0.71,1.31-1.42,1.97-2.13c0.82-0.02,1.55-0.22,1.99-0.99c1.5,0.09,1.92-1.51,3.08-1.96
		C325.72,349.23,326.68,348.89,327.64,348.56z"/>
	<path class="st0" d="M299.63,300.41c0.7-3.16,0.06-6.29-0.24-9.43c0.54-1.6,1.08-3.19,1.62-4.79c1.88,0.57,3.72,2.27,5.73,0.36
		c1.36-1.29,0.5-2.62-0.06-3.93c7.33-2.12,8.87-3.86,9.03-10.21c3.36,3.3,5.29,13.42,3.26,17.9c-1.16,2.58-2.45,5.07-2.28,8.01
		c-0.8,1.91-2.73,2.72-4.04,4.14C307.93,304.21,303.35,305.05,299.63,300.41z M312.74,283.37c-1.31-0.29-2.73-0.69-2.79,1.39
		c-0.05,1.7,1.14,3.17,2.46,3.17c1.51,0.01,3.01-1.42,3.1-3.13C315.62,282.91,314.13,282.98,312.74,283.37z"/>
	<path class="st0" d="M307.68,369.45c0.04-1.28,0.71-1.92,1.97-1.99c2.37-0.27,4.26-1.03,4.05-3.95c1.98-1.01,3.97-2.03,5.95-3.04
		c3.23,0.48,5.89-0.56,8.03-3.01c0.99,0.01,1.99,0.01,2.98,0.02c0.32,0.36,0.65,0.73,0.97,1.09c0.95,1.06-0.47,3.79,2.22,3.5
		c2.24-0.24,1.42-2.63,2.21-3.94c0.16-0.27,0.46-0.45,0.7-0.67c0.28,4.37,1.68,8.71,0.38,13.12c-4.86,2.9-4.43,8.94-7.6,12.84
		c-3.35,0.14-6.43-0.6-3.8-4.6c2.06-3.13,2.71-6.71,4.54-9.76c1.45-2.42,0.6-5.26-0.48-5.94c-2.32-1.46-2.59,2.16-4.19,3.07
		c-0.37,0.21-0.71,0.81-0.73,1.26c-0.23,3.99-3.15,5.57-6.2,7.06c-2,0.36-4,0.72-5.99,1.07
		C312.59,372.25,308.22,372.41,307.68,369.45z"/>
	<path class="st0" d="M285.64,354.63c-9.77-3.8-10.33-4.54-9.99-13.1c4.28-1.94,8.69-1.79,12.75,0.2c3.51,1.73,6.48,1.97,10.26,0.57
		c2.65-0.98,5.17,1.22,5.38,4.31c0.09,1.35,0.73,2.49,0.74,3.79c-3.1,0.05-6.43-0.6-9.25,0.32
		C292.2,351.8,287.24,349.27,285.64,354.63z"/>
	<path class="st0" d="M328.37,414.43c1.01,10.37,1.43,20.82,3.33,31.09c0.45,2.43,1.29,4.78,1.84,7.19
		c0.25,1.11,1.53,2.66-0.73,3.15c-1.68,0.37-2.69-0.28-3.25-2.12c-1.75-5.72-3.24-11.51-3.56-17.48c-0.3-5.47-2.6-10.48-3.13-15.86
		c2.37-4.26,0.27-7.62-2.18-10.91c0.31-0.58,0.62-1.16,0.94-1.75c0.4-0.08,0.81-0.16,1.21-0.23c3.05,1.26,3.58,4.39,5.08,6.8
		C327.97,414.41,328.21,414.39,328.37,414.43z"/>
	<path class="st0" d="M272.7,379.5c0.39,2.43,0.78,4.86,1.17,7.29c-3.71,3.24-7.42,6.48-11.13,9.71c-3.76,0.82-4.76-3.92-8.08-4
		c-0.35-0.63-0.71-1.25-1.06-1.88c0.68-3.05,3.92-4.8,4.11-8.11c4.64-0.85,8.28-4.31,12.99-4.96
		C270.48,379.12,271.48,379.42,272.7,379.5z"/>
	<path class="st0" d="M301.01,286.19c-0.54,1.59-1.08,3.19-1.62,4.79c-3.18-2.44-4.63-5.11-2.29-9.15c1.1-1.9,1.08-4.43,1.69-6.64
		c0.42-1.52,0.49-3.4,2.71-3.63c4.45-3.18,8.91-0.09,13.36-0.02c0.28,0.29,0.56,0.59,0.84,0.88c-0.16,6.35-1.7,8.08-9.03,10.21
		c0,0-0.04-0.05-0.04-0.05c-0.14-0.56-0.42-0.75-0.93-0.36C303.12,282.35,300.04,281.87,301.01,286.19z"/>
	<path class="st0" d="M328.37,414.43c-0.16-0.04-0.4-0.02-0.46-0.12c-1.5-2.41-2.03-5.54-5.08-6.8c-0.08-2.15-0.38-4.33-0.2-6.46
		c0.29-3.33-1.17-3.94-4.12-3.44c-2.92,0.5-5.89,1.05-8.89,0.57c-0.48-2.82-4.08-0.87-4.97-3.45c5.82-0.74,11.58-1.5,17.34-2.2
		c3.03-0.37,5.54-1.64,7.5-3.98l0.49-0.03l0.49,0.04c1.34,1.12,2.67,2.23,4.62,3.86c-8.44,1.94-8.35,7.75-7.3,14.11
		C328.21,409.12,328.19,411.79,328.37,414.43z"/>
	<path class="st0" d="M304.77,350.4c0-1.3-0.65-2.43-0.74-3.79c-0.21-3.09-2.73-5.29-5.38-4.31c-3.78,1.4-6.75,1.16-10.26-0.57
		c-4.05-1.99-8.47-2.14-12.75-0.2c-1.1-1.74,0.03-3.34,0.34-4.98c1.77,0.36,2.59-0.99,3.6-1.99c0.61,2.4,2.13,3.65,4.63,3.71
		c2.82,0.07,5.65,0.17,8.47,0.26c3.01-0.03,6.02-0.05,9.03-0.08c1.65,0.02,3.3,0.05,4.95,0.07c1.47,0,2.92,0.02,3.04,2.03
		c-0.24,1.93-1,3.97-0.61,5.76C310.03,350.5,307.69,350.61,304.77,350.4z"/>
	<path class="st0" d="M288.61,306.36c1.76-1.24,3.73-1.84,5.86-1.96c1.33,1.09,2.66,2.52,1.59,4.14c-1.89,2.87-0.62,5.6-0.47,8.48
		c0.24,4.33,1.68,3.98,4.14,1.51c1.91,3.87,0.5,8,0.93,11.99c-4.82-1.73-5.89-6.37-8.06-10.22c-1.71-3.03-1.51-7.99-6.97-7.65
		c-0.29-0.04-0.59-0.05-0.88-0.04C284.28,309.44,288.71,309.29,288.61,306.36z"/>
	<path class="st0" d="M299.6,460.46c0.4,3.71,4.11,7.87-1.18,10.83c-4.53,2.53-10.04,0.87-13.8-3.85c0.65-1.6-0.23-3.54,1.11-5
		C290.62,463.7,295.1,462.05,299.6,460.46z"/>
	<path class="st0" d="M330.46,388.55l-0.49-0.04c0,0-0.49,0.03-0.49,0.03c-0.92-0.03-1.85-0.06-2.77-0.09
		c-4.5-3.6-8-7.77-8.04-13.94c3.05-1.49,5.97-3.07,6.2-7.06c0.03-0.44,0.36-1.04,0.73-1.26c1.6-0.91,1.87-4.53,4.19-3.07
		c1.08,0.68,1.93,3.52,0.48,5.94c-1.83,3.05-2.48,6.63-4.54,9.76c-2.63,4,0.45,4.74,3.8,4.6c0.03,0.58,0.05,1.17,0.08,1.75
		C329.9,386.3,330.18,387.43,330.46,388.55z"/>
	<path class="st0" d="M299.6,460.46c-4.49,1.59-8.98,3.24-13.88,1.98c0.08-0.96,0.17-1.93,0.25-2.89c0.58-0.15,0.92-0.47,0.81-1.11
		c1.55,0.06,1.59-0.65,1.72-2.12c0.62-7.16,3.74-9.04,10.53-6.69C300.5,453.17,299.51,456.85,299.6,460.46z"/>
	<path class="st0" d="M304.77,350.4c2.92,0.21,5.26,0.1,4.33-4.1c-0.4-1.79,0.37-3.83,0.61-5.76c0.25,0,0.51,0.01,0.76,0.03
		c-0.41,5.12,3.51,3.62,6.18,4.04c0.83,1.99-8.8,3.96-0.01,5.95c0.58,1.34,1.64,1.93,3.05,1.96c-0.66,0.71-1.31,1.42-1.97,2.13
		c-1.18-1.64-2.94-0.99-4.49-1.13c-4.88-0.45-9.59,1.65-14.49,1.01c-6.04-2.09-7.81-1.34-7.06,2.99c-1.5,1.5-1.74,0.22-2.11-0.93
		c-0.7-2.15-2.08-2.14-3.74-1.11c-0.11-0.27-0.17-0.56-0.2-0.85c1.61-5.37,6.56-2.83,9.88-3.91
		C298.34,349.8,301.67,350.45,304.77,350.4z"/>
	<path class="st0" d="M299.02,449.63c-6.79-2.35-9.9-0.47-10.53,6.69c-0.13,1.46-0.17,2.18-1.72,2.12
		c-1.01-0.37-2.01-0.75-3.02-1.12l0.03,0.02c-0.26-6.06,2.45-11.8,1.89-17.88c1.48-0.07,2.32,0.89,3.23,1.87
		c1.13,1.22,0.03,4.26,2.69,3.97c2.29-0.24,4.93-0.21,6.61-2.41C299.93,444.96,299.59,447.28,299.02,449.63z"/>
	<path class="st0" d="M288.61,306.36c0.1,2.93-4.33,3.08-3.85,6.25c-0.32,0.03-0.64,0.04-0.96,0.04c-2.15-0.13-2.08,1.41-2.13,2.85
		c0.35,1.01,0.71,2.03,1.06,3.04c-2.05,0.21-2.11,1.71-2.02,3.22c0.19,3.1-0.26,6.13-0.92,9.14c-0.29,1.21-1,2.39-0.2,3.66
		c-1.02,1-1.84,2.35-3.6,1.99c1.51-8.56,1.32-17.42,4.39-25.71C281.79,307.03,285.65,307.46,288.61,306.36z"/>
	<path class="st0" d="M279.79,384.09c0.08-2.6-1.5-6.14,3.59-5.78c1.82,0.13,1.98-1.9,2.76-3.23c2.15,1.18,2.6,4.35,5.45,4.55
		c0.83,3.01,3.3,1.48,5.09,1.84c0.65,1.34,3.24,0.82,2.95,3.07c-3.23-2.29-6.81,0.76-10.08-0.65c-2.73-1.17-3.99,0.35-4.9,2.57
		c-1.1,0-2.19-0.01-3.29-0.01C280.77,385.72,280.92,384.48,279.79,384.09z"/>
	<path class="st0" d="M329.86,306c0.27,2.51,0.55,5.02,0.82,7.54l0,0.01c-3.3,1.38-6.62-0.59-9.93,0.06l-0.12-0.1
		c-1.74-3.79,0.79-6.7,2.03-9.87C325.06,304.42,327.46,305.21,329.86,306z"/>
	<path class="st0" d="M321.62,407.74c-0.31,0.58-0.62,1.16-0.94,1.75c-2.58-0.96-1.35,2.14-2.69,2.51
		c-6.72-1.38-13.44-0.94-20.16-0.02c-0.05-0.83-0.1-1.66-0.15-2.49c2.66-0.64,5.53-0.48,7.98-1.96c2.02,0.02,4.04,0.05,6.05,0.07
		c1.23,1.38,1.72,0.62,2.02-0.7C316.43,406.6,319.16,405.92,321.62,407.74z"/>
	<path class="st0" d="M285.84,355.48c1.66-1.03,3.04-1.05,3.74,1.11c0.37,1.15,0.61,2.43,2.11,0.93c0.66-0.01,1.33-0.02,1.99-0.04
		c1.72,0.96,1.39,3.94,3.98,4.04c0,0.33,0,0.66-0.01,0.98c-2.77,0.99-4.24,4.41-7.7,4.13c-0.33-0.54-0.74-1.59-0.97-1.55
		c-8.61,1.4-3.65-2.27-1.66-4.55c1.91-2.18,0.59-3.05-1.24-3.89c-0.11-0.24-0.25-0.48-0.33-0.74
		C285.72,355.78,285.81,355.62,285.84,355.48z"/>
	<path class="st0" d="M299.74,318.53c-2.47,2.47-3.9,2.82-4.14-1.51c-0.16-2.87-1.42-5.61,0.47-8.48c1.07-1.62-0.26-3.05-1.59-4.14
		c1.39-0.99,2.77-1.98,4.16-2.97c0.14,2.58-0.06,5.35,3.25,6.28c0.27,0.28,0.54,0.57,0.82,0.85
		C301.49,311.83,298.38,314.51,299.74,318.53z"/>
	<path class="st0" d="M301.89,307.72c-3.32-0.94-3.12-3.7-3.25-6.28c0.33-0.34,0.66-0.69,1-1.03c3.71,4.64,8.29,3.8,13.01,2.06
		c0.31,1.08,0.63,2.17,0.94,3.25c-1.43-0.36-3.09-1.88-3.94,0.76c0,0-0.02-0.01-0.02-0.01c-1.79-0.23-3.47-0.08-4.83,1.29
		C303.83,307.75,302.86,307.74,301.89,307.72z"/>
	<path class="st0" d="M329.62,385.18c-0.03-0.58-0.05-1.17-0.08-1.75c3.17-3.9,2.74-9.94,7.6-12.84c1.14,5.53-2.91,9.29-4.81,13.77
		C332.09,384.92,330.55,384.92,329.62,385.18z"/>
	<path class="st0" d="M285.97,459.56c-0.08,0.96-0.17,1.93-0.25,2.89c-1.33,1.45-0.46,3.39-1.11,5c-3.78-0.9-4.02-4.44-4.69-7.15
		c-0.55-2.27,2.65-1.77,3.86-2.95c0,0-0.03-0.02-0.03-0.02C283.71,458.84,284.61,459.43,285.97,459.56z"/>
	<path class="st0" d="M272.7,379.5c-1.22-0.08-2.22-0.38-1.99-1.94c1.21-2.55,3.48-3.02,5.97-3.06c2.36-0.27,4.72-0.55,8.56-1
		C280.2,376.04,275.73,376.34,272.7,379.5z"/>
	<path class="st0" d="M314.86,271.54c-4.45-0.07-8.91-3.16-13.36,0.02C305.81,266.88,310.42,266.87,314.86,271.54z"/>
	<path class="st0" d="M318,411.99c1.33-0.37,0.11-3.47,2.69-2.51c2.45,3.29,4.55,6.65,2.18,10.91
		C322.6,416.81,321.44,413.74,318,411.99z"/>
	<path class="st0" d="M313.59,305.72c-0.31-1.08-0.63-2.17-0.94-3.25c1.31-1.41,3.24-2.23,4.04-4.14c1.02,0.29,1.37,1.15,1.72,2.01
		c-2.95,1-0.77,5.87-4.65,6.16c0,0-0.35,0.02-0.35,0.02C313.53,306.27,313.59,306,313.59,305.72z"/>
	<path class="st0" d="M254.66,392.51c3.31,0.08,4.32,4.82,8.08,4C258.97,398.5,257.76,397.91,254.66,392.51z"/>
	<path class="st0" d="M280.75,390.5c1.27,0.96,1.36,1.94,0.06,2.95c-0.89-0.22-2.04-0.34-2.04-1.47
		C278.77,390.91,279.74,390.54,280.75,390.5z"/>
	<path class="st0" d="M299.63,384.55c0.29-2.25-2.3-1.72-2.95-3.07c1.41-0.03,2.82-0.04,3.06-1.92c3.93-1,7.83-2.13,11.94-2.1
		c3.05,6.34,7.84,10.31,15.03,10.99c0.92,0.03,1.85,0.06,2.77,0.09c-1.96,2.35-4.47,3.62-7.5,3.98c-5.76,0.7-11.52,1.46-17.34,2.2
		c0.89,2.58,4.5,0.63,4.97,3.45c-3.64,0.04-7.27,0.09-10.91,0.13c0.01-1.59,0.02-3.19,0.03-4.78c0.04-0.33,0.09-0.67,0.13-1
		c0.73-0.51,0.81-1.25,0.77-2.05C299.64,388.5,299.64,386.52,299.63,384.55z"/>
	<path class="st0" d="M298.71,398.3c3.64-0.04,7.27-0.09,10.91-0.13c3.01,0.48,5.97-0.07,8.89-0.57c2.95-0.5,4.4,0.1,4.12,3.44
		c-0.18,2.13,0.12,4.31,0.2,6.46c-0.4,0.08-0.81,0.16-1.21,0.23c-2.46-1.82-5.19-1.14-7.88-0.84c-0.82-0.18-1.58-0.21-2.02,0.7
		c-2.02-0.02-4.04-0.05-6.05-0.07c-2.45-1.57-5.31-0.5-7.9-1.22C297.52,403.57,297.47,400.86,298.71,398.3z"/>
	<path class="st0" d="M299.63,384.55c0,1.97,0.01,3.95,0.01,5.92c-1.82,0.24-3.17-0.59-4.37-1.85c-0.71-0.74-2.05-1.55-2.58-0.8
		c-3.74,5.28-5.43-0.61-8.04-1.34c0.92-2.22,2.17-3.75,4.9-2.57C292.83,385.31,296.4,382.26,299.63,384.55z"/>
	<path class="st0" d="M297.77,406.3c2.58,0.72,5.44-0.34,7.9,1.22c-2.46,1.49-5.32,1.32-7.98,1.96
		C297.72,408.43,297.74,407.36,297.77,406.3z"/>
	<path class="st0" d="M298.87,392.52c-0.04,0.33-0.09,0.67-0.13,1C298,393.09,298.06,392.76,298.87,392.52z"/>
	<path class="st0" d="M299.74,318.53c-1.36-4.02,1.75-6.71,2.96-9.96c0.69-0.06,1.38-0.13,2.07-0.19c1.8,1.48,3.2-0.45,4.81-0.55
		c1.06,1.18,1.55,2.88,3.24,3.47c-0.62,2.63-1.76,5.03-3.11,7.34c-0.01-1.7-0.02-3.4-0.03-5.1c0.08-0.14,0.15-0.27,0.23-0.41
		c-0.07,0.14-0.15,0.28-0.22,0.41c-1.33,0.71-2.73,1-4.25,1.04c-3.87,0.1-3.46,3.8-2.28,4.76c1.99,1.61,2.74,4.51,5.47,5.21
		c-0.5,2.3-1.25,4.56-0.9,6.97c-1.93,2.09-0.62,4.67-1.05,6.99c-1.65-0.02-3.3-0.05-4.95-0.07c-0.19-1.35,0.4-2.9-1.04-3.92
		c0-1.34,0-2.67-0.01-4.01C300.24,326.54,301.65,322.41,299.74,318.53z M303.19,324.82c0.15-0.28,0.39-0.53,0.39-0.78
		c0-0.25-0.25-0.5-0.38-0.74c-0.14,0.25-0.38,0.49-0.39,0.74C302.8,324.28,303.04,324.53,303.19,324.82z"/>
	<path class="st0" d="M316.64,350.57c-8.79-2,0.84-3.97,0.01-5.95c2.3-0.33,4.57-0.76,6.13-2.75c1.76-1.52,0.66-3.48,0.8-5.25
		l0.18-0.21c2.88,0.14,1.2-3.17,2.94-3.89c1.19,3.06,1.73,6.15,4.98,8.43c2.09,1.46-1.31,4.88-0.6,7.81
		c0.23,0.96-2.19-0.61-3.43-0.21c-0.96,0.34-1.92,0.68-2.88,1.02c-0.76-1.27-1.12-2.94-3.05-3.03c-0.83-0.01-1.58,0.15-2.02,0.95
		c-0.68,0.01-1.36,0.02-2.04,0.02c-1.14,0.74-0.93,1.91-0.96,3L316.64,350.57z M328.58,343.4c0.18-0.25,0.47-0.59,0.65-0.98
		c0.03-0.07-0.49-0.56-0.64-0.51c-0.42,0.15-0.98,0.4-1.1,0.74C327.27,343.29,327.86,343.37,328.58,343.4z"/>
	<path class="st0" d="M306.67,338.51c0.43-2.32-0.87-4.9,1.05-6.99c2.06,0.04,4.3-1.26,5.51,2.12c0.56,1.57,3.38,1.58,4.28-0.52
		c1.22-2.88,3.95-3.3,6.17-4.6c1.28,2.62-2.17,5.29,0.07,7.9c0,0-0.18,0.21-0.18,0.21c-2.45,0.19-4.85,0.31-7.35-0.05
		c-1.7-0.24-4.38-1.21-5.21,1.85c-0.18,0.72-0.37,1.44-0.55,2.15c-0.25-0.02-0.51-0.03-0.76-0.03
		C309.59,338.53,308.13,338.51,306.67,338.51z"/>
	<path class="st0" d="M309.68,313.54c0.01,1.7,0.02,3.4,0.03,5.1c-0.36,1.97-0.72,3.94-1.08,5.92c-2.73-0.7-3.48-3.6-5.47-5.21
		c-1.19-0.96-1.59-4.66,2.28-4.76C306.95,314.54,308.36,314.25,309.68,313.54L309.68,313.54z"/>
	<path class="st0" d="M323.75,336.41c-2.25-2.61,1.2-5.28-0.07-7.9c2.73-2.24,3.09-5.59,4.09-8.65c0.36-1.1,0.34-3.05,2.29-2.46
		c2.46,0.74,0.85,2.32,0.41,3.56c-0.55,1.54-1.18,3.05-1.78,4.57c-1.34,0.58-2.05,1.55-1.92,3.05c-0.03,1.31-0.06,2.63-0.08,3.94
		C324.95,333.24,326.64,336.55,323.75,336.41z"/>
	<path class="st0" d="M312.82,311.3c-1.69-0.59-2.18-2.29-3.24-3.47c0.01-0.45,0.03-0.9,0.04-1.36c0,0,0.02,0.01,0.02,0.01
		c1.25,0.02,2.51,0.03,3.76,0.05c0,0,0.35-0.02,0.35-0.02C313.25,308.06,314.32,309.93,312.82,311.3z"/>
	<path class="st0" d="M326.78,328.58c-0.13-1.5,0.58-2.47,1.92-3.05C330.21,327.9,328.43,328.2,326.78,328.58z"/>
	<path class="st0" d="M320.75,313.6c-0.2,0.87,0.28,2.01-0.96,2.43c-0.17,0.06-0.65-0.22-0.69-0.39c-0.22-1.2,0.72-1.63,1.52-2.14
		C320.62,313.5,320.75,313.6,320.75,313.6z"/>
	<path class="st0" d="M324.08,316.1c-0.28,0.08-0.43,0.16-0.57,0.15c-0.04,0-0.07-0.23-0.11-0.35
		C323.59,315.96,323.77,316.01,324.08,316.1z"/>
	<path class="st0" d="M330.68,313.54c0.14,0.08,0.28,0.15,0.42,0.23C330.96,313.69,330.82,313.62,330.68,313.54
		C330.67,313.54,330.68,313.54,330.68,313.54z"/>
	<path class="st0" d="M298.75,354.53c4.9,0.64,9.6-1.46,14.49-1.01c1.55,0.14,3.31-0.51,4.49,1.13c-2.75,3.57-6.76,4.88-10.85,6.02
		c-1.79-4.26-5.5-1.32-8.19-2.19c0-0.99,0-1.98,0-2.97C298.71,355.18,298.73,354.86,298.75,354.53z"/>
	<path class="st0" d="M311.68,377.46c-4.11-0.03-8.01,1.1-11.94,2.1c0.21-3.23,3.6-4.88,3.97-8.03c0.37-0.64,0.73-1.29,1.1-1.93
		c0.27-0.03,0.55-0.04,0.82-0.05c0.68-0.03,1.36-0.06,2.04-0.09c0.55,2.96,4.91,2.8,5,6.13
		C312.35,376.21,312.02,376.83,311.68,377.46z"/>
	<path class="st0" d="M303.71,371.53c-0.37,3.15-3.76,4.8-3.97,8.03c-0.24,1.88-1.66,1.89-3.06,1.92c-1.79-0.37-4.26,1.16-5.09-1.84
		c1.5-0.35,3.24,0.26,4.71-0.91c-1.31-2.07-3.3-0.62-4.95-1.67c3.18-2.71,6.07-5.63,10.3-6.58
		C302.1,371.3,302.87,371.48,303.71,371.53z"/>
	<path class="st0" d="M289.95,366.63c3.46,0.29,4.93-3.13,7.7-4.13c1.4,0.17,3-0.46,4.05,1.04c-3.78,3.11-7.98,5.35-12.87,6.14
		l-0.31-0.36C289,368.42,289.48,367.52,289.95,366.63z"/>
	<path class="st0" d="M301.7,363.54c-1.06-1.5-2.66-0.87-4.05-1.04c0.01-0.33,0.01-0.66,0.01-0.98c1.21-0.72,0.98-1.92,1.03-3.03
		c2.69,0.88,6.4-2.06,8.19,2.19C305.66,362.55,303.74,363.15,301.7,363.54z"/>
	<path class="st0" d="M327.68,357.47c-2.14,2.44-4.8,3.49-8.03,3.01C320.91,355.7,324.45,356.98,327.68,357.47z"/>
	<path class="st0" d="M321.71,346.54c1.93,0.09,2.29,1.76,3.05,3.03c-1.15,0.46-1.58,2.05-3.07,1.96c-0.43-0.8-1.17-0.99-1.99-1.04
		c-0.68-0.99-1.37-1.99-2.05-2.98c0.68-0.01,1.36-0.02,2.04-0.02C321.24,349.05,321.48,347.81,321.71,346.54z"/>
	<path class="st0" d="M319.7,350.5c0.82,0.05,1.56,0.23,1.99,1.04c-0.44,0.77-1.17,0.97-1.99,0.99c-1.42-0.03-2.48-0.62-3.05-1.96
		c0,0,0.04-0.05,0.04-0.05C317.69,350.51,318.69,350.5,319.7,350.5z"/>
	<path class="st0" d="M313.7,363.52c0.21,2.92-1.68,3.68-4.05,3.95C310.03,365.16,312.21,364.69,313.7,363.52z"/>
	<path class="st0" d="M303.71,371.53c-0.84-0.04-1.61-0.23-2.06-1.05c0,0,0.01,0.02,0.01,0.02c0.71-0.31,0.72-0.64,0.03-0.99
		c0.74-1.17,1.91-0.99,3.02-0.97c0.03,0.35,0.07,0.71,0.1,1.06C304.45,370.24,304.08,370.88,303.71,371.53z"/>
	<path class="st0" d="M288.83,369.68c-0.41,0.2-0.82,0.42-1.25,0.59c-0.06,0.02-0.21-0.21-0.32-0.33c0.42-0.21,0.84-0.41,1.26-0.62
		C288.52,369.31,288.83,369.68,288.83,369.68z"/>
	<path class="st0" d="M301.69,369.5c0.7,0.35,0.68,0.68-0.03,0.99C301.64,370.16,301.65,369.83,301.69,369.5z"/>
	<path class="st0" d="M304.81,369.59c-0.03-0.35-0.07-0.71-0.1-1.06c0.31,0.34,0.62,0.67,0.92,1.01
		C305.36,369.55,305.09,369.57,304.81,369.59z"/>
	<path class="st0" d="M301.01,286.19c-0.97-4.32,2.12-3.85,4.69-3.97c0.31,0.12,0.62,0.24,0.93,0.36c0,0,0.04,0.05,0.04,0.05
		c0.56,1.3,1.42,2.64,0.06,3.93C304.72,288.46,302.89,286.76,301.01,286.19z"/>
	<path class="st0" d="M312.74,283.37c1.39-0.39,2.88-0.46,2.78,1.44c-0.1,1.71-1.6,3.14-3.1,3.13c-1.32-0.01-2.51-1.47-2.46-3.17
		C310.01,282.69,311.43,283.08,312.74,283.37z"/>
	<path class="st0" d="M311.68,377.46c0.33-0.63,0.66-1.25,0.99-1.88c2-0.36,4-0.71,5.99-1.07c0.04,6.17,3.54,10.34,8.04,13.94
		C319.52,387.77,314.74,383.8,311.68,377.46z"/>
	<path class="st0" d="M306.63,282.58c-0.31-0.12-0.62-0.24-0.93-0.36C306.21,281.83,306.49,282.02,306.63,282.58z"/>
	<path class="st0" d="M279.59,334.56c-0.8-1.27-0.08-2.45,0.2-3.66c0.99-0.28,1.98-0.57,2.97-0.85c1.95-1.2,3.79,0.58,5.71,0.19
		l-0.28,0.21c1.5,2.69,3,5.38,4.5,8.08c-2.82-0.09-5.65-0.19-8.47-0.26C281.72,338.21,280.2,336.96,279.59,334.56z"/>
	<path class="st0" d="M292.69,338.52c-1.5-2.69-3-5.38-4.5-8.07c0.84,0.03,1.67,0.06,2.51,0.09c1.26,2.45,3.25,3.79,6.01,3.95
		c1.31,1.06,2.62,2.04,3.96,0.03c1.44,1.02,0.85,2.57,1.04,3.92C298.71,338.47,295.7,338.5,292.69,338.52z"/>
	<path class="st0" d="M290.71,330.54c-0.84-0.03-1.67-0.06-2.51-0.09c0,0,0.28-0.22,0.28-0.22c-0.93-4.55-1.86-9.1-2.78-13.65
		c0-0.37-0.01-0.74-0.01-1.11c-0.01-0.94-0.03-1.88-0.04-2.81c5.47-0.34,5.26,4.62,6.97,7.65c2.17,3.85,3.24,8.49,8.06,10.22
		c0,1.33,0,2.67,0.01,4c-1.34,2.01-2.65,1.02-3.96-0.03c0.4-4.16-3.62-4.71-5.83-6.29C289.74,327.39,290.65,329.66,290.71,330.54z"
		/>
	<path class="st0" d="M285.64,312.65c0.01,0.94,0.03,1.88,0.04,2.81c-0.67,0.38-0.69,0.75,0.01,1.11c0.93,4.55,1.86,9.1,2.78,13.65
		c-1.92,0.4-3.77-1.38-5.72-0.19c-0.08-0.77-0.33-1.57-0.19-2.29c0.59-3.07,2.85-6.09,0.16-9.22c-0.35-1.01-0.71-2.03-1.06-3.04
		c1.99,0,2.05-1.43,2.13-2.85c0.32,0,0.64-0.01,0.96-0.04C285.05,312.6,285.35,312.61,285.64,312.65z"/>
	<path class="st0" d="M285.97,459.56c-1.36-0.13-2.25-0.72-2.21-2.24c1.01,0.37,2.01,0.75,3.02,1.12
		C286.89,459.09,286.55,459.41,285.97,459.56z"/>
	<path class="st0" d="M310.47,340.57c0.18-0.72,0.37-1.44,0.55-2.15c4.14,0.39,7.96,1.88,11.76,3.45c-1.56,1.99-3.82,2.41-6.13,2.75
		C313.98,344.2,310.06,345.7,310.47,340.57z"/>
	<path class="st0" d="M298.75,354.53c-0.02,0.33-0.04,0.65-0.06,0.98c-1.76,0.44-4.32-1.18-5.01,1.97
		c-0.66,0.01-1.33,0.02-1.99,0.04C290.94,353.19,292.71,352.44,298.75,354.53z"/>
	<path class="st0" d="M282.73,318.54c2.69,3.13,0.43,6.15-0.16,9.22c-0.14,0.72,0.12,1.52,0.19,2.29c-0.99,0.28-1.98,0.57-2.97,0.85
		c0.66-3.01,1.11-6.03,0.92-9.13C280.62,320.24,280.67,318.74,282.73,318.54z"/>
	<path class="st0" d="M283.8,312.65c-0.08,1.42-0.15,2.85-2.13,2.85C281.72,314.06,281.65,312.52,283.8,312.65z"/>
	<path class="st0" d="M311.72,407.6c0.44-0.91,1.2-0.89,2.02-0.7C313.45,408.22,312.96,408.98,311.72,407.6z"/>
	<path class="st0" d="M293.68,357.48c0.69-3.15,3.25-1.53,5.01-1.97c0,0.99,0,1.98,0,2.97c-0.05,1.11,0.19,2.32-1.03,3.03
		C295.07,361.42,295.4,358.44,293.68,357.48z"/>
	<path class="st0" d="M304.77,308.38c-0.69,0.06-1.38,0.13-2.07,0.19c-0.27-0.28-0.54-0.57-0.81-0.85c0.97,0.01,1.94,0.02,2.9,0.04
		C304.82,307.97,304.81,308.17,304.77,308.38z"/>
	<path class="st0" d="M304.77,308.38c0.04-0.21,0.05-0.41,0.02-0.62c1.36-1.37,3.05-1.52,4.83-1.29c-0.01,0.45-0.03,0.9-0.04,1.36
		C307.97,307.93,306.57,309.86,304.77,308.38z"/>
	<path class="st0" d="M313.41,306.53c-1.25-0.02-2.51-0.03-3.76-0.05c0.85-2.64,2.51-1.13,3.94-0.76
		C313.59,306,313.53,306.27,313.41,306.53z"/>
	<path class="st0" d="M303.19,324.82c-0.15-0.28-0.39-0.53-0.38-0.78c0-0.25,0.25-0.5,0.39-0.74c0.14,0.25,0.38,0.5,0.38,0.74
		C303.58,324.28,303.34,324.53,303.19,324.82z"/>
	<path class="st0" d="M309.69,313.54c0.07-0.14,0.15-0.28,0.22-0.41C309.83,313.26,309.76,313.4,309.69,313.54
		C309.68,313.54,309.69,313.54,309.69,313.54z"/>
	<path class="st0" d="M322.78,341.87c-3.8-1.56-7.62-3.05-11.76-3.45c0.83-3.06,3.51-2.09,5.21-1.85c2.5,0.35,4.9,0.23,7.35,0.05
		C323.44,338.39,324.53,340.34,322.78,341.87z"/>
	<path class="st0" d="M319.7,350.5c-1,0.01-2.01,0.01-3.01,0.02c0.03-1.09-0.18-2.26,0.96-3C318.33,348.51,319.01,349.5,319.7,350.5
		z"/>
	<path class="st0" d="M328.58,343.4c-0.72-0.03-1.31-0.11-1.09-0.74c0.12-0.34,0.68-0.6,1.1-0.74c0.15-0.05,0.67,0.44,0.64,0.51
		C329.05,342.81,328.76,343.15,328.58,343.4z"/>
	<path class="st0" d="M321.71,346.54c-0.23,1.26-0.47,2.51-2.03,0.95C320.13,346.69,320.88,346.53,321.71,346.54z"/>
	<path class="st0" d="M290.71,330.54c-0.06-0.89-0.96-3.15,0.18-2.34c2.21,1.57,6.23,2.13,5.83,6.29
		C293.95,334.33,291.97,332.99,290.71,330.54z"/>
	<path class="st0" d="M285.69,316.58c-0.69-0.36-0.68-0.73-0.01-1.11C285.69,315.83,285.69,316.2,285.69,316.58z"/>
</g>
</svg>
