<?xml version="1.0" encoding="utf-8"?>
<!-- Generator: Adobe Illustrator 27.0.0, SVG Export Plug-In . SVG Version: 6.00 Build 0)  -->
<svg version="1.1" id="Capa_1" xmlns="http://www.w3.org/2000/svg" xmlns:xlink="http://www.w3.org/1999/xlink" x="0px" y="0px"
	 viewBox="0 0 612 792" style="enable-background:new 0 0 612 792;" xml:space="preserve">
<style type="text/css">
	.st0{fill:#E32A34;}
	.st1{fill:#020202;}
</style>
<path d="M258.05,365.73c-17.88,1.84-34.9,0.04-51.91-2.3c-14.8-2.04-29.23-5.6-43.71-8.95c-4.28-0.99-8.53-2.37-12.52-4.11
	c-3.6-1.58-4.7-4.95-3.55-8.18c0.8-2.25,1.62-4.5,2.2-6.8c0.25-0.99,0.16-2.18-0.2-3.15c-2-5.41,0.51-8.99,6.64-8.77
	c3.09,0.11,6.29,0.66,9.19,1.65c12.72,4.33,25.91,6.97,39.05,9.73c10.4,2.18,20.86,4.37,31.43,5.51c11.23,1.22,22.6,1.22,33.92,1.69
	c0.59,0.02,1.29-0.44,1.79-0.84c2.35-1.84,4.52-3.89,6.98-5.58c4.61-3.17,10.9-3.08,15.61-0.02c0.16,0.1,0.33,0.2,0.48,0.32
	c2.24,1.68,4.41,2.76,7.67,2.35c4.75-0.6,8.99,1.14,12.27,4.61c0.29,0.3,0.87,0.6,1.25,0.54c9.81-1.52,19.65-2.91,29.41-4.68
	c9.63-1.75,19.24-3.67,28.76-5.9c10.58-2.49,21.06-5.39,31.56-8.16c4.13-1.09,8.21-2.15,12.42-0.23c2.11,0.96,3.84,2.91,2.95,4.8
	c-2.15,4.54-0.11,8.62,0.86,12.85c1.1,4.79,0.07,7.12-4.66,8.96c-3.61,1.4-7.36,2.57-11.15,3.46c-9.2,2.18-18.42,4.28-27.69,6.16
	c-21.53,4.37-43.34,6.24-65.35,6.24c-0.62,0-1.24,0-2.06,0c2.5,3.24,4.88,6.21,7.14,9.27c2.34,3.16,4.67,6.33,6.79,9.62
	c2.44,3.78,4.51,7.77,6.99,11.53c5.85,8.85,10.19,18.38,14.22,28.01c3.43,8.2,6.39,16.57,9.63,24.84c1.43,3.66,0.08,6.86-1.98,9.74
	c-5.86,8.19-11.96,16.21-19.17,23.43c-2.09,2.09-4.07,4.28-6.1,6.42c-2.17,2.28-4.36,1.96-5.08-1.05c-1.17-4.9-2.03-9.88-2.82-14.86
	c-0.67-4.25-0.94-8.56-1.6-12.81c-3.27-21.2-6.72-42.37-14.03-62.76c-2.53-7.07-5.45-14.02-8.21-21.02
	c-0.06-0.16-0.23-0.29-0.45-0.55c-3.61,1.53-7.44,1.87-11.25,0.89c-1.88-0.48-3.71-1.38-5.33-2.41c-1.48-0.94-2.8-1.03-3.6,0.45
	c-1.06,1.94-2.13,3.91-2.83,5.97c-3.8,11.16-7.46,22.36-11.22,33.52c-4.22,12.51-6.01,25.46-7.89,38.39
	c-1.54,10.52-2.91,21.07-4.39,31.6c-0.17,1.21-0.57,2.4-0.9,3.58c-0.35,1.25-1.02,2.55-2.48,2.47c-1.14-0.07-2.48-0.72-3.27-1.52
	c-2.85-2.88-5.31-6.1-8.26-8.88c-5.03-4.73-8.83-10.28-12.8-15.74c-1.97-2.7-4.64-4.91-5.83-8.18c-0.8-2.22-1.02-4.33-0.21-6.47
	c4.99-13.23,9.49-26.66,16.21-39.24c4.53-8.48,9.39-16.83,14.55-25c3.66-5.78,8.13-11.1,12.06-16.74
	C258.22,368.57,257.91,367.14,258.05,365.73z M324.45,487.78c0.23,0.04,0.45,0.09,0.68,0.13c0.39-0.47,0.77-0.95,1.18-1.41
	c1.54-1.75,3.05-3.53,4.63-5.25c2.48-2.67,5.2-5.16,7.47-7.98c3.49-4.34,6.67-8.9,9.99-13.36c2.42-3.26,3.39-6.52,1.46-10.5
	c-1.99-4.09-3.27-8.49-4.9-12.73c-4.12-10.72-8.61-21.27-14.21-31.43c-6.15-11.17-12.44-22.24-19.6-32.87
	c-1.1-1.64-2.35-3.18-3.4-4.59c-3.02,2.39-5.86,4.61-8.64,6.89c-0.29,0.23-0.45,0.87-0.33,1.22c0.7,2.1,1.44,4.2,2.28,6.26
	c2.13,5.24,4.77,10.34,6.41,15.7c3.79,12.42,7.95,24.83,10.39,37.51c2.73,14.17,3.73,28.63,5.47,42.96
	C323.72,481.48,324.08,484.63,324.45,487.78z M259.21,370.52c-1.47,2.27-2.98,4.48-4.37,6.75c-3.16,5.14-6.49,10.2-9.33,15.5
	c-5.45,10.18-11.04,20.33-15.77,30.81c-4.15,9.19-7.22,18.81-10.75,28.25c-0.9,2.4-0.23,4.63,1.16,6.66
	c1.41,2.06,3.06,3.98,4.42,6.07c3.55,5.45,7.71,10.45,12.22,15.22c2.55,2.69,4.99,5.47,7.62,8.38c0.2-0.66,0.42-1.16,0.51-1.67
	c0.53-3.2,1.13-6.39,1.51-9.61c0.52-4.44,0.7-8.92,1.3-13.35c1.42-10.47,2.69-20.97,4.59-31.37c2.13-11.66,5.18-23.13,9.9-34.16
	c1.91-4.48,3.47-9.09,5.16-13.65c1.16-3.1,2.28-6.22,3.44-9.41c-0.61-0.07-1.06-0.12-1.51-0.17c-3.18-0.35-3.2-0.23-4.27,2.68
	c-1.13,3.11-2.46,6.17-3.78,9.22c-1.34,3.1-2.99,6.09-4.13,9.24c-3.97,10.96-7.8,21.96-11.65,32.95c-1.1,3.15-2.07,6.33-3.14,9.49
	c-0.18,0.54-0.53,1.03-0.8,1.55c-0.41-0.58-0.48-1.01-0.4-1.42c1.48-7.88,2.7-15.76,5.47-23.44c3.59-9.95,7.18-19.86,11.76-29.45
	c0.51-1.06,0.9-2.19,1.5-3.2c1.67-2.79,3.42-5.54,5.08-8.22C262.86,372.84,261.09,371.72,259.21,370.52z M266.27,346.11
	c-0.7-0.05-1.07-0.08-1.45-0.09c-6.8-0.29-13.62-0.34-20.4-0.91c-15.13-1.28-30.11-3.57-44.89-6.91
	c-12.77-2.89-25.66-5.39-37.9-10.06c-2.09-0.8-4.4-1.2-6.64-1.54c-3.79-0.56-5.24,1.17-4.14,4.54c0.73,2.22,1.39,4.47,1.81,6.76
	c0.37,2.03-0.23,2.43-2.44,2.08c-0.1,0.48-0.21,0.96-0.3,1.44c-0.92,5.15-0.49,6.05,4.77,7.79c3.19,1.05,6.53,1.74,9.85,2.42
	c13.35,2.74,26.63,5.84,40.09,7.98c10.74,1.71,21.68,2.54,32.57,3.17c6.43,0.37,12.94-0.37,19.41-0.69
	c0.47-0.02,1.07-0.69,1.32-1.18c0.92-1.86,1.57-3.86,2.61-5.66C262.28,352.22,264.24,349.32,266.27,346.11z M310.28,363.73
	c0.68,0.06,1.06,0.12,1.43,0.12c16.38-0.38,32.74-1.26,48.89-3.88c11.4-1.85,22.69-4.31,34-6.64c6-1.24,12.08-2.37,17.84-4.29
	c6.32-2.1,6.26-2.74,4.55-9.11c-2.6,0.49-3.25,0-2.61-2.53c0.66-2.6,1.77-5.09,2.53-7.67c0.17-0.59-0.07-1.75-0.5-1.96
	c-1.27-0.62-2.75-1.28-4.12-1.23c-1.85,0.06-3.71,0.66-5.5,1.22c-4.28,1.33-8.44,3.06-12.8,4.11c-12.41,2.99-24.84,5.96-37.37,8.47
	c-8.49,1.7-17.15,2.72-25.77,3.84c-5.23,0.68-10.52,0.96-15.88,1.42C316.36,352.09,313.85,357.89,310.28,363.73z M276.18,372.4
	c-1.1-1.39-2.06-2.45-2.81-3.63c-0.27-0.42-0.03-1.12-0.02-1.69c0.67,0.07,1.37,0.06,2.01,0.24c0.32,0.09,0.53,0.52,0.78,0.8
	c1.6,1.78,3.18,3.59,4.82,5.35c1.66,1.79,3.66,2.26,6.19,1.69c3.36-0.75,6.19-2.33,8.75-4.37c2.49-1.99,4.89-4.08,7.22-6.22
	c4.85-4.46,8.22-9.55,7.46-16.29c-0.57-5.06-3.35-8.07-7.93-8c-2.05,0.03-4.13,0.93-6.09,1.7c-1.27,0.5-2.33,1.47-3.71,2.38
	c-0.4-2.24,1.59-2.99,2.43-4.39c-2.06-1.79-4.45-2.86-7.07-3.75c-3.47-1.19-6.38-0.4-8.97,1.62c-7.22,5.66-12.9,12.5-17.01,20.46
	c-1.53,2.96-1.61,6.06-0.39,9.14c0.99,2.51,2.87,4.07,5.8,4.32C270.32,371.97,272.99,372.16,276.18,372.4z"/>
<path d="M257.26,365.38c-17.76,1.8-34.65,0.06-51.55-2.21c-14.7-1.98-29.03-5.44-43.41-8.71c-4.25-0.96-8.47-2.3-12.44-4.01
	c-3.57-1.54-4.67-4.83-3.53-7.97c0.79-2.19,1.61-4.39,2.18-6.63c0.25-0.96,0.15-2.13-0.2-3.07c-1.99-5.28,0.5-8.77,6.59-8.56
	c3.07,0.11,6.24,0.64,9.12,1.6c12.63,4.22,25.73,6.78,38.79,9.46c10.33,2.12,20.72,4.25,31.21,5.36
	c11.15,1.18,22.45,1.18,33.68,1.63c0.58,0.02,1.28-0.43,1.78-0.82c2.33-1.8,4.49-3.8,6.93-5.45c4.58-3.09,10.82-3.01,15.51-0.03
	c0.16,0.1,0.33,0.2,0.48,0.31c2.23,1.64,4.38,2.69,7.62,2.29c4.71-0.59,8.93,1.11,12.19,4.49c0.28,0.29,0.86,0.58,1.24,0.53
	c9.74-1.48,19.51-2.85,29.2-4.58c9.56-1.71,19.11-3.59,28.56-5.77c10.51-2.43,20.91-5.27,31.34-7.97c4.1-1.06,8.15-2.1,12.33-0.23
	c2.1,0.94,3.82,2.83,2.94,4.68c-2.13,4.43-0.11,8.41,0.86,12.53c1.1,4.67,0.07,6.95-4.62,8.74c-3.59,1.37-7.31,2.51-11.07,3.39
	c-9.13,2.13-18.29,4.18-27.5,6.02c-21.37,4.28-43.04,6.11-64.89,6.12c-0.62,0-1.23,0-2.04,0c2.48,3.15,4.85,6.06,7.1,9.04
	c2.32,3.08,4.64,6.17,6.75,9.38c2.43,3.69,4.48,7.58,6.95,11.24c5.81,8.63,10.13,17.92,14.14,27.31c3.42,7.99,6.36,16.15,9.57,24.22
	c1.43,3.57,0.08,6.69-1.96,9.5c-5.81,7.99-11.87,15.81-19.03,22.86c-2.07,2.04-4.04,4.18-6.06,6.27c-2.15,2.23-4.33,1.91-5.05-1.03
	c-1.17-4.78-2.02-9.64-2.8-14.49c-0.67-4.15-0.94-8.35-1.59-12.5c-3.25-20.67-6.7-41.32-13.97-61.21
	c-2.52-6.89-5.42-13.67-8.16-20.49c-0.06-0.16-0.23-0.28-0.44-0.54c-3.59,1.5-7.39,1.82-11.17,0.87c-1.87-0.47-3.68-1.35-5.29-2.35
	c-1.47-0.91-2.78-1.01-3.58,0.44c-1.05,1.89-2.11,3.81-2.81,5.82c-3.77,10.88-7.39,21.81-11.13,32.7
	c-4.18,12.21-5.95,24.84-7.82,37.45c-1.52,10.27-2.87,20.55-4.34,30.83c-0.17,1.18-0.56,2.34-0.89,3.49
	c-0.35,1.22-1.01,2.49-2.46,2.41c-1.13-0.06-2.47-0.7-3.25-1.48c-2.83-2.81-5.28-5.95-8.21-8.65c-5-4.61-8.77-10.02-12.72-15.35
	c-1.95-2.64-4.61-4.79-5.79-7.97c-0.8-2.17-1.01-4.22-0.21-6.31c4.95-12.91,9.41-26,16.08-38.28c4.5-8.28,9.32-16.42,14.44-24.39
	c3.63-5.64,8.06-10.84,11.97-16.33C257.42,368.15,257.12,366.75,257.26,365.38z M323.26,484.38c0.22,0.04,0.45,0.09,0.67,0.13
	c0.39-0.46,0.77-0.92,1.17-1.37c1.53-1.71,3.02-3.45,4.6-5.12c2.46-2.61,5.16-5.04,7.41-7.79c3.46-4.24,6.62-8.68,9.91-13.03
	c2.41-3.18,3.36-6.36,1.45-10.24c-1.97-3.99-3.25-8.27-4.87-12.42c-4.09-10.46-8.56-20.74-14.13-30.65
	C323.36,393,317.11,382.2,310,371.84c-1.1-1.6-2.34-3.1-3.38-4.48c-2.99,2.33-5.81,4.5-8.58,6.72c-0.28,0.23-0.45,0.85-0.33,1.19
	c0.7,2.05,1.43,4.1,2.27,6.1c2.12,5.11,4.74,10.08,6.37,15.31c3.77,12.11,7.91,24.21,10.34,36.58c2.72,13.82,3.72,27.92,5.46,41.9
	C322.53,478.24,322.89,481.31,323.26,484.38z M258.4,370.05c-1.46,2.21-2.95,4.37-4.34,6.59c-3.13,5.02-6.44,9.95-9.26,15.12
	c-5.41,9.93-10.95,19.84-15.64,30.06c-4.12,8.97-7.16,18.35-10.66,27.56c-0.89,2.35-0.23,4.51,1.16,6.5
	c1.4,2.01,3.04,3.88,4.39,5.92c3.53,5.32,7.66,10.19,12.15,14.84c2.53,2.62,4.96,5.34,7.57,8.17c0.2-0.65,0.42-1.13,0.5-1.63
	c0.52-3.12,1.12-6.24,1.49-9.37c0.51-4.33,0.69-8.7,1.29-13.03c1.4-10.21,2.66-20.46,4.54-30.6c2.11-11.37,5.13-22.56,9.81-33.33
	c1.9-4.37,3.44-8.87,5.12-13.32c1.15-3.03,2.26-6.07,3.41-9.18c-0.6-0.07-1.05-0.12-1.5-0.17c-3.15-0.34-3.18-0.22-4.24,2.62
	c-1.13,3.04-2.44,6.02-3.75,9c-1.33,3.02-2.96,5.94-4.1,9.02c-3.94,10.69-7.73,21.42-11.55,32.15c-1.09,3.07-2.06,6.18-3.11,9.26
	c-0.18,0.53-0.53,1.01-0.8,1.51c-0.41-0.57-0.47-0.99-0.4-1.38c1.46-7.69,2.67-15.37,5.42-22.87c3.56-9.7,7.12-19.37,11.67-28.73
	c0.5-1.04,0.89-2.13,1.49-3.12c1.65-2.72,3.39-5.4,5.04-8.02C262.04,372.32,260.27,371.22,258.4,370.05z M265.41,346.24
	c-0.69-0.04-1.07-0.07-1.44-0.09c-6.75-0.28-13.53-0.33-20.26-0.88c-15.03-1.24-29.9-3.46-44.58-6.72
	c-12.69-2.81-25.48-5.24-37.64-9.79c-2.08-0.78-4.37-1.17-6.6-1.49c-3.76-0.54-5.21,1.14-4.11,4.43c0.72,2.16,1.39,4.36,1.8,6.59
	c0.37,1.98-0.23,2.37-2.42,2.03c-0.1,0.47-0.21,0.94-0.29,1.41c-0.91,5.02-0.49,5.9,4.75,7.59c3.17,1.02,6.49,1.7,9.78,2.36
	c13.25,2.67,26.45,5.68,39.81,7.76c10.67,1.66,21.53,2.46,32.35,3.07c6.39,0.36,12.85-0.37,19.28-0.69
	c0.47-0.02,1.06-0.67,1.31-1.15c0.92-1.82,1.56-3.77,2.59-5.53C261.45,352.2,263.39,349.38,265.41,346.24z M309.13,363.4
	c0.68,0.06,1.05,0.12,1.42,0.11c16.27-0.38,32.51-1.25,48.55-3.82c11.32-1.81,22.53-4.22,33.76-6.49
	c5.96-1.21,11.99-2.32,17.72-4.19c6.27-2.05,6.21-2.67,4.51-8.89c-2.59,0.48-3.22,0-2.59-2.47c0.65-2.53,1.76-4.96,2.51-7.48
	c0.17-0.58-0.07-1.7-0.49-1.91c-1.26-0.61-2.73-1.24-4.09-1.2c-1.84,0.06-3.69,0.65-5.46,1.19c-4.25,1.3-8.38,2.99-12.71,4.01
	c-12.32,2.92-24.66,5.83-37.1,8.29c-8.43,1.67-17.03,2.66-25.59,3.76c-5.2,0.66-10.45,0.94-15.77,1.39
	C315.15,352.04,312.66,357.7,309.13,363.4z M275.26,371.87c-1.09-1.35-2.04-2.39-2.79-3.54c-0.26-0.41-0.03-1.09-0.02-1.65
	c0.67,0.07,1.36,0.06,1.99,0.23c0.32,0.09,0.53,0.5,0.78,0.78c1.59,1.74,3.16,3.5,4.79,5.21c1.65,1.75,3.64,2.2,6.15,1.65
	c3.34-0.73,6.15-2.28,8.68-4.27c2.47-1.94,4.85-3.98,7.17-6.07c4.81-4.35,8.16-9.32,7.4-15.89c-0.57-4.94-3.33-7.87-7.87-7.79
	c-2.03,0.03-4.11,0.91-6.04,1.66c-1.26,0.49-2.32,1.44-3.68,2.32c-0.39-2.19,1.58-2.92,2.42-4.29c-2.04-1.75-4.42-2.78-7.02-3.66
	c-3.45-1.16-6.34-0.39-8.9,1.59c-7.17,5.53-12.81,12.2-16.88,19.96c-1.52,2.89-1.59,5.91-0.38,8.91c0.99,2.45,2.85,3.97,5.76,4.21
	C269.44,371.46,272.09,371.64,275.26,371.87z"/>
<g>
	<path class="st0" d="M309.57,366.61c0.91,1.08,1.54,1.83,2.18,2.58c7.23,8.47,12.85,17.9,18.62,27.27
		c5.72,9.29,10.48,18.97,14.62,28.93c3.39,8.16,6.36,16.48,9.52,24.72c1,2.6,0.82,5.24-0.68,7.49c-2.63,3.93-5.6,7.66-8.45,11.47
		c-1.62,2.16-3.14,4.42-4.96,6.43c-3.08,3.4-6.39,6.62-9.56,9.96c-1.13,1.19-2,2.6-3.21,3.69c-0.92,0.83-2.32,1.92-3.29,1.75
		c-0.94-0.16-2.05-1.67-2.32-2.75c-0.95-3.77-1.7-7.59-2.27-11.42c-0.79-5.3-1.13-10.67-2.05-15.95
		c-2.65-15.33-4.43-30.81-8.85-45.83c-1.57-5.33-3.05-10.7-4.91-15.94c-2.63-7.38-5.58-14.67-8.4-21.99
		c-0.06-0.17-0.21-0.3-0.4-0.57c-0.58,0.16-1.17,0.34-1.78,0.49c-5.47,1.39-10.71,1.54-15.27-2.36c-1-0.85-2.67-0.56-3.18,0.64
		c-1.9,4.42-3.86,8.83-5.48,13.35c-2.72,7.63-5.24,15.32-7.77,23c-3.94,11.94-6.22,24.21-7.99,36.57
		c-1.75,12.2-3.36,24.42-5.11,36.62c-0.22,1.57-0.8,3.1-1.31,4.62c-0.65,1.93-2.69,2.49-4.35,1.22c-0.5-0.38-0.93-0.87-1.35-1.34
		c-2.66-2.95-5.04-6.18-8.02-8.8c-5.85-5.17-9.63-11.75-14.4-17.65c-1.55-1.92-2.97-3.98-4.14-6.13c-1.11-2.04-1.02-4.31-0.2-6.48
		c5.02-13.25,9.5-26.71,16.22-39.31c4.51-8.45,9.33-16.77,14.47-24.89c3.69-5.84,8.19-11.23,12.16-16.93
		c0.61-0.87,0.28-2.31,0.38-3.36c-6.61,0.14-12.77,0.7-18.87,0.31c-11.36-0.73-22.78-1.42-33.98-3.23
		c-14.43-2.33-28.68-5.65-42.95-8.74c-4.04-0.88-8.07-2.14-11.82-3.78c-4.02-1.76-5.24-5.03-4.02-8.54c0.76-2.2,1.59-4.39,2.16-6.64
		c0.26-1,0.23-2.2-0.12-3.16c-2.04-5.7,0.78-9.42,7.24-8.98c2.97,0.2,5.91,1.02,8.8,1.76c8.88,2.29,17.7,4.81,26.62,7
		c8.22,2.02,16.48,3.92,24.8,5.52c17.32,3.34,34.85,4.73,52.53,4.4c0.63-0.01,1.36-0.31,1.85-0.7c1.94-1.54,3.86-3.1,5.67-4.76
		c4.31-3.94,13.41-4.56,18.02-0.36c0.88,0.8,1.97,1.43,3.03,2.02c0.42,0.24,1.07,0.28,1.58,0.19c5.78-0.99,10.74,0.35,14.84,4.4
		c0.33,0.33,1,0.62,1.44,0.55c7.29-1.13,14.58-2.29,21.86-3.5c6.5-1.08,13-2.15,19.46-3.39c6.84-1.32,13.68-2.66,20.44-4.31
		c8.03-1.96,15.97-4.27,23.95-6.4c3.02-0.81,6.04-1.6,9.09-2.29c2.59-0.59,5.07-0.02,7.45,0.98c1.94,0.82,3.1,2.87,2.8,4.86
		c-0.03,0.18-0.04,0.38-0.13,0.54c-1.87,3.31-0.73,6.53,0.24,9.79c0.42,1.42,0.74,2.87,0.96,4.33c0.47,3.12-1.14,5.44-4.12,6.82
		c-5.29,2.46-10.98,3.61-16.67,4.77c-13.36,2.72-26.67,5.73-40.12,7.98c-15.76,2.64-31.74,3.43-47.76,3.34
		C311.52,366.49,310.76,366.56,309.57,366.61z"/>
	<g>
		<g>
			<path class="st1" d="M225.27,440.64c6.56,3.96,13.37,7.48,20.38,10.57c1.23,0.54,2.68,0.36,3.42-0.9
				c0.62-1.06,0.34-2.87-0.9-3.42c-7.01-3.09-13.82-6.61-20.38-10.57C225.03,434.66,222.52,438.98,225.27,440.64L225.27,440.64z"/>
		</g>
	</g>
	<g>
		<g>
			<path class="st1" d="M323.73,456.92c7.2-4.43,14.78-8.24,22.65-11.32c1.26-0.49,2.13-1.68,1.75-3.08
				c-0.33-1.2-1.81-2.24-3.08-1.75c-8.28,3.25-16.27,7.16-23.85,11.83C318.47,454.29,320.98,458.61,323.73,456.92L323.73,456.92z"/>
		</g>
	</g>
	<path d="M258.03,365.37c-17.88,1.84-34.9,0.04-51.91-2.3c-14.8-2.04-29.23-5.61-43.71-8.97c-4.28-0.99-8.53-2.37-12.52-4.12
		c-3.6-1.58-4.7-4.96-3.55-8.19c0.8-2.25,1.62-4.51,2.2-6.81c0.25-0.99,0.16-2.19-0.2-3.15c-2-5.42,0.51-9.01,6.64-8.79
		c3.09,0.11,6.29,0.66,9.19,1.65c12.72,4.34,25.91,6.98,39.06,9.75c10.4,2.19,20.87,4.38,31.43,5.52c11.23,1.22,22.6,1.22,33.92,1.7
		c0.59,0.02,1.29-0.44,1.79-0.84c2.35-1.84,4.52-3.9,6.98-5.59c4.62-3.18,10.9-3.09,15.61-0.02c0.16,0.11,0.33,0.2,0.48,0.32
		c2.24,1.69,4.41,2.77,7.68,2.35c4.75-0.6,8.99,1.14,12.27,4.62c0.29,0.3,0.87,0.6,1.25,0.54c9.81-1.52,19.65-2.92,29.41-4.69
		c9.63-1.75,19.24-3.68,28.76-5.92c10.58-2.49,21.06-5.4,31.57-8.17c4.13-1.09,8.21-2.15,12.42-0.23c2.11,0.96,3.84,2.91,2.95,4.81
		c-2.15,4.55-0.11,8.64,0.86,12.88c1.1,4.8,0.07,7.14-4.66,8.98c-3.61,1.4-7.36,2.57-11.15,3.47c-9.2,2.18-18.42,4.29-27.69,6.17
		c-21.53,4.38-43.35,6.25-65.36,6.25c-0.62,0-1.24,0-2.06,0c2.5,3.24,4.88,6.23,7.15,9.29c2.34,3.17,4.67,6.35,6.79,9.64
		c2.44,3.79,4.51,7.79,6.99,11.55c5.85,8.87,10.19,18.42,14.23,28.07c3.44,8.21,6.39,16.6,9.63,24.89c1.43,3.67,0.08,6.88-1.98,9.76
		c-5.86,8.2-11.97,16.24-19.17,23.48c-2.09,2.1-4.07,4.29-6.1,6.44c-2.17,2.29-4.36,1.96-5.08-1.06c-1.17-4.91-2.03-9.9-2.82-14.89
		c-0.67-4.26-0.94-8.58-1.6-12.84c-3.27-21.24-6.72-42.46-14.03-62.9c-2.53-7.08-5.45-14.05-8.21-21.06
		c-0.06-0.16-0.23-0.29-0.45-0.55c-3.61,1.54-7.44,1.87-11.25,0.89c-1.88-0.48-3.71-1.39-5.33-2.42c-1.48-0.94-2.8-1.04-3.6,0.45
		c-1.06,1.94-2.13,3.91-2.83,5.98c-3.8,11.18-7.46,22.4-11.22,33.59c-4.22,12.54-6.01,25.52-7.89,38.47
		c-1.54,10.55-2.91,21.12-4.39,31.67c-0.17,1.21-0.57,2.4-0.9,3.59c-0.35,1.25-1.02,2.56-2.48,2.48c-1.14-0.07-2.49-0.73-3.28-1.53
		c-2.85-2.89-5.31-6.12-8.26-8.9c-5.03-4.74-8.83-10.31-12.8-15.78c-1.97-2.71-4.64-4.92-5.83-8.2c-0.8-2.23-1.02-4.34-0.21-6.49
		c4.99-13.26,9.5-26.71,16.22-39.32c4.53-8.5,9.39-16.87,14.55-25.05c3.66-5.79,8.13-11.13,12.06-16.77
		C258.2,368.21,257.89,366.77,258.03,365.37z M324.44,487.68c0.23,0.04,0.45,0.09,0.68,0.13c0.39-0.47,0.77-0.95,1.18-1.41
		c1.54-1.76,3.05-3.54,4.64-5.26c2.48-2.68,5.2-5.17,7.47-8c3.49-4.35,6.67-8.92,9.99-13.39c2.42-3.27,3.39-6.53,1.46-10.52
		c-1.99-4.1-3.27-8.5-4.9-12.76c-4.12-10.75-8.61-21.32-14.21-31.5c-6.15-11.19-12.44-22.29-19.6-32.94c-1.1-1.64-2.35-3.19-3.4-4.6
		c-3.02,2.39-5.86,4.62-8.64,6.9c-0.29,0.23-0.45,0.87-0.33,1.22c0.7,2.11,1.44,4.21,2.28,6.27c2.13,5.25,4.77,10.36,6.41,15.74
		c3.79,12.45,7.95,24.88,10.39,37.59c2.73,14.2,3.73,28.69,5.48,43.05C323.71,481.36,324.07,484.52,324.44,487.68z M259.19,370.17
		c-1.47,2.27-2.98,4.49-4.37,6.76c-3.16,5.15-6.5,10.22-9.33,15.53c-5.46,10.2-11.04,20.38-15.77,30.88
		c-4.15,9.21-7.22,18.85-10.75,28.31c-0.9,2.41-0.23,4.64,1.16,6.68c1.41,2.07,3.06,3.99,4.42,6.09
		c3.55,5.46,7.71,10.48,12.23,15.25c2.55,2.7,4.99,5.49,7.62,8.4c0.21-0.66,0.42-1.16,0.51-1.68c0.53-3.21,1.13-6.41,1.51-9.63
		c0.52-4.45,0.7-8.94,1.3-13.38c1.42-10.49,2.69-21.02,4.59-31.44c2.13-11.68,5.18-23.18,9.9-34.24c1.91-4.49,3.47-9.11,5.16-13.68
		c1.16-3.11,2.28-6.23,3.44-9.43c-0.61-0.07-1.06-0.12-1.51-0.17c-3.18-0.35-3.2-0.23-4.27,2.69c-1.13,3.12-2.46,6.18-3.78,9.24
		c-1.34,3.1-2.99,6.1-4.13,9.26c-3.97,10.98-7.8,22-11.65,33.02c-1.1,3.15-2.07,6.35-3.14,9.51c-0.18,0.54-0.53,1.04-0.8,1.55
		c-0.41-0.59-0.48-1.01-0.4-1.42c1.48-7.9,2.7-15.79,5.47-23.49c3.59-9.97,7.18-19.9,11.77-29.51c0.51-1.07,0.9-2.19,1.5-3.2
		c1.67-2.8,3.42-5.55,5.09-8.24C262.84,372.49,261.07,371.37,259.19,370.17z M266.26,345.7c-0.7-0.05-1.07-0.08-1.45-0.09
		c-6.8-0.29-13.63-0.34-20.4-0.92c-15.13-1.28-30.11-3.57-44.89-6.93c-12.77-2.9-25.66-5.4-37.9-10.08c-2.09-0.8-4.4-1.21-6.65-1.54
		c-3.79-0.56-5.24,1.17-4.14,4.55c0.73,2.22,1.39,4.48,1.81,6.77c0.37,2.03-0.23,2.44-2.44,2.09c-0.1,0.48-0.21,0.96-0.3,1.45
		c-0.92,5.16-0.49,6.07,4.77,7.8c3.19,1.05,6.53,1.75,9.85,2.43c13.35,2.75,26.63,5.85,40.09,8c10.74,1.72,21.68,2.54,32.58,3.18
		c6.43,0.37,12.94-0.37,19.41-0.7c0.47-0.02,1.07-0.69,1.32-1.19c0.92-1.87,1.57-3.87,2.61-5.68
		C262.27,351.83,264.22,348.92,266.26,345.7z M310.27,363.36c0.68,0.06,1.06,0.13,1.43,0.12c16.38-0.38,32.74-1.26,48.9-3.89
		c11.4-1.86,22.69-4.32,34-6.65c6-1.24,12.08-2.38,17.85-4.3c6.32-2.1,6.26-2.74,4.55-9.13c-2.6,0.49-3.25,0-2.61-2.54
		c0.66-2.6,1.77-5.1,2.53-7.68c0.17-0.59-0.07-1.75-0.5-1.96c-1.27-0.63-2.75-1.28-4.12-1.23c-1.85,0.06-3.71,0.66-5.5,1.22
		c-4.28,1.33-8.45,3.06-12.8,4.11c-12.41,3-24.84,5.98-37.37,8.49c-8.5,1.71-17.16,2.73-25.77,3.84
		c-5.23,0.68-10.53,0.96-15.88,1.42C316.34,351.69,313.84,357.5,310.27,363.36z M276.16,372.05c-1.1-1.39-2.06-2.46-2.81-3.64
		c-0.27-0.42-0.03-1.12-0.02-1.69c0.67,0.07,1.37,0.06,2.01,0.24c0.32,0.09,0.53,0.52,0.78,0.8c1.6,1.79,3.18,3.6,4.82,5.36
		c1.66,1.79,3.66,2.26,6.19,1.7c3.36-0.75,6.19-2.33,8.75-4.38c2.49-1.99,4.89-4.09,7.22-6.24c4.85-4.47,8.22-9.57,7.46-16.32
		c-0.57-5.07-3.35-8.09-7.93-8.01c-2.05,0.03-4.13,0.93-6.09,1.7c-1.27,0.5-2.33,1.47-3.71,2.38c-0.4-2.25,1.59-3,2.44-4.4
		c-2.06-1.8-4.45-2.86-7.07-3.76c-3.47-1.19-6.38-0.4-8.97,1.62c-7.22,5.68-12.9,12.53-17.01,20.5c-1.53,2.97-1.61,6.07-0.39,9.16
		c0.99,2.51,2.87,4.08,5.8,4.33C270.3,371.62,272.97,371.81,276.16,372.05z"/>
</g>
</svg>
