<?xml version="1.0" encoding="utf-8"?>
<!-- Generator: Adobe Illustrator 27.0.0, SVG Export Plug-In . SVG Version: 6.00 Build 0)  -->
<svg version="1.1" id="Capa_1" xmlns="http://www.w3.org/2000/svg" xmlns:xlink="http://www.w3.org/1999/xlink" x="0px" y="0px"
	 viewBox="0 0 612 792" style="enable-background:new 0 0 612 792;" xml:space="preserve">
<style type="text/css">
	.st0{fill:#317330;}
	.st1{fill:#2B3078;}
</style>
<path d="M258.05,365.73c-17.88,1.84-34.9,0.04-51.91-2.3c-14.8-2.04-29.23-5.6-43.71-8.95c-4.28-0.99-8.53-2.37-12.52-4.11
	c-3.6-1.58-4.7-4.95-3.55-8.18c0.8-2.25,1.62-4.5,2.2-6.8c0.25-0.99,0.16-2.18-0.2-3.15c-2-5.41,0.51-8.99,6.64-8.77
	c3.09,0.11,6.29,0.66,9.19,1.65c12.72,4.33,25.91,6.97,39.05,9.73c10.4,2.18,20.86,4.37,31.43,5.51c11.23,1.22,22.6,1.22,33.92,1.69
	c0.59,0.02,1.29-0.44,1.79-0.84c2.35-1.84,4.52-3.89,6.98-5.58c4.61-3.17,10.9-3.08,15.61-0.02c0.16,0.1,0.33,0.2,0.48,0.32
	c2.24,1.68,4.41,2.76,7.67,2.35c4.75-0.6,8.99,1.14,12.27,4.61c0.29,0.3,0.87,0.6,1.25,0.54c9.81-1.52,19.65-2.91,29.41-4.68
	c9.63-1.75,19.24-3.67,28.76-5.9c10.58-2.49,21.06-5.39,31.56-8.16c4.13-1.09,8.21-2.15,12.42-0.23c2.11,0.96,3.84,2.91,2.95,4.8
	c-2.15,4.54-0.11,8.62,0.86,12.85c1.1,4.79,0.07,7.12-4.66,8.96c-3.61,1.4-7.36,2.57-11.15,3.46c-9.2,2.18-18.42,4.28-27.69,6.16
	c-21.53,4.37-43.34,6.24-65.35,6.24c-0.62,0-1.24,0-2.06,0c2.5,3.24,4.88,6.21,7.14,9.27c2.34,3.16,4.67,6.33,6.79,9.62
	c2.44,3.78,4.51,7.77,6.99,11.53c5.85,8.85,10.19,18.38,14.22,28.01c3.43,8.2,6.39,16.57,9.63,24.84c1.43,3.66,0.08,6.86-1.98,9.74
	c-5.86,8.19-11.96,16.21-19.17,23.43c-2.09,2.09-4.07,4.28-6.1,6.42c-2.17,2.28-4.36,1.96-5.08-1.05c-1.17-4.9-2.03-9.88-2.82-14.86
	c-0.67-4.25-0.94-8.56-1.6-12.81c-3.27-21.2-6.72-42.37-14.03-62.76c-2.53-7.07-5.45-14.02-8.21-21.02
	c-0.06-0.16-0.23-0.29-0.45-0.55c-3.61,1.53-7.44,1.87-11.25,0.89c-1.88-0.48-3.71-1.38-5.33-2.41c-1.48-0.94-2.8-1.03-3.6,0.45
	c-1.06,1.94-2.13,3.91-2.83,5.97c-3.8,11.16-7.46,22.36-11.22,33.52c-4.22,12.51-6.01,25.46-7.89,38.39
	c-1.54,10.52-2.91,21.07-4.39,31.6c-0.17,1.21-0.57,2.4-0.9,3.58c-0.35,1.25-1.02,2.55-2.48,2.47c-1.14-0.07-2.48-0.72-3.27-1.52
	c-2.85-2.88-5.31-6.1-8.26-8.88c-5.03-4.73-8.83-10.28-12.8-15.74c-1.97-2.7-4.64-4.91-5.83-8.18c-0.8-2.22-1.02-4.33-0.21-6.47
	c4.99-13.23,9.49-26.66,16.21-39.24c4.53-8.48,9.39-16.83,14.55-25c3.66-5.78,8.13-11.1,12.06-16.74
	C258.22,368.57,257.91,367.14,258.05,365.73z M324.45,487.78c0.23,0.04,0.45,0.09,0.68,0.13c0.39-0.47,0.77-0.95,1.18-1.41
	c1.54-1.75,3.05-3.53,4.63-5.25c2.48-2.67,5.2-5.16,7.47-7.98c3.49-4.34,6.67-8.9,9.99-13.36c2.42-3.26,3.39-6.52,1.46-10.5
	c-1.99-4.09-3.27-8.49-4.9-12.73c-4.12-10.72-8.61-21.27-14.21-31.43c-6.15-11.17-12.44-22.24-19.6-32.87
	c-1.1-1.64-2.35-3.18-3.4-4.59c-3.02,2.39-5.86,4.61-8.64,6.89c-0.29,0.23-0.45,0.87-0.33,1.22c0.7,2.1,1.44,4.2,2.28,6.26
	c2.13,5.24,4.77,10.34,6.41,15.7c3.79,12.42,7.95,24.83,10.39,37.51c2.73,14.17,3.73,28.63,5.47,42.96
	C323.72,481.48,324.08,484.63,324.45,487.78z M259.21,370.52c-1.47,2.27-2.98,4.48-4.37,6.75c-3.16,5.14-6.49,10.2-9.33,15.5
	c-5.45,10.18-11.04,20.33-15.77,30.81c-4.15,9.19-7.22,18.81-10.75,28.25c-0.9,2.4-0.23,4.63,1.16,6.66
	c1.41,2.06,3.06,3.98,4.42,6.07c3.55,5.45,7.71,10.45,12.22,15.22c2.55,2.69,4.99,5.47,7.62,8.38c0.2-0.66,0.42-1.16,0.51-1.67
	c0.53-3.2,1.13-6.39,1.51-9.61c0.52-4.44,0.7-8.92,1.3-13.35c1.42-10.47,2.69-20.97,4.59-31.37c2.13-11.66,5.18-23.13,9.9-34.16
	c1.91-4.48,3.47-9.09,5.16-13.65c1.16-3.1,2.28-6.22,3.44-9.41c-0.61-0.07-1.06-0.12-1.51-0.17c-3.18-0.35-3.2-0.23-4.27,2.68
	c-1.13,3.11-2.46,6.17-3.78,9.22c-1.34,3.1-2.99,6.09-4.13,9.24c-3.97,10.96-7.8,21.96-11.65,32.95c-1.1,3.15-2.07,6.33-3.14,9.49
	c-0.18,0.54-0.53,1.03-0.8,1.55c-0.41-0.58-0.48-1.01-0.4-1.42c1.48-7.88,2.7-15.76,5.47-23.44c3.59-9.95,7.18-19.86,11.76-29.45
	c0.51-1.06,0.9-2.19,1.5-3.2c1.67-2.79,3.42-5.54,5.08-8.22C262.86,372.84,261.09,371.72,259.21,370.52z M266.27,346.11
	c-0.7-0.05-1.07-0.08-1.45-0.09c-6.8-0.29-13.62-0.34-20.4-0.91c-15.13-1.28-30.11-3.57-44.89-6.91
	c-12.77-2.89-25.66-5.39-37.9-10.06c-2.09-0.8-4.4-1.2-6.64-1.54c-3.79-0.56-5.24,1.17-4.14,4.54c0.73,2.22,1.39,4.47,1.81,6.76
	c0.37,2.03-0.23,2.43-2.44,2.08c-0.1,0.48-0.21,0.96-0.3,1.44c-0.92,5.15-0.49,6.05,4.77,7.79c3.19,1.05,6.53,1.74,9.85,2.42
	c13.35,2.74,26.63,5.84,40.09,7.98c10.74,1.71,21.68,2.54,32.57,3.17c6.43,0.37,12.94-0.37,19.41-0.69
	c0.47-0.02,1.07-0.69,1.32-1.18c0.92-1.86,1.57-3.86,2.61-5.66C262.28,352.22,264.24,349.32,266.27,346.11z M310.28,363.73
	c0.68,0.06,1.06,0.12,1.43,0.12c16.38-0.38,32.74-1.26,48.89-3.88c11.4-1.85,22.69-4.31,34-6.64c6-1.24,12.08-2.37,17.84-4.29
	c6.32-2.1,6.26-2.74,4.55-9.11c-2.6,0.49-3.25,0-2.61-2.53c0.66-2.6,1.77-5.09,2.53-7.67c0.17-0.59-0.07-1.75-0.5-1.96
	c-1.27-0.62-2.75-1.28-4.12-1.23c-1.85,0.06-3.71,0.66-5.5,1.22c-4.28,1.33-8.44,3.06-12.8,4.11c-12.41,2.99-24.84,5.96-37.37,8.47
	c-8.49,1.7-17.15,2.72-25.77,3.84c-5.23,0.68-10.52,0.96-15.88,1.42C316.36,352.09,313.85,357.89,310.28,363.73z M276.18,372.4
	c-1.1-1.39-2.06-2.45-2.81-3.63c-0.27-0.42-0.03-1.12-0.02-1.69c0.67,0.07,1.37,0.06,2.01,0.24c0.32,0.09,0.53,0.52,0.78,0.8
	c1.6,1.78,3.18,3.59,4.82,5.35c1.66,1.79,3.66,2.26,6.19,1.69c3.36-0.75,6.19-2.33,8.75-4.37c2.49-1.99,4.89-4.08,7.22-6.22
	c4.85-4.46,8.22-9.55,7.46-16.29c-0.57-5.06-3.35-8.07-7.93-8c-2.05,0.03-4.13,0.93-6.09,1.7c-1.27,0.5-2.33,1.47-3.71,2.38
	c-0.4-2.24,1.59-2.99,2.43-4.39c-2.06-1.79-4.45-2.86-7.07-3.75c-3.47-1.19-6.38-0.4-8.97,1.62c-7.22,5.66-12.9,12.5-17.01,20.46
	c-1.53,2.96-1.61,6.06-0.39,9.14c0.99,2.51,2.87,4.07,5.8,4.32C270.32,371.97,272.99,372.16,276.18,372.4z"/>
<path class="st0" d="M308.08,366.56c0.9,1.05,1.51,1.78,2.14,2.51c7.09,8.24,12.6,17.42,18.25,26.53
	c5.61,9.04,10.28,18.46,14.34,28.15c3.32,7.94,6.24,16.03,9.34,24.06c0.98,2.53,0.81,5.1-0.66,7.29c-2.58,3.83-5.49,7.46-8.27,11.16
	c-1.59,2.11-3.07,4.3-4.86,6.26c-3.02,3.31-6.26,6.45-9.36,9.7c-1.1,1.15-1.96,2.54-3.15,3.6c-0.9,0.81-2.27,1.87-3.23,1.71
	c-0.92-0.15-2.01-1.62-2.28-2.67c-0.93-3.66-1.67-7.38-2.23-11.11c-0.78-5.16-1.12-10.38-2.01-15.52
	c-2.6-14.92-4.36-29.98-8.69-44.6c-1.54-5.19-2.99-10.41-4.82-15.51c-2.58-7.19-5.48-14.27-8.24-21.4c-0.06-0.16-0.2-0.3-0.39-0.56
	c-0.56,0.16-1.15,0.33-1.74,0.48c-5.36,1.35-10.49,1.51-14.96-2.29c-0.98-0.83-2.61-0.55-3.12,0.62c-1.86,4.3-3.78,8.6-5.36,13
	c-2.67,7.42-5.13,14.91-7.6,22.39c-3.85,11.62-6.08,23.57-7.81,35.59c-1.71,11.87-3.28,23.76-4.98,35.64
	c-0.22,1.53-0.79,3.02-1.28,4.49c-0.63,1.87-2.64,2.42-4.26,1.19c-0.49-0.37-0.91-0.84-1.32-1.3c-2.61-2.87-4.94-6.01-7.86-8.56
	c-5.74-5.02-9.44-11.43-14.12-17.17c-1.52-1.87-2.92-3.88-4.06-5.96c-1.09-1.99-1.01-4.2-0.2-6.31c4.91-12.9,9.29-26,15.87-38.27
	c4.41-8.22,9.13-16.32,14.16-24.23c3.61-5.69,8.02-10.94,11.91-16.49c0.59-0.85,0.28-2.25,0.37-3.27
	c-6.47,0.14-12.51,0.69-18.49,0.31c-11.13-0.71-22.32-1.37-33.29-3.12c-14.13-2.26-28.1-5.48-42.09-8.49
	c-3.96-0.85-7.91-2.07-11.59-3.67c-3.94-1.71-5.13-4.89-3.94-8.31c0.75-2.14,1.55-4.28,2.12-6.46c0.25-0.97,0.22-2.14-0.12-3.08
	c-2-5.55,0.76-9.17,7.09-8.74c2.91,0.2,5.79,0.99,8.62,1.71c8.71,2.23,17.35,4.67,26.08,6.8c8.05,1.96,16.15,3.8,24.3,5.36
	c16.97,3.24,34.14,4.58,51.46,4.26c0.61-0.01,1.33-0.31,1.81-0.68c1.9-1.5,3.78-3.02,5.55-4.64c4.22-3.84,13.14-4.45,17.66-0.36
	c0.86,0.78,1.93,1.39,2.97,1.97c0.42,0.23,1.05,0.27,1.55,0.19c5.66-0.97,10.53,0.34,14.54,4.27c0.32,0.32,0.98,0.6,1.41,0.53
	c7.14-1.1,14.28-2.23,21.41-3.42c6.36-1.06,12.73-2.1,19.06-3.31c6.7-1.29,13.4-2.6,20.02-4.21c7.87-1.91,15.64-4.16,23.46-6.24
	c2.96-0.79,5.92-1.56,8.9-2.23c2.54-0.57,4.97-0.02,7.3,0.95c1.9,0.79,3.04,2.79,2.74,4.73c-0.03,0.18-0.04,0.37-0.13,0.52
	c-1.83,3.22-0.71,6.36,0.24,9.52c0.42,1.38,0.73,2.8,0.95,4.21c0.46,3.03-1.11,5.3-4.03,6.64c-5.18,2.39-10.75,3.52-16.33,4.65
	c-13.09,2.66-26.13,5.59-39.3,7.79c-15.44,2.57-31.1,3.36-46.79,3.28C309.99,366.45,309.25,366.51,308.08,366.56z"/>
<path d="M257.26,365.38c-17.76,1.8-34.65,0.06-51.55-2.21c-14.7-1.98-29.03-5.44-43.41-8.71c-4.25-0.96-8.47-2.3-12.44-4.01
	c-3.57-1.54-4.67-4.83-3.53-7.97c0.79-2.19,1.61-4.39,2.18-6.63c0.25-0.96,0.15-2.13-0.2-3.07c-1.99-5.28,0.5-8.77,6.59-8.56
	c3.07,0.11,6.24,0.64,9.12,1.6c12.63,4.22,25.73,6.78,38.79,9.46c10.33,2.12,20.72,4.25,31.21,5.36
	c11.15,1.18,22.45,1.18,33.68,1.63c0.58,0.02,1.28-0.43,1.78-0.82c2.33-1.8,4.49-3.8,6.93-5.45c4.58-3.09,10.82-3.01,15.51-0.03
	c0.16,0.1,0.33,0.2,0.48,0.31c2.23,1.64,4.38,2.69,7.62,2.29c4.71-0.59,8.93,1.11,12.19,4.49c0.28,0.29,0.86,0.58,1.24,0.53
	c9.74-1.48,19.51-2.85,29.2-4.58c9.56-1.71,19.11-3.59,28.56-5.77c10.51-2.43,20.91-5.27,31.34-7.97c4.1-1.06,8.15-2.1,12.33-0.23
	c2.1,0.94,3.82,2.83,2.94,4.68c-2.13,4.43-0.11,8.41,0.86,12.53c1.1,4.67,0.07,6.95-4.62,8.74c-3.59,1.37-7.31,2.51-11.07,3.39
	c-9.13,2.13-18.29,4.18-27.5,6.02c-21.37,4.28-43.04,6.11-64.89,6.12c-0.62,0-1.23,0-2.04,0c2.48,3.15,4.85,6.06,7.1,9.04
	c2.32,3.08,4.64,6.17,6.75,9.38c2.43,3.69,4.48,7.58,6.95,11.24c5.81,8.63,10.13,17.92,14.14,27.31c3.42,7.99,6.36,16.15,9.57,24.22
	c1.43,3.57,0.08,6.69-1.96,9.5c-5.81,7.99-11.87,15.81-19.03,22.86c-2.07,2.04-4.04,4.18-6.06,6.27c-2.15,2.23-4.33,1.91-5.05-1.03
	c-1.17-4.78-2.02-9.64-2.8-14.49c-0.67-4.15-0.94-8.35-1.59-12.5c-3.25-20.67-6.7-41.32-13.97-61.21
	c-2.52-6.89-5.42-13.67-8.16-20.49c-0.06-0.16-0.23-0.28-0.44-0.54c-3.59,1.5-7.39,1.82-11.17,0.87c-1.87-0.47-3.68-1.35-5.29-2.35
	c-1.47-0.91-2.78-1.01-3.58,0.44c-1.05,1.89-2.11,3.81-2.81,5.82c-3.77,10.88-7.39,21.81-11.13,32.7
	c-4.18,12.21-5.95,24.84-7.82,37.45c-1.52,10.27-2.87,20.55-4.34,30.83c-0.17,1.18-0.56,2.34-0.89,3.49
	c-0.35,1.22-1.01,2.49-2.46,2.41c-1.13-0.06-2.47-0.7-3.25-1.48c-2.83-2.81-5.28-5.95-8.21-8.65c-5-4.61-8.77-10.02-12.72-15.35
	c-1.95-2.64-4.61-4.79-5.79-7.97c-0.8-2.17-1.01-4.22-0.21-6.31c4.95-12.91,9.41-26,16.08-38.28c4.5-8.28,9.32-16.42,14.44-24.39
	c3.63-5.64,8.06-10.84,11.97-16.33C257.42,368.15,257.12,366.75,257.26,365.38z M323.26,484.38c0.22,0.04,0.45,0.09,0.67,0.13
	c0.39-0.46,0.77-0.92,1.17-1.37c1.53-1.71,3.02-3.45,4.6-5.12c2.46-2.61,5.16-5.04,7.41-7.79c3.46-4.24,6.62-8.68,9.91-13.03
	c2.41-3.18,3.36-6.36,1.45-10.24c-1.97-3.99-3.25-8.27-4.87-12.42c-4.09-10.46-8.56-20.74-14.13-30.65
	C323.36,393,317.11,382.2,310,371.84c-1.1-1.6-2.34-3.1-3.38-4.48c-2.99,2.33-5.81,4.5-8.58,6.72c-0.28,0.23-0.45,0.85-0.33,1.19
	c0.7,2.05,1.43,4.1,2.27,6.1c2.12,5.11,4.74,10.08,6.37,15.31c3.77,12.11,7.91,24.21,10.34,36.58c2.72,13.82,3.72,27.92,5.46,41.9
	C322.53,478.24,322.89,481.31,323.26,484.38z M258.4,370.05c-1.46,2.21-2.95,4.37-4.34,6.59c-3.13,5.02-6.44,9.95-9.26,15.12
	c-5.41,9.93-10.95,19.84-15.64,30.06c-4.12,8.97-7.16,18.35-10.66,27.56c-0.89,2.35-0.23,4.51,1.16,6.5
	c1.4,2.01,3.04,3.88,4.39,5.92c3.53,5.32,7.66,10.19,12.15,14.84c2.53,2.62,4.96,5.34,7.57,8.17c0.2-0.65,0.42-1.13,0.5-1.63
	c0.52-3.12,1.12-6.24,1.49-9.37c0.51-4.33,0.69-8.7,1.29-13.03c1.4-10.21,2.66-20.46,4.54-30.6c2.11-11.37,5.13-22.56,9.81-33.33
	c1.9-4.37,3.44-8.87,5.12-13.32c1.15-3.03,2.26-6.07,3.41-9.18c-0.6-0.07-1.05-0.12-1.5-0.17c-3.15-0.34-3.18-0.22-4.24,2.62
	c-1.13,3.04-2.44,6.02-3.75,9c-1.33,3.02-2.96,5.94-4.1,9.02c-3.94,10.69-7.73,21.42-11.55,32.15c-1.09,3.07-2.06,6.18-3.11,9.26
	c-0.18,0.53-0.53,1.01-0.8,1.51c-0.41-0.57-0.47-0.99-0.4-1.38c1.46-7.69,2.67-15.37,5.42-22.87c3.56-9.7,7.12-19.37,11.67-28.73
	c0.5-1.04,0.89-2.13,1.49-3.12c1.65-2.72,3.39-5.4,5.04-8.02C262.04,372.32,260.27,371.22,258.4,370.05z M265.41,346.24
	c-0.69-0.04-1.07-0.07-1.44-0.09c-6.75-0.28-13.53-0.33-20.26-0.88c-15.03-1.24-29.9-3.46-44.58-6.72
	c-12.69-2.81-25.48-5.24-37.64-9.79c-2.08-0.78-4.37-1.17-6.6-1.49c-3.76-0.54-5.21,1.14-4.11,4.43c0.72,2.16,1.39,4.36,1.8,6.59
	c0.37,1.98-0.23,2.37-2.42,2.03c-0.1,0.47-0.21,0.94-0.29,1.41c-0.91,5.02-0.49,5.9,4.75,7.59c3.17,1.02,6.49,1.7,9.78,2.36
	c13.25,2.67,26.45,5.68,39.81,7.76c10.67,1.66,21.53,2.46,32.35,3.07c6.39,0.36,12.85-0.37,19.28-0.69
	c0.47-0.02,1.06-0.67,1.31-1.15c0.92-1.82,1.56-3.77,2.59-5.53C261.45,352.2,263.39,349.38,265.41,346.24z M309.13,363.4
	c0.68,0.06,1.05,0.12,1.42,0.11c16.27-0.38,32.51-1.25,48.55-3.82c11.32-1.81,22.53-4.22,33.76-6.49
	c5.96-1.21,11.99-2.32,17.72-4.19c6.27-2.05,6.21-2.67,4.51-8.89c-2.59,0.48-3.22,0-2.59-2.47c0.65-2.53,1.76-4.96,2.51-7.48
	c0.17-0.58-0.07-1.7-0.49-1.91c-1.26-0.61-2.73-1.24-4.09-1.2c-1.84,0.06-3.69,0.65-5.46,1.19c-4.25,1.3-8.38,2.99-12.71,4.01
	c-12.32,2.92-24.66,5.83-37.1,8.29c-8.43,1.67-17.03,2.66-25.59,3.76c-5.2,0.66-10.45,0.94-15.77,1.39
	C315.15,352.04,312.66,357.7,309.13,363.4z M275.26,371.87c-1.09-1.35-2.04-2.39-2.79-3.54c-0.26-0.41-0.03-1.09-0.02-1.65
	c0.67,0.07,1.36,0.06,1.99,0.23c0.32,0.09,0.53,0.5,0.78,0.78c1.59,1.74,3.16,3.5,4.79,5.21c1.65,1.75,3.64,2.2,6.15,1.65
	c3.34-0.73,6.15-2.28,8.68-4.27c2.47-1.94,4.85-3.98,7.17-6.07c4.81-4.35,8.16-9.32,7.4-15.89c-0.57-4.94-3.33-7.87-7.87-7.79
	c-2.03,0.03-4.11,0.91-6.04,1.66c-1.26,0.49-2.32,1.44-3.68,2.32c-0.39-2.19,1.58-2.92,2.42-4.29c-2.04-1.75-4.42-2.78-7.02-3.66
	c-3.45-1.16-6.34-0.39-8.9,1.59c-7.17,5.53-12.81,12.2-16.88,19.96c-1.52,2.89-1.59,5.91-0.38,8.91c0.99,2.45,2.85,3.97,5.76,4.21
	C269.44,371.46,272.09,371.64,275.26,371.87z"/>
<g>
	<path class="st0" d="M309.65,367.46c0.91,1.08,1.54,1.82,2.18,2.56c7.23,8.42,12.84,17.78,18.6,27.09
		c5.71,9.23,10.47,18.85,14.6,28.74c3.39,8.11,6.36,16.37,9.51,24.56c1,2.58,0.82,5.21-0.68,7.44c-2.63,3.91-5.6,7.61-8.45,11.39
		c-1.62,2.15-3.14,4.39-4.96,6.38c-3.08,3.38-6.39,6.58-9.56,9.89c-1.13,1.18-2,2.59-3.21,3.67c-0.92,0.82-2.32,1.9-3.29,1.74
		c-0.94-0.16-2.05-1.65-2.32-2.73c-0.95-3.74-1.7-7.54-2.27-11.34c-0.79-5.27-1.13-10.6-2.04-15.84
		c-2.64-15.22-4.43-30.6-8.84-45.52c-1.57-5.3-3.04-10.63-4.91-15.83c-2.63-7.33-5.58-14.57-8.39-21.84
		c-0.06-0.16-0.21-0.3-0.4-0.57c-0.58,0.16-1.17,0.34-1.78,0.49c-5.46,1.38-10.7,1.53-15.26-2.34c-1-0.85-2.66-0.56-3.18,0.63
		c-1.9,4.39-3.86,8.77-5.47,13.26c-2.72,7.57-5.24,15.21-7.77,22.85c-3.93,11.86-6.21,24.05-7.99,36.32
		c-1.75,12.12-3.36,24.25-5.1,36.37c-0.22,1.56-0.8,3.08-1.31,4.59c-0.65,1.91-2.69,2.47-4.35,1.21c-0.5-0.38-0.93-0.86-1.35-1.33
		c-2.66-2.93-5.03-6.13-8.01-8.75c-5.85-5.13-9.63-11.67-14.39-17.53c-1.55-1.91-2.97-3.96-4.14-6.09c-1.11-2.03-1.02-4.29-0.2-6.44
		c5.01-13.16,9.49-26.53,16.21-39.04c4.5-8.39,9.33-16.65,14.46-24.72c3.69-5.81,8.19-11.16,12.16-16.82
		c0.61-0.86,0.28-2.3,0.38-3.34c-6.6,0.14-12.76,0.69-18.85,0.3c-11.35-0.73-22.76-1.41-33.95-3.2
		c-14.42-2.31-28.65-5.61-42.92-8.69c-4.04-0.87-8.06-2.12-11.82-3.75c-4.02-1.75-5.23-4.99-4.02-8.48
		c0.76-2.19,1.59-4.36,2.16-6.59c0.26-0.99,0.23-2.18-0.12-3.14c-2.04-5.67,0.78-9.36,7.24-8.92c2.96,0.2,5.91,1.01,8.8,1.75
		c8.88,2.28,17.69,4.78,26.6,6.95c8.21,2,16.47,3.89,24.78,5.49c17.3,3.32,34.82,4.7,52.49,4.37c0.63-0.01,1.36-0.31,1.85-0.7
		c1.94-1.53,3.85-3.08,5.67-4.73c4.3-3.92,13.4-4.53,18.01-0.35c0.88,0.8,1.97,1.42,3.03,2.01c0.42,0.23,1.07,0.28,1.58,0.19
		c5.78-0.99,10.74,0.35,14.83,4.37c0.33,0.33,0.99,0.61,1.44,0.54c7.29-1.12,14.57-2.27,21.84-3.48c6.49-1.08,12.99-2.13,19.45-3.37
		c6.83-1.31,13.67-2.65,20.42-4.28c8.03-1.95,15.96-4.24,23.93-6.36c3.01-0.8,6.04-1.59,9.08-2.27c2.59-0.58,5.07-0.02,7.44,0.97
		c1.94,0.81,3.1,2.85,2.79,4.82c-0.03,0.18-0.04,0.38-0.13,0.53c-1.87,3.29-0.73,6.49,0.24,9.72c0.42,1.41,0.74,2.85,0.96,4.3
		c0.47,3.1-1.14,5.41-4.11,6.78c-5.29,2.44-10.97,3.59-16.66,4.74c-13.35,2.71-26.65,5.69-40.09,7.93
		c-15.75,2.62-31.72,3.41-47.72,3.32C311.6,367.34,310.85,367.4,309.65,367.46z"/>
	<g>
		<g>
			<path class="st1" d="M246.8,458.37c-4.05-1.78-7.6-4.41-11.17-6.99c-3.9-2.81-7.79-5.63-11.69-8.44c-1.1-0.79-2.79-0.19-3.42,0.9
				c-0.74,1.26-0.2,2.63,0.9,3.42c3.9,2.81,7.79,5.63,11.69,8.44c3.57,2.58,7.12,5.21,11.17,6.99c1.23,0.54,2.68,0.36,3.42-0.9
				C248.31,460.73,248.04,458.92,246.8,458.37L246.8,458.37z"/>
		</g>
	</g>
	<g>
		<g>
			<path class="st1" d="M324.22,455.78c-0.05-0.04-0.11-0.09-0.16-0.13c0.21,0.37,0.43,0.74,0.64,1.1
				c-0.01-0.06-0.02-0.13-0.03-0.19c0,0.44,0,0.89,0,1.33c-0.13,0.44-0.5,0.66,0.13,0.16c0.19-0.15,0.38-0.29,0.58-0.43
				c0.51-0.37,1.03-0.73,1.55-1.08c1.08-0.73,2.16-1.45,3.21-2.22c1.87-1.39,3.64-2.9,5.39-4.43c3.21-2.79,6.5-5.72,10.51-7.29
				c1.26-0.49,2.13-1.67,1.75-3.08c-0.33-1.2-1.81-2.24-3.08-1.75c-5.23,2.06-9.34,5.66-13.54,9.29c-2.06,1.78-4.17,3.4-6.42,4.92
				c-1.26,0.85-2.57,1.71-3.72,2.72c-1.29,1.13-1.87,3.39-0.34,4.6c1.06,0.84,2.5,1.03,3.54,0
				C325.09,458.45,325.28,456.63,324.22,455.78L324.22,455.78z"/>
		</g>
	</g>
	<path d="M257.98,366.21c-17.87,1.83-34.87,0.04-51.87-2.29c-14.79-2.03-29.21-5.57-43.68-8.91c-4.28-0.99-8.53-2.35-12.51-4.1
		c-3.59-1.57-4.69-4.93-3.55-8.14c0.8-2.24,1.62-4.48,2.2-6.76c0.25-0.98,0.16-2.17-0.2-3.13c-2-5.39,0.51-8.95,6.63-8.73
		c3.09,0.11,6.28,0.66,9.18,1.64c12.71,4.31,25.89,6.94,39.03,9.68c10.39,2.17,20.85,4.35,31.41,5.49
		c11.22,1.21,22.59,1.21,33.89,1.68c0.59,0.02,1.29-0.44,1.79-0.83c2.34-1.83,4.52-3.87,6.98-5.55c4.61-3.16,10.89-3.07,15.6-0.02
		c0.16,0.1,0.33,0.2,0.48,0.31c2.24,1.68,4.41,2.75,7.67,2.34c4.74-0.6,8.98,1.14,12.26,4.58c0.28,0.3,0.87,0.6,1.25,0.54
		c9.8-1.51,19.63-2.9,29.39-4.66c9.63-1.74,19.23-3.65,28.74-5.88c10.58-2.47,21.04-5.37,31.54-8.12c4.13-1.08,8.2-2.14,12.41-0.23
		c2.11,0.96,3.84,2.89,2.95,4.77c-2.14,4.52-0.11,8.58,0.86,12.79c1.1,4.77,0.07,7.09-4.65,8.92c-3.61,1.39-7.36,2.55-11.14,3.45
		c-9.19,2.17-18.41,4.26-27.67,6.13c-21.51,4.35-43.31,6.21-65.31,6.21c-0.62,0-1.24,0-2.06,0c2.5,3.22,4.88,6.19,7.14,9.23
		c2.33,3.15,4.67,6.3,6.79,9.58c2.44,3.76,4.51,7.74,6.98,11.48c5.84,8.81,10.18,18.29,14.21,27.88c3.43,8.16,6.39,16.49,9.62,24.72
		c1.43,3.65,0.08,6.83-1.98,9.7c-5.85,8.15-11.96,16.13-19.16,23.32c-2.09,2.08-4.07,4.26-6.1,6.39c-2.16,2.27-4.36,1.95-5.08-1.05
		c-1.17-4.88-2.03-9.84-2.81-14.79c-0.67-4.23-0.94-8.52-1.6-12.75c-3.26-21.1-6.72-42.17-14.02-62.48
		c-2.53-7.04-5.45-13.95-8.2-20.92c-0.06-0.16-0.23-0.29-0.45-0.55c-3.61,1.53-7.43,1.86-11.24,0.89c-1.88-0.48-3.7-1.38-5.33-2.4
		c-1.48-0.93-2.79-1.03-3.6,0.45c-1.06,1.93-2.13,3.89-2.83,5.94c-3.8,11.1-7.45,22.25-11.21,33.37c-4.22,12.46-6,25.35-7.89,38.21
		c-1.54,10.48-2.9,20.97-4.38,31.46c-0.17,1.2-0.57,2.38-0.9,3.57c-0.35,1.24-1.02,2.54-2.47,2.46c-1.13-0.06-2.48-0.72-3.27-1.52
		c-2.84-2.87-5.31-6.08-8.26-8.84c-5.03-4.71-8.82-10.24-12.79-15.67c-1.97-2.69-4.64-4.89-5.82-8.14c-0.8-2.21-1.02-4.31-0.21-6.44
		c4.99-13.17,9.49-26.53,16.2-39.05c4.53-8.44,9.39-16.76,14.54-24.88c3.65-5.75,8.12-11.05,12.06-16.66
		C258.14,369.03,257.84,367.61,257.98,366.21z M324.33,487.69c0.23,0.04,0.45,0.09,0.68,0.13c0.39-0.47,0.77-0.94,1.18-1.4
		c1.54-1.75,3.05-3.52,4.63-5.22c2.47-2.66,5.2-5.14,7.46-7.94c3.49-4.32,6.67-8.86,9.98-13.3c2.42-3.25,3.39-6.49,1.46-10.45
		c-1.98-4.07-3.26-8.45-4.89-12.67c-4.11-10.67-8.6-21.17-14.2-31.29c-6.15-11.12-12.43-22.14-19.58-32.72
		c-1.1-1.63-2.35-3.17-3.4-4.57c-3.01,2.38-5.85,4.59-8.64,6.85c-0.29,0.23-0.45,0.86-0.33,1.21c0.7,2.09,1.44,4.18,2.28,6.23
		c2.13,5.21,4.77,10.29,6.4,15.63c3.79,12.37,7.95,24.72,10.39,37.34c2.73,14.1,3.73,28.5,5.47,42.76
		C323.6,481.42,323.96,484.56,324.33,487.69z M259.13,370.97c-1.47,2.26-2.97,4.46-4.37,6.72c-3.15,5.12-6.49,10.16-9.33,15.43
		c-5.45,10.13-11.03,20.24-15.76,30.67c-4.15,9.15-7.21,18.73-10.74,28.12c-0.9,2.39-0.23,4.6,1.16,6.63
		c1.41,2.05,3.05,3.97,4.41,6.05c3.55,5.43,7.7,10.41,12.22,15.15c2.55,2.68,4.98,5.45,7.62,8.34c0.2-0.66,0.42-1.15,0.51-1.66
		c0.53-3.18,1.13-6.36,1.51-9.56c0.52-4.42,0.7-8.88,1.3-13.29c1.42-10.42,2.68-20.88,4.59-31.22c2.13-11.6,5.18-23.02,9.89-34.01
		c1.91-4.46,3.46-9.05,5.16-13.59c1.15-3.09,2.27-6.19,3.44-9.37c-0.61-0.07-1.06-0.12-1.51-0.17c-3.17-0.35-3.2-0.23-4.26,2.67
		c-1.13,3.1-2.46,6.14-3.78,9.18c-1.34,3.08-2.98,6.06-4.13,9.2c-3.97,10.91-7.79,21.86-11.64,32.8c-1.1,3.13-2.07,6.3-3.14,9.45
		c-0.18,0.54-0.53,1.03-0.8,1.54c-0.41-0.58-0.48-1.01-0.4-1.41c1.48-7.84,2.69-15.68,5.47-23.33c3.59-9.9,7.18-19.77,11.76-29.31
		c0.51-1.06,0.9-2.18,1.5-3.18c1.67-2.78,3.41-5.51,5.08-8.18C262.78,373.29,261.01,372.16,259.13,370.97z M266.19,346.67
		c-0.7-0.05-1.07-0.08-1.45-0.09c-6.8-0.29-13.61-0.34-20.38-0.91c-15.12-1.27-30.08-3.55-44.86-6.88
		c-12.76-2.88-25.64-5.36-37.87-10.01c-2.09-0.8-4.39-1.2-6.64-1.53c-3.79-0.56-5.24,1.17-4.14,4.52c0.73,2.21,1.39,4.45,1.81,6.73
		c0.37,2.02-0.23,2.42-2.43,2.07c-0.1,0.48-0.21,0.95-0.3,1.44c-0.92,5.13-0.49,6.02,4.77,7.75c3.19,1.05,6.53,1.74,9.84,2.41
		c13.34,2.73,26.61,5.81,40.06,7.94c10.74,1.7,21.67,2.53,32.55,3.16c6.43,0.37,12.93-0.37,19.4-0.69c0.47-0.02,1.07-0.68,1.32-1.18
		c0.92-1.86,1.57-3.84,2.61-5.64C262.21,352.76,264.16,349.87,266.19,346.67z M310.17,364.22c0.68,0.06,1.06,0.12,1.43,0.12
		c16.37-0.37,32.72-1.25,48.86-3.87c11.39-1.84,22.68-4.29,33.97-6.61c5.99-1.23,12.07-2.36,17.83-4.27
		c6.31-2.09,6.25-2.73,4.54-9.07c-2.6,0.49-3.24,0-2.61-2.52c0.65-2.59,1.77-5.07,2.53-7.63c0.17-0.59-0.07-1.74-0.5-1.95
		c-1.27-0.62-2.75-1.27-4.12-1.22c-1.85,0.06-3.71,0.66-5.5,1.21c-4.28,1.32-8.44,3.04-12.79,4.09c-12.4,2.98-24.82,5.94-37.34,8.44
		c-8.49,1.69-17.14,2.71-25.75,3.82c-5.23,0.67-10.52,0.95-15.87,1.41C316.24,352.63,313.74,358.4,310.17,364.22z M276.09,372.84
		c-1.1-1.38-2.05-2.44-2.8-3.61c-0.27-0.42-0.03-1.11-0.02-1.68c0.67,0.07,1.37,0.06,2.01,0.24c0.32,0.09,0.53,0.52,0.78,0.8
		c1.6,1.78,3.18,3.57,4.81,5.32c1.66,1.78,3.66,2.25,6.18,1.69c3.36-0.75,6.19-2.32,8.74-4.35c2.49-1.98,4.89-4.06,7.22-6.19
		c4.84-4.44,8.22-9.51,7.46-16.21c-0.57-5.04-3.34-8.03-7.92-7.96c-2.04,0.03-4.13,0.93-6.08,1.69c-1.27,0.5-2.33,1.47-3.7,2.36
		c-0.4-2.23,1.59-2.98,2.43-4.37c-2.06-1.78-4.45-2.84-7.07-3.74c-3.47-1.18-6.38-0.4-8.96,1.61c-7.22,5.64-12.89,12.45-17,20.37
		c-1.53,2.95-1.61,6.03-0.39,9.1c0.99,2.5,2.87,4.05,5.79,4.3C270.24,372.42,272.9,372.6,276.09,372.84z"/>
</g>
</svg>
